<svg t="1721021476801" class="icon" viewBox="0 0 1024 1024" version="1.1" xmlns="http://www.w3.org/2000/svg" p-id="5929" width="256" height="256"><path d="M912 252.56a117.12 117.12 0 0 1-8 13.96c-7.24 9.44-17.68 12.2-29.08 12.2-25.52 0-51.04 0.24-76.56 0a10.4 10.4 0 0 0-11.72 8 114.96 114.96 0 0 1-214.96 2.16c-2.96-8-6.6-10.28-14.92-10.28q-201.48 0.44-403.04 0a91 91 0 0 1-13.2-0.76A33 33 0 0 1 112 244a33.4 33.4 0 0 1 30.6-32h10.16q202.32 0 404.6 0.2c7.76 0 11.12-2.16 13.92-9.4a114.48 114.48 0 0 1 141.32-68.76 112.28 112.28 0 0 1 73.92 69.72c2.48 6.44 5.32 8.56 12.2 8.44 23.68-0.48 47.4 0.48 71.08-0.4 20.76-0.76 35.24 6.64 42.2 26.76z m-233.4 42.48a49.88 49.88 0 1 0-49.72-49.44 50.04 50.04 0 0 0 49.72 49.44zM912 785.4c-6.96 20-21.44 27.52-42.2 26.76-24-0.88-48 0-72-0.4a9.96 9.96 0 0 0-11.16 7.68c-16.28 41.56-46.64 66.64-90.64 74.36-50.92 8.96-105.4-22.04-123.8-70.44-3.44-9-7.44-11.72-17.08-11.68q-202.68 0.6-405.4 0.28c-19.44 0-32-8.88-36.48-25.32a32.8 32.8 0 0 1 25.76-40.44 81.84 81.84 0 0 1 14-1h405.36a11.48 11.48 0 0 0 12.76-8.84A114.84 114.84 0 0 1 748 685.4a108.84 108.84 0 0 1 38.84 52.56 9.36 9.36 0 0 0 10.68 7.36c23.68-0.36 47.4 0.52 71.04-0.36 20.8-0.76 36 6.08 43.4 26.36z m-283.12-6.6a49.88 49.88 0 1 0 49.2-49.96 50.12 50.12 0 0 0-49.2 49.96zM912 518.2c-6.56 20.4-20.96 27.24-41.76 27.2-134.36-0.44-268.68 0-403-0.44-8 0-11.72 2.12-14.64 9.72a114.48 114.48 0 0 1-142.12 68.28 112 112 0 0 1-72.76-68.88 12 12 0 0 0-13.44-9.08c-27.08 0.36-54.16 0.68-81.2-0.24a32.72 32.72 0 0 1-25.84-50.56 33.48 33.48 0 0 1 30.52-15.52c25.24 0 50.52-0.32 75.76 0.24 8 0 11.6-2.16 14.52-9.8a114.48 114.48 0 0 1 142.2-68 111.68 111.68 0 0 1 72.36 68.24c2.96 7.6 6.68 9.72 14.64 9.72 134.32-0.28 268.64 0 403-0.44 20.8 0 35.2 6.8 41.76 27.2z m-516.92-5.56a49.88 49.88 0 1 0-50.08 49.24 50 50 0 0 0 50.08-49.24z" p-id="5930"></path></svg>
