<svg t="1720347289873" class="icon" viewBox="0 0 1024 1024" version="1.1" xmlns="http://www.w3.org/2000/svg" p-id="3570" width="128" height="128"><path d="M74.379636 443.578182c0-239.010909 196.375273-431.941818 437.527273-431.941818 241.245091 0 437.620364 192.930909 437.620364 431.941818a34.909091 34.909091 0 0 1-57.437091 26.670545c-27.601455-23.272727-50.641455-39.842909-69.352727-50.408727-19.409455-10.938182-30.906182-13.544727-36.25891-13.544727-5.306182 0-16.802909 2.606545-36.258909 13.544727-18.711273 10.565818-41.751273 27.089455-69.352727 50.408727a34.909091 34.909091 0 0 1-47.010909-1.861818c-44.962909-44.264727-85.457455-62.091636-121.949091-62.091636-36.445091 0-76.939636 17.826909-121.902545 62.138182a34.909091 34.909091 0 0 1-47.010909 1.815272c-27.554909-23.272727-50.641455-39.842909-69.352728-50.408727-19.409455-10.938182-30.906182-13.544727-36.258909-13.544727-5.306182 0-16.802909 2.606545-36.212363 13.544727-18.757818 10.565818-41.797818 27.089455-69.352728 50.408727a34.909091 34.909091 0 0 1-57.437091-26.670545zM152.203636 367.709091c4.980364-3.118545 9.867636-6.050909 14.615273-8.750546 23.272727-13.125818 47.383273-22.528 70.516364-22.528 23.133091 0 47.243636 9.402182 70.516363 22.528 17.361455 9.774545 36.165818 22.714182 56.32 38.493091 46.08-38.865455 95.418182-61.021091 147.735273-61.021091 52.270545 0 101.562182 22.155636 147.688727 60.974546a459.403636 459.403636 0 0 1 56.32-38.446546c23.272727-13.125818 47.383273-22.528 70.516364-22.528 23.133091 0 47.243636 9.402182 70.516364 22.528 4.747636 2.699636 9.634909 5.585455 14.615272 8.750546C836.235636 204.474182 689.012364 81.454545 512 81.454545c-177.058909 0-324.328727 123.019636-359.703273 286.301091z" fill="#515151" p-id="3571"></path><path d="M348.113455 413.323636a34.909091 34.909091 0 0 1 47.662545 12.846546l146.432 254.603636a34.909091 34.909091 0 0 1-48.919273 46.917818l-402.664727-254.603636a34.909091 34.909091 0 1 1 37.329455-59.019636l283.368727 179.2-76.055273-132.282182a34.909091 34.909091 0 0 1 12.846546-47.662546z" fill="#515151" p-id="3572"></path><path d="M675.84 413.323636a34.909091 34.909091 0 0 1 12.846545 47.662546l-76.055272 132.282182 283.368727-179.2a34.909091 34.909091 0 0 1 37.329455 59.019636l-402.664728 254.603636a34.909091 34.909091 0 0 1-48.919272-46.917818l146.432-254.603636a34.909091 34.909091 0 0 1 47.662545-12.846546z" fill="#515151" p-id="3573"></path><path d="M383.162182 823.482182c0-17.780364 14.429091-32.209455 32.209454-32.209455h193.256728a32.209455 32.209455 0 1 1 0 64.418909H415.371636a32.209455 32.209455 0 0 1-32.209454-32.209454z" fill="#515151" p-id="3574"></path><path d="M197.818182 698.181818a34.909091 34.909091 0 0 1 34.909091-34.909091h558.545454a34.909091 34.909091 0 0 1 34.909091 34.909091v279.272727a34.909091 34.909091 0 0 1-34.909091 34.909091H232.727273a34.909091 34.909091 0 0 1-34.909091-34.909091v-279.272727z m69.818182 34.909091v209.454546h488.727272v-209.454546H267.636364z" fill="#515151" p-id="3575"></path></svg>
