<svg t="1720421564066" class="icon" viewBox="0 0 1024 1024" version="1.1" xmlns="http://www.w3.org/2000/svg" p-id="3133" width="128" height="128"><path d="M220.586667 916.48a109.098667 109.098667 0 0 1-80.213334-32.853333 109.098667 109.098667 0 0 1-32.853333-80.213334V220.586667c0-31.530667 10.965333-58.24 32.853333-80.213334a109.098667 109.098667 0 0 1 80.213334-32.853333h234.88c15.701333 0 29.056 5.461333 40.064 16.469333 10.965333 11.008 16.469333 24.32 16.469333 40.064 0 15.701333-5.504 29.013333-16.469333 40.021334-11.008 11.008-24.32 16.512-40.064 16.512H220.586667v582.826666h582.826666v-234.88c0-15.701333 5.546667-29.056 16.512-40.064 10.965333-10.965333 24.32-16.469333 40.021334-16.469333s29.056 5.504 40.064 16.469333c11.008 11.008 16.469333 24.32 16.469333 40.064v234.88c0 31.530667-10.965333 58.24-32.853333 80.213334a109.056 109.056 0 0 1-80.213334 32.853333H220.586667z m172.458666-285.525333a53.333333 53.333333 0 0 1-15.957333-39.210667c0-15.488 5.333333-28.586667 15.957333-39.210667l331.946667-331.946666h-71.125333c-15.701333 0-29.056-5.546667-40.064-16.512A54.528 54.528 0 0 1 597.333333 164.053333c0-15.744 5.504-29.056 16.469334-40.106666 11.008-10.965333 24.32-16.426667 40.064-16.426667h206.08c15.701333 0 29.056 5.461333 40.064 16.469333 11.008 11.008 16.469333 24.32 16.469333 40.064v206.08c0 15.701333-5.461333 29.056-16.469333 40.064-11.008 10.965333-24.32 16.469333-40.064 16.469334-15.701333 0-29.013333-5.504-40.021334-16.469334a54.528 54.528 0 0 1-16.512-40.064V299.008l-333.013333 333.013333c-10.24 10.24-22.954667 15.36-38.144 15.36s-28.288-5.504-39.210667-16.426666z" p-id="3134"></path></svg>
