<svg t="1720258677903" class="icon" viewBox="0 0 1024 1024" version="1.1" xmlns="http://www.w3.org/2000/svg" p-id="31975" width="128" height="128"><path d="M512 512m-512 0a512 512 0 1 0 1024 0 512 512 0 1 0-1024 0Z" fill="#EACA44" p-id="31976"></path><path d="M512 64C264.576 64 64 264.576 64 512s200.576 448 448 448 448-200.576 448-448S759.424 64 512 64z m0 832C299.936 896 128 724.064 128 512S299.936 128 512 128s384 171.936 384 384-171.936 384-384 384z" fill="" p-id="31977"></path><path d="M609.184 498.4A126.848 126.848 0 0 0 640 416a127.68 127.68 0 0 0-96-123.456V224h-32v64h-32V224h-32v64h-96v32c32 0 32 32 32 32v320s0 32-32 32v32h96v64h32v-64h32v64h32v-64a128 128 0 0 0 128-128 127.424 127.424 0 0 0-62.816-109.6zM512 352a64 64 0 0 1 0 128h-64v-128h64z m32 320h-96v-128h96a64 64 0 0 1 0 128z" fill="" p-id="31978"></path></svg>
