<?xml version="1.0" standalone="no"?><!DOCTYPE svg PUBLIC "-//W3C//DTD SVG 1.1//EN" "http://www.w3.org/Graphics/SVG/1.1/DTD/svg11.dtd"><svg t="1724559429285" class="icon" viewBox="0 0 1024 1024" version="1.1" xmlns="http://www.w3.org/2000/svg" p-id="9612" xmlns:xlink="http://www.w3.org/1999/xlink" width="256" height="256"><path d="M11.815385 551.384615c-7.876923-7.876923-11.815385-19.692308-11.815385-27.56923s3.938462-19.692308 11.815385-27.569231l55.138461-55.138462c15.753846-15.753846 39.384615-15.753846 55.138462 0l3.938461 3.938462 216.615385 232.369231c7.876923 7.876923 19.692308 7.876923 27.569231 0L897.969231 129.969231h3.938461c15.753846-15.753846 39.384615-15.753846 55.138462 0l55.138461 55.138461c15.753846 15.753846 15.753846 39.384615 0 55.138462l-630.153846 653.784615c-7.876923 7.876923-15.753846 11.815385-27.569231 11.815385-11.815385 0-19.692308-3.938462-27.56923-11.815385L19.692308 563.2 11.815385 551.384615z" p-id="9613"></path></svg>