<svg t="1719630106429" class="icon" viewBox="0 0 1024 1024" version="1.1" xmlns="http://www.w3.org/2000/svg" p-id="19339" width="128" height="128"><path d="M830.805 480.128l95.702 94.123a38.4 38.4 0 0 1-23.296 66.304 40.021 40.021 0 0 1-33.323-13.355c-30.592-30.72-96.128-95.701-97.707-97.152l-59.733 34.133c1.237 2.859 42.027 90.027 60.715 130.304a39.04 39.04 0 0 1-46.934 53.931 37.333 37.333 0 0 1-23.594-21.59c-19.2-41.258-61.398-131.157-63.104-134.613-27.051 4.566-57.899 8.534-84.31 13.526-2.176 0.426-0.682 102.058 0 119.466a42.667 42.667 0 0 1-85.333 0c-0.683-21.333 0-87.381 0-119.466l-90.752-13.867c-1.365 2.816-42.667 91.35-61.61 131.541a38.827 38.827 0 0 1-40.79 26.027 38.101 38.101 0 0 1-31.232-54.357c13.568-30.507 28.032-60.587 60.843-131.243l-56.79-32.213c-2.389 2.261-67.157 66.816-96.938 96.384a38.4 38.4 0 0 1-42.112 9.685 35.84 35.84 0 0 1-24.704-31.744 37.376 37.376 0 0 1 12.074-32.64 4838.4 4838.4 0 0 1 92.118-88.576c-18.56-24.533-36.31-45.013-50.603-67.712a493.184 493.184 0 0 1-33.323-66.475 36.821 36.821 0 0 1 19.798-48 37.29 37.29 0 0 1 50.645 17.536c9.77 18.859 17.536 38.998 29.056 56.79a322.219 322.219 0 0 0 185.045 135.722 386.645 386.645 0 0 0 340.864-50.048A295.765 295.765 0 0 0 841.6 323.413a38.699 38.699 0 1 1 70.656 31.488 363.35 363.35 0 0 1-74.965 118.016c-1.75 1.707-3.2 3.627-6.486 7.211z" p-id="19340"></path></svg>
