<svg t="1719594072754" class="icon" viewBox="0 0 1024 1024" version="1.1" xmlns="http://www.w3.org/2000/svg" p-id="1673" width="128" height="128"><path d="M499.2 102.4a448 448 0 1 0 0 896 448 448 0 0 0 0-896z m0 76.8a371.2 371.2 0 1 1 0 742.4 371.2 371.2 0 0 1 0-742.4z" fill="#777B83" p-id="1674"></path><path d="M466.944 396.8c-33.792 0-61.44 27.648-61.44 61.44 0 33.792 27.648 61.44 61.44 61.44v-122.88z m61.44 307.2c33.792 0 61.44-27.648 61.44-61.44 0-33.792-27.648-61.44-61.44-61.44v122.88z m0 61.44v30.72h-61.44v-30.72c-67.584 0-122.88-55.296-122.88-122.88h61.44c0 33.792 27.648 61.44 61.44 61.44v-122.88c-67.584 0-122.88-55.296-122.88-122.88 0-67.584 55.296-122.88 122.88-122.88v-30.72h61.44v30.72a123.2384 123.2384 0 0 1 122.9312 122.88h-61.44c0-33.792-27.648-61.44-61.44-61.44v122.88h12.1856c21.5552 0 49.2032 12.288 70.7072 30.72 24.576 21.504 43.008 55.296 43.008 92.16-3.0208 67.584-58.3168 122.88-125.952 122.88z" fill="#777B83" p-id="1675"></path></svg>
