<svg t="1720259253567" class="icon" viewBox="0 0 1024 1024" version="1.1" xmlns="http://www.w3.org/2000/svg" p-id="50934" width="128" height="128"><path d="M512 1024c282.760533 0 512-229.239467 512-512 0-282.760533-229.239467-512-512-512C229.239467 0 0 229.239467 0 512c0 282.760533 229.239467 512 512 512z" fill="#EEEEEE" p-id="50935"></path><path d="M495.377067 573.0304l-46.011734 10.205867-5.973333-21.265067 48.571733-8.533333 3.413334 19.592533z" fill="#0000FF" p-id="50936"></path><path d="M449.365333 583.236267l-40.0384 13.585066-8.533333-22.1184 42.5984-12.731733 5.973333 21.265067z" fill="#0000FF" p-id="50937"></path><path d="M492.817067 552.618667l-48.571734 8.4992-5.12-24.6784 51.131734-7.645867 2.56 23.825067z" fill="#0028FF" p-id="50938"></path><path d="M444.279467 561.9712l-42.5984 12.731733-7.68-26.350933 46.011733-11.912533 4.266667 25.531733z" fill="#0018FF" p-id="50939"></path><path d="M498.756267 589.175467l-42.5984 11.0592-5.973334-16.9984 46.011734-10.24 2.56 16.1792z" fill="#0000F1" p-id="50940"></path><path d="M455.338667 600.234667l-36.625067 14.4384-9.386667-17.851734 40.0384-13.585066 5.973334 16.9984z" fill="#0000DA" p-id="50941"></path><path d="M490.257067 528.7936l-51.131734 7.645867-4.266666-28.0576 53.691733-5.9392 1.706667 26.350933z" fill="#0058FF" p-id="50942"></path><path d="M439.159467 536.439467l-46.011734 11.946666-6.826666-28.945066 47.7184-10.205867 5.12 27.204267z" fill="#0048FF" p-id="50943"></path><path d="M545.621333 566.203733l-50.2784 6.826667-2.56-20.411733 52.8384-5.12v18.705066z" fill="#0014FF" p-id="50944"></path><path d="M502.203733 601.088l-40.0384 11.912533-6.826666-12.765866 42.5984-11.0592 4.266666 11.912533z" fill="#0000DA" p-id="50945"></path><path d="M409.2928 596.821333l-32.3584 16.9984-11.946667-22.9376 35.805867-16.1792 8.533333 22.1184z" fill="#0000E8" p-id="50946"></path><path d="M462.165333 613.000533l-33.245866 15.291734-9.386667-13.6192 36.625067-14.4384 5.973333 12.765866z" fill="#0000C4" p-id="50947"></path><path d="M545.655467 547.498667l-52.8384 5.12-2.56-23.825067 55.3984-3.413333v22.1184z" fill="#003CFF" p-id="50948"></path><path d="M400.7936 573.883733l-35.771733 16.145067-10.24-27.204267 38.365866-15.325866 7.645867 26.385066z" fill="#0008FF" p-id="50949"></path><path d="M546.5088 581.5296l-47.684267 7.645867-3.413333-16.145067 50.244267-6.826667 0.853333 15.325867z" fill="#0000FF" p-id="50950"></path><path d="M418.747733 614.673067l-29.832533 17.032533-12.765867-18.705067 32.3584-17.032533 10.24 18.705067z" fill="#0000C8" p-id="50951"></path><path d="M487.765333 502.442667l-53.691733 5.9392-3.413333-30.6176 55.3984-4.232534 1.706666 28.910934z" fill="#0090FF" p-id="50952"></path><path d="M434.005333 508.381867l-47.7184 10.24-5.9392-31.505067 49.390934-9.352533 4.266666 30.6176z" fill="#0084FF" p-id="50953"></path><path d="M545.655467 525.4144l-55.364267 3.413333-2.56-26.385066 57.070933-1.706667 0.853334 24.6784z" fill="#0068FF" p-id="50954"></path><path d="M393.181867 548.352l-38.331734 15.325867-9.386666-30.6176 40.891733-14.472534 6.826667 29.764267z" fill="#003CFF" p-id="50955"></path><path d="M546.5088 592.554667l-44.305067 8.533333-3.413333-11.912533 47.7184-7.645867v11.0592z" fill="#0000F6" p-id="50956"></path><path d="M505.582933 608.733867l-36.625066 12.765866-6.826667-7.645866 40.0384-11.946667 3.413333 6.826667z" fill="#0000D1" p-id="50957"></path><path d="M428.919467 628.292267l-26.4192 17.851733-12.765867-13.585067 29.832533-17.032533 9.352534 12.765867z" fill="#0000AD" p-id="50958"></path><path d="M468.992 621.499733l-30.72 15.291734-10.205867-8.4992 33.211734-15.291734 7.68 8.4992z" fill="#0000BB" p-id="50959"></path><path d="M545.655467 500.736l-57.070934 1.706667-1.706666-28.910934h59.630933l-0.853333 27.204267z" fill="#009CFF" p-id="50960"></path><path d="M386.286933 518.587733l-40.891733 14.472534-7.645867-33.1776 42.5984-13.6192 5.9392 32.324266z" fill="#0078FF" p-id="50961"></path><path d="M546.474667 599.381333l-41.745067 9.352534-3.413333-7.645867 44.3392-8.533333 0.8192 6.826666z" fill="#0000ED" p-id="50962"></path><path d="M485.9904 473.531733l-55.364267 4.232534-2.56-32.290134 57.070934-2.56 0.853333 30.6176z" fill="#00CCFF" p-id="50963"></path><path d="M598.493867 562.824533l-51.950934 3.413334v-18.7392l54.510934-1.706667-2.56 17.032533z" fill="#002CFF" p-id="50964"></path><path d="M430.626133 477.764267l-49.425066 9.352533-4.266667-33.143467 51.131733-7.68 2.56 31.470934z" fill="#00C4FF" p-id="50965"></path><path d="M595.968 577.262933l-49.425067 5.12v-15.325866l51.950934-3.413334-2.56 13.653334z" fill="#0014FF" p-id="50966"></path><path d="M600.200533 545.792l-54.545066 1.706667v-22.084267h57.105066l-2.56 20.3776z" fill="#0050FF" p-id="50967"></path><path d="M376.9344 613.819733l-24.712533 19.592534-14.472534-23.825067 28.091734-19.5584 11.093333 23.790933z" fill="#0000DA" p-id="50968"></path><path d="M365.021867 590.0288l-28.091734 19.5584-12.8-27.204267 29.832534-18.705066 11.0592 26.350933z" fill="#0000FF" p-id="50969"></path><path d="M438.306133 636.791467l-23.005866 17.851733-12.765867-8.4992 26.4192-17.851733 9.352533 8.533333z" fill="#0000A4" p-id="50970"></path><path d="M388.881067 632.558933l-22.152534 19.5584-15.36-18.7392 24.746667-19.5584 12.765867 18.7392z" fill="#0000B6" p-id="50971"></path><path d="M509.0304 611.293867l-33.211733 12.731733-6.826667-2.525867 36.6592-12.765866 3.413333 2.56z" fill="#0000D6" p-id="50972"></path><path d="M593.408 586.615467l-46.865067 5.973333v-11.0592l49.390934-5.12-2.525867 10.24z" fill="#0004FF" p-id="50973"></path><path d="M602.760533 525.4144h-57.105066v-24.6784l58.811733 1.706667-1.706667 22.9376z" fill="#0078FF" p-id="50974"></path><path d="M474.965333 624.0256l-27.306666 15.325867-10.205867-3.413334 30.685867-15.291733 6.826666 3.413333z" fill="#0000BF" p-id="50975"></path><path d="M545.6896 473.531733h-59.665067l-1.706666-30.6176 60.5184 1.706667 0.853333 28.910933z" fill="#00D8FF" p-id="50976"></path><path d="M354.816 563.677867l-29.7984 18.705066-11.093333-30.6176 32.392533-17.851733 8.533333 29.764267z" fill="#0034FF" p-id="50977"></path><path d="M547.362133 601.941333l-38.365866 10.205867-3.413334-2.56 41.7792-9.352533v1.706666z" fill="#0000F1" p-id="50978"></path><path d="M402.5344 646.144l-18.773333 19.5584-16.145067-13.585067 22.152533-19.5584 12.765867 13.585067z" fill="#00009F" p-id="50979"></path><path d="M381.2352 487.1168l-42.5984 13.6192-5.973333-34.850133 43.451733-11.946667 5.12 33.1776z" fill="#00BCFF" p-id="50980"></path><path d="M591.633067 592.554667l-44.305067 6.826666v-6.826666l46.865067-5.9392-2.56 5.973333z" fill="#0000FF" p-id="50981"></path><path d="M485.1712 442.914133l-57.070933 2.56-1.706667-33.1776 57.924267-0.853333 0.853333 31.470933z" fill="#23FFD4" p-id="50982"></path><path d="M604.4672 501.589333l-58.811733-1.706666v-27.204267l60.5184 3.413333-1.706667 25.4976z" fill="#00ACFF" p-id="50983"></path><path d="M428.066133 446.293333l-51.0976 7.68-2.56-34.030933 51.950934-5.9392 1.706666 32.324267z" fill="#1CFFDB" p-id="50984"></path><path d="M448.512 639.317333l-19.592533 17.885867-12.8-3.413333 23.005866-17.851734 9.386667 3.413334z" fill="#0000AD" p-id="50985"></path><path d="M345.429333 533.060267l-32.392533 17.851733-9.386667-33.1776 34.0992-16.9984 7.68 32.324267z" fill="#0070FF" p-id="50986"></path><path d="M511.5904 608.733867l-29.832533 12.765866-5.973334 2.56 33.245867-12.765866 2.56-2.56z" fill="#0000E8" p-id="50987"></path><path d="M415.300267 654.677333l-16.1792 19.524267-16.1792-8.4992 18.7392-19.5584 13.653333 8.533333z" fill="#000096" p-id="50988"></path><path d="M545.6896 444.6208l-60.5184-1.706667-0.8192-31.470933 61.3376 3.413333v29.764267z" fill="#26FFD1" p-id="50989"></path><path d="M589.073067 594.261333l-41.745067 6.826667v-2.56l44.305067-6.826667-2.56 2.56z" fill="#0000FF" p-id="50990"></path><path d="M650.4448 562.824533h-51.985067l2.56-17.032533 53.691734 0.853333-4.266667 16.1792z" fill="#0044FF" p-id="50991"></path><path d="M645.358933 574.702933l-49.425066 1.706667 2.56-13.585067h51.985066l-5.12 11.8784z" fill="#002CFF" p-id="50992"></path><path d="M481.757867 622.353067l-23.8592 15.291733-9.352534 2.56 27.2384-15.325867 5.973334-2.525866z" fill="#0000D1" p-id="50993"></path><path d="M606.173867 476.910933l-60.5184-3.413333v-28.8768l61.3376 5.12-0.8192 27.170133z" fill="#00E0FB" p-id="50994"></path><path d="M547.328 599.381333l-35.771733 10.205867-3.413334 2.56 38.331734-10.24 0.853333-2.525867z" fill="#0000FF" p-id="50995"></path><path d="M653.892267 546.645333l-53.691734-0.853333 1.706667-20.411733 55.364267 2.56-3.413334 18.705066z" fill="#0064FF" p-id="50996"></path><path d="M376.968533 453.973333l-43.451733 11.8784-4.266667-35.703466 45.1584-11.0592 2.56 34.884266z" fill="#19FFDE" p-id="50997"></path><path d="M641.024 584.055467l-47.684267 3.413333 2.56-10.205867 49.390934-1.706666-4.232534 8.533333z" fill="#001CFF" p-id="50998"></path><path d="M351.4368 633.378133l-17.066667 22.1184-16.1792-23.790933 19.592534-22.1184 13.653333 23.790933z" fill="#0000D1" p-id="50999"></path><path d="M366.6944 652.117333l-14.472533 22.084267-17.885867-18.705067 17.066667-22.1184 15.291733 18.7392z" fill="#0000A8" p-id="51000"></path><path d="M484.352 412.296533l-57.9584 0.853334-0.853333-33.1776 58.7776 0.853333v31.470933z" fill="#5AFF9D" p-id="51001"></path><path d="M658.090667 527.940267l-55.364267-2.56 1.706667-22.9376 57.105066 5.12-3.413333 20.3776z" fill="#008CFF" p-id="51002"></path><path d="M337.783467 609.5872l-19.592534 22.1184-15.325866-28.0576 22.152533-21.265067 12.765867 27.204267z" fill="#0000FF" p-id="51003"></path><path d="M338.602667 500.736l-34.065067 16.9984-6.826667-35.703467 34.952534-16.145066 5.973333 34.850133z" fill="#00B8FF" p-id="51004"></path><path d="M426.325333 413.149867l-51.950933 5.9392-0.853333-33.9968 52.8384-4.266667v32.324267z" fill="#5AFF9D" p-id="51005"></path><path d="M635.938133 589.175467l-45.124266 4.266666 2.56-5.973333 47.684266-3.413333-5.12 5.12z" fill="#0018FF" p-id="51006"></path><path d="M457.898667 637.6448l-17.066667 16.9984-12.765867 2.56 19.592534-17.851733 10.24-1.706667z" fill="#0000BF" p-id="51007"></path><path d="M428.100267 657.2032l-12.765867 19.5584-16.213333-2.56 16.213333-19.5584 12.765867 2.56z" fill="#00009B" p-id="51008"></path><path d="M382.941867 665.7024l-11.946667 21.265067-18.7392-13.6192 14.506667-22.084267 16.1792 14.4384z" fill="#000092" p-id="51009"></path><path d="M586.513067 591.735467l-39.185067 7.645866v2.56l41.745067-6.826666-2.56-3.413334z" fill="#000CFF" p-id="51010"></path><path d="M324.983467 582.382933l-22.152534 21.230934-12.765866-31.4368 23.8592-21.265067 11.0592 31.470933z" fill="#002CFF" p-id="51011"></path><path d="M545.6896 415.709867l-61.3376-3.413334v-31.470933l62.190933 5.12-0.853333 29.764267z" fill="#5DFF9A" p-id="51012"></path><path d="M607.0272 450.56l-61.371733-5.12v-28.910933l62.190933 7.68-0.8192 26.350933z" fill="#2CFFCA" p-id="51013"></path><path d="M661.538133 506.6752l-57.070933-5.12 1.706667-25.4976 58.7776 6.826667-3.413334 23.790933z" fill="#00B8FF" p-id="51014"></path><path d="M514.9696 601.941333l-27.272533 12.731734-5.973334 7.68 29.832534-12.765867 3.413333-7.645867z" fill="#0000FF" p-id="51015"></path><path d="M548.2496 591.735467l-33.245867 10.205866-3.413333 7.645867 35.805867-10.205867 0.853333-7.645866z" fill="#000CFF" p-id="51016"></path><path d="M631.739733 590.0288l-42.5984 4.232533 2.56-1.706666 45.1584-4.232534-5.12 1.706667z" fill="#0018FF" p-id="51017"></path><path d="M487.697067 614.673067l-20.48 15.325866-9.352534 7.645867 23.8592-15.291733 5.973334-7.68z" fill="#0000F1" p-id="51018"></path><path d="M373.5552 419.089067l-44.305067 11.0592-1.706666-35.703467 45.1584-9.352533 0.853333 33.9968z" fill="#56FFA0" p-id="51019"></path><path d="M399.121067 674.2016l-9.386667 21.265067-18.7392-7.645867 11.946667-21.265067 16.1792 7.645867z" fill="#000089" p-id="51020"></path><path d="M313.924267 550.912l-23.8592 21.265067-11.0592-34.030934 25.565866-21.265066 9.352534 34.030933z" fill="#006CFF" p-id="51021"></path><path d="M332.663467 465.885867l-34.952534 16.145066-4.232533-36.5568 36.625067-15.325866 2.56 35.703466z" fill="#16FFE1" p-id="51022"></path><path d="M664.064 483.7376l-58.811733-6.826667 0.853333-26.350933 59.665067 8.533333-1.706667 24.644267z" fill="#06ECF1" p-id="51023"></path><path d="M483.464533 380.8256l-58.811733-0.853333v-32.324267l58.811733 1.706667v31.470933z" fill="#94FF63" p-id="51024"></path><path d="M584.840533 584.9088l-36.625066 7.68v6.792533l39.185066-7.645866-2.56-6.826667z" fill="#0024FF" p-id="51025"></path><path d="M440.832 654.677333l-10.24 18.670934-15.325867 3.413333 12.765867-19.5584 12.8-2.56z" fill="#0000AD" p-id="51026"></path><path d="M692.224 575.556267l-46.8992-0.8192 4.266667-12.765867 48.571733 2.56-5.973333 11.025067z" fill="#0044FF" p-id="51027"></path><path d="M698.1632 564.497067l-48.571733-2.525867 4.266666-16.1792 50.2784 3.413333-5.973333 15.291734z" fill="#005CFF" p-id="51028"></path><path d="M607.8464 422.5024l-62.190933-7.645867v-29.764266l63.044266 9.352533-0.8192 28.0576z" fill="#5DFF9A" p-id="51029"></path><path d="M425.506133 380.8256l-52.8384 4.266667v-33.1776l52.8384-3.413334v32.324267z" fill="#94FF63" p-id="51030"></path><path d="M627.438933 586.615467l-40.891733 5.12 2.56 2.56 42.564267-4.266667-4.232534-3.413333z" fill="#0028FF" p-id="51031"></path><path d="M467.285333 629.1456l-13.653333 16.9984-11.912533 8.533333 17.066666-17.032533 8.533334-8.4992z" fill="#0000DF" p-id="51032"></path><path d="M685.3632 583.236267l-45.1584 0.8192 4.266667-8.4992 46.830933 0.853333-5.9392 6.826667z" fill="#0038FF" p-id="51033"></path><path d="M704.136533 550.912l-50.2784-3.413333 4.266667-18.705067 51.131733 5.973333-5.12 16.145067z" fill="#0078FF" p-id="51034"></path><path d="M545.655467 385.9456l-62.190934-5.12v-30.6176l62.190934 6.826667v28.910933z" fill="#90FF66" p-id="51035"></path><path d="M415.300267 676.7616l-6.826667 20.411733-18.7392-2.56 9.386667-21.265066 16.1792 3.413333z" fill="#00008D" p-id="51036"></path><path d="M517.563733 590.0288l-24.712533 11.912533-5.12 12.731734 27.272533-12.731734 2.56-11.946666z" fill="#001CFF" p-id="51037"></path><path d="M679.389867 587.4688l-42.5984 1.706667 4.266666-5.12 45.1584-0.8192-6.826666 4.232533z" fill="#0034FF" p-id="51038"></path><path d="M548.215467 580.676267l-30.651734 9.352533-2.56 11.912533 33.211734-10.24v-11.025066z" fill="#0030FF" p-id="51039"></path><path d="M709.256533 533.9136l-51.131733-5.973333 3.413333-21.265067 52.8384 7.68-5.12 19.5584z" fill="#00A0FF" p-id="51040"></path><path d="M666.624 459.093333l-59.630933-8.533333 0.853333-27.204267 60.484267 11.0592-1.706667 24.644267z" fill="#33FFC4" p-id="51041"></path><path d="M304.5376 517.7344l-25.565867 21.265067-8.533333-35.703467 26.453333-20.411733 7.645867 34.850133z" fill="#00B0FF" p-id="51042"></path><path d="M334.370133 654.677333l-10.24 22.9376-18.7392-22.971733 11.946667-23.790933 17.032533 23.790933z" fill="#0000C8" p-id="51043"></path><path d="M352.256 673.348267l-8.533333 22.971733-19.592534-17.851733 10.24-22.971734 17.885867 17.851734z" fill="#0000A4" p-id="51044"></path><path d="M492.817067 601.941333l-17.885867 14.4384-8.533333 12.765867 20.48-15.291733 5.9392-11.946667z" fill="#0008FF" p-id="51045"></path><path d="M318.1568 631.7056l-11.946667 23.790933-16.9984-27.204266 13.6192-23.825067 15.36 27.2384z" fill="#0000FF" p-id="51046"></path><path d="M372.701867 385.092267l-45.1584 9.352533 0.853333-34.884267 45.1584-8.4992-0.853333 34.030934z" fill="#94FF63" p-id="51047"></path><path d="M672.631467 587.4688l-40.891734 1.706667 4.266667-0.853334 42.5984-1.706666-5.973333 0.853333z" fill="#0034FF" p-id="51048"></path><path d="M623.2064 579.822933l-38.331733 5.12 1.706666 6.792534 40.891734-5.12-4.266667-6.792534z" fill="#003CFF" p-id="51049"></path><path d="M329.284267 430.148267l-36.6592 15.325866-1.706667-36.590933 36.6592-14.4384 1.706667 35.703467z" fill="#56FFA0" p-id="51050"></path><path d="M371.029333 686.967467l-5.973333 22.1184-20.48-12.765867 8.533333-22.9376 17.885867 13.585067z" fill="#000089" p-id="51051"></path><path d="M583.133867 573.0304l-34.9184 6.792533v11.912534l36.625066-7.645867-1.706666-11.0592z" fill="#0044FF" p-id="51052"></path><path d="M714.3424 514.3552l-52.804267-7.68 2.56-22.9376 53.6576 9.352533-3.413333 21.265067z" fill="#00C8FF" p-id="51053"></path><path d="M608.699733 395.264l-63.044266-9.3184v-28.910933l63.044266 11.025066v27.2384z" fill="#90FF66" p-id="51054"></path><path d="M484.352 350.208l-58.811733-1.706667 1.706666-30.583466 57.924267 3.413333-0.853333 28.8768z" fill="#CAFF2C" p-id="51055"></path><path d="M452.8128 646.144l-7.68 18.705067-14.472533 8.533333 10.24-18.7392 11.946666-8.4992z" fill="#0000CD" p-id="51056"></path><path d="M302.865067 603.648l-13.653334 23.790933-14.472533-31.470933 15.36-23.790933 12.765867 31.470933z" fill="#0028FF" p-id="51057"></path><path d="M425.506133 348.501333l-52.8384 3.413334 1.706667-31.470934 51.985067-1.706666-0.853334 29.764266z" fill="#CEFF29" p-id="51058"></path><path d="M545.655467 357.034667l-62.190934-6.826667 0.853334-28.910933 61.3376 8.533333v27.204267z" fill="#C7FF30" p-id="51059"></path><path d="M430.626133 673.348267l-4.266666 19.5584-17.885867 3.413333 6.826667-20.411733 15.325866-2.56z" fill="#00009F" p-id="51060"></path><path d="M668.330667 433.5616l-60.450134-11.0592 0.853334-27.204267 60.484266 12.731734-0.853333 25.531733z" fill="#60FF97" p-id="51061"></path><path d="M666.658133 584.9088l-39.185066 2.56 4.266666 3.413333 40.891734-1.706666-5.973334-4.266667z" fill="#0040FF" p-id="51062"></path><path d="M474.965333 616.379733l-11.093333 16.1792-11.0592 13.585067 13.6192-16.9984 8.533333-12.765867z" fill="#0000FF" p-id="51063"></path><path d="M389.768533 695.466667l-4.266666 21.265066-21.2992-7.645866 5.973333-22.1184 19.592533 8.533333z" fill="#000080" p-id="51064"></path><path d="M297.710933 482.030933l-26.385066 20.411734-5.12-37.410134 27.272533-19.5584 4.232533 36.522667z" fill="#16FFE1" p-id="51065"></path><path d="M717.755733 493.090133l-53.691733-9.352533 2.56-24.6784 54.545067 11.912533-3.413334 22.1184z" fill="#0FF8E7" p-id="51066"></path><path d="M548.181333 564.497067l-28.091733 8.533333-2.56 16.145067 30.685867-9.352534v-15.291733z" fill="#0058FF" p-id="51067"></path><path d="M520.055467 573.0304l-22.152534 11.025067-5.12 17.032533 24.712534-11.912533 2.56-16.145067z" fill="#0048FF" p-id="51068"></path><path d="M619.758933 568.763733l-36.625066 4.266667 1.706666 11.025067 38.331734-5.085867-3.413334-10.205867z" fill="#0058FF" p-id="51069"></path><path d="M290.065067 573.0304l-15.36 23.790933-11.912534-33.9968 16.1792-23.825066 11.093334 34.030933z" fill="#0068FF" p-id="51070"></path><path d="M733.0816 578.9696l-40.891733-2.56 5.973333-11.0592 41.745067 4.266667-6.826667 9.352533z" fill="#0060FF" p-id="51071"></path><path d="M725.469867 584.9088l-39.2192-1.706667 6.826666-7.645866 40.891734 2.56-8.533334 6.826666z" fill="#0054FF" p-id="51072"></path><path d="M740.7616 568.763733l-41.7792-4.266666 5.973333-14.4384 43.451734 5.9392-7.645867 12.765866z" fill="#0074FF" p-id="51073"></path><path d="M581.461333 558.557867l-32.426666 5.9392v16.1792l34.952533-6.826667-2.56-15.291733z" fill="#006CFF" p-id="51074"></path><path d="M497.937067 584.9088l-15.36 13.653333-7.645867 17.8176 17.885867-14.4384 5.12-17.032533z" fill="#0038FF" p-id="51075"></path><path d="M661.538133 577.262933l-37.4784 2.56 4.266667 6.826667 39.185067-2.594133-5.973334-6.792534z" fill="#0054FF" p-id="51076"></path><path d="M608.699733 368.059733l-63.044266-11.025066v-27.2384l62.190933 12.765866 0.853333 25.4976z" fill="#C1FF36" p-id="51077"></path><path d="M408.4736 697.173333l-1.706667 21.265067-21.2992-1.706667 4.266667-21.265066 18.7392 1.706666z" fill="#000084" p-id="51078"></path><path d="M327.5776 394.4448l-36.6592 14.4384 0.853333-35.703467 36.6592-13.6192-0.853333 34.884267z" fill="#97FF60" p-id="51079"></path><path d="M717.7216 588.322133l-38.331733-0.853333 6.826666-4.232533 39.185067 1.706666-7.645867 3.413334z" fill="#004CFF" p-id="51080"></path><path d="M372.701867 351.061333l-45.1584 8.533334 2.56-33.1776 44.305066-6.826667-1.706666 31.470933z" fill="#D1FF26" p-id="51081"></path><path d="M747.588267 556.8512l-43.451734-5.9392 5.12-16.9984 44.305067 7.645867-5.973333 15.291733z" fill="#0090FF" p-id="51082"></path><path d="M721.2032 470.971733l-54.545067-11.912533 1.706667-25.4976 55.3984 13.585067-2.56 23.825066z" fill="#36FFC1" p-id="51083"></path><path d="M669.218133 408.029867l-60.484266-12.731734v-27.2384l60.484266 14.472534v25.4976z" fill="#8DFF6A" p-id="51084"></path><path d="M485.137067 321.297067l-57.924267-3.413334 2.56-28.0576 57.070933 5.12-1.706666 26.350934z" fill="#FFEA00" p-id="51085"></path><path d="M463.872 632.558933l-5.12 17.851734-13.6192 14.4384 7.68-18.705067 11.0592-13.585067z" fill="#0000FF" p-id="51086"></path><path d="M710.109867 588.322133H673.450667h5.9392l38.331733 0.853334-7.645867-0.853334z" fill="#0050FF" p-id="51087"></path><path d="M445.952 664.849067l-1.706667 19.5584-17.066666 9.352533 4.266666-19.5584 14.506667-9.352533z" fill="#0000C4" p-id="51088"></path><path d="M753.5616 541.559467l-44.305067-7.645867 4.266667-19.5584 45.1584 9.352533-5.12 17.851734z" fill="#00B0FF" p-id="51089"></path><path d="M546.474667 329.796267l-61.3376-8.4992 0.853333-26.350934 60.484267 10.205867v24.644267z" fill="#FBF100" p-id="51090"></path><path d="M616.413867 554.325333l-34.952534 3.413334 1.706667 15.291733 36.625067-4.266667-3.413334-14.4384z" fill="#0080FF" p-id="51091"></path><path d="M427.246933 317.917867l-51.985066 1.706666 3.413333-29.7984h51.131733l-2.56 28.091734z" fill="#FFE200" p-id="51092"></path><path d="M292.625067 445.44l-27.272534 19.592533-2.56-37.444266 27.272534-18.705067 2.56 36.590933z" fill="#53FFA4" p-id="51093"></path><path d="M278.971733 538.999467l-16.213333 23.825066-9.352533-36.590933 17.032533-23.790933 8.533333 36.5568z" fill="#00B0FF" p-id="51094"></path><path d="M482.645333 598.528l-8.533333 15.291733-9.386667 18.7392 11.093334-16.1792 6.826666-17.851733z" fill="#002CFF" p-id="51095"></path><path d="M656.452267 567.057067l-36.6592 1.706666 3.413333 11.0592 37.4784-2.56-4.266667-10.205866z" fill="#0070FF" p-id="51096"></path><path d="M343.722667 696.32l-1.706667 22.1184-20.411733-17.851733 2.56-22.1184 19.592533 17.851733z" fill="#00009F" p-id="51097"></path><path d="M324.164267 678.468267l-2.56 22.1184-19.592534-22.971734 3.413334-22.971733 18.7392 23.825067z" fill="#0000C8" p-id="51098"></path><path d="M549.034667 544.9728l-26.385067 7.645867-1.706667 20.411733 28.091734-8.533333v-19.524267z" fill="#008CFF" p-id="51099"></path><path d="M702.464 584.055467H666.624l5.973333 3.413333h36.625067l-6.826667-3.413333z" fill="#005CFF" p-id="51100"></path><path d="M522.6496 552.618667l-20.48 10.205866-4.232533 22.1184 22.152533-11.0592 2.56-21.265066z" fill="#007CFF" p-id="51101"></path><path d="M759.466667 523.707733l-45.124267-9.352533 4.232533-21.265067 46.011734 11.912534-5.12 18.705066z" fill="#00D8FF" p-id="51102"></path><path d="M365.021867 709.085867l-0.853334 22.1184-21.2992-12.765867 1.706667-22.1184 20.445867 12.765867z" fill="#000089" p-id="51103"></path><path d="M426.3936 693.76v20.411733l-20.48 4.266667 1.706667-21.265067 18.773333-3.413333z" fill="#00009B" p-id="51104"></path><path d="M722.8416 447.146667l-55.364267-13.585067 0.853334-25.531733 55.364266 15.325866-0.853333 23.790934z" fill="#63FF94" p-id="51105"></path><path d="M305.390933 654.677333l-3.413333 22.9376-17.066667-27.204266 4.266667-22.971734 16.213333 27.204267z" fill="#0000FA" p-id="51106"></path><path d="M579.720533 539.8528l-31.5392 5.12v19.524267l32.426667-5.9392-0.887467-18.705067z" fill="#009CFF" p-id="51107"></path><path d="M608.733867 342.562133l-62.190934-12.765866v-25.4976l61.3376 14.4384 0.853334 23.825066z" fill="#F1FC06" p-id="51108"></path><path d="M669.218133 383.3856l-60.484266-14.472533v-25.4976l59.630933 16.145066 0.853333 23.825067z" fill="#BEFF39" p-id="51109"></path><path d="M502.203733 562.824533l-13.653333 12.731734-5.9392 22.971733 15.325867-13.585067 4.266666-22.1184z" fill="#0070FF" p-id="51110"></path><path d="M385.467733 716.731733v21.265067l-22.1184-6.826667 0.8192-22.084266 21.2992 7.645866z" fill="#000080" p-id="51111"></path><path d="M695.637333 577.262933h-34.133333l6.007467 6.826667h35.771733l-7.68-6.826667z" fill="#006CFF" p-id="51112"></path><path d="M327.5776 359.560533l-36.6592 13.6192 3.413333-34.030933 35.805867-12.731733-2.56 33.143466z" fill="#D4FF23" p-id="51113"></path><path d="M763.733333 505.002667l-46.011733-11.946667 3.413333-22.9376 46.865067 13.6192-4.266667 21.265067z" fill="#19FFDE" p-id="51114"></path><path d="M375.227733 319.5904l-44.305066 6.826667 4.266666-30.6176 43.451734-5.973334-3.413334 29.764267z" fill="#FFDB00" p-id="51115"></path><path d="M289.211733 627.438933l-4.266666 22.971734-15.36-30.6176 4.266666-22.971734 15.36 30.6176z" fill="#0024FF" p-id="51116"></path><path d="M651.332267 553.472l-34.9184 0.8192 3.413333 14.472533 36.625067-1.706666-5.12-13.585067z" fill="#0094FF" p-id="51117"></path><path d="M613.819733 536.439467l-34.0992 2.56 0.853334 18.705066 34.952533-3.413333-1.706667-17.851733z" fill="#00ACFF" p-id="51118"></path><path d="M486.024533 294.912l-57.105066-5.085867 3.413333-24.644266 55.3984 5.9392-1.706667 23.825066z" fill="#FFB200" p-id="51119"></path><path d="M271.36 502.442667l-17.066667 23.790933-5.973333-37.410133 17.92-22.9376 5.12 36.522666z" fill="#13FCE4" p-id="51120"></path><path d="M459.605333 650.410667v18.705066l-15.36 15.291734 1.706667-19.5584 13.653333-14.4384z" fill="#0000F1" p-id="51121"></path><path d="M546.474667 305.152l-60.484267-10.24 1.706667-23.790933 58.811733 11.0592v22.971733z" fill="#FFBD00" p-id="51122"></path><path d="M474.112 613.819733l-2.594133 17.032534-11.946667 19.5584 5.12-17.851734 9.386667-18.7392z" fill="#0020FF" p-id="51123"></path><path d="M724.5824 423.355733l-55.3984-15.325866v-24.644267l55.3984 17.851733v22.1184z" fill="#8DFF6A" p-id="51124"></path><path d="M756.906667 588.322133l-31.505067-3.413333 7.68-6.792533 32.3584 4.266666-8.533333 5.9392z" fill="#006CFF" p-id="51125"></path><path d="M765.44 583.236267l-32.3584-4.266667 7.645867-9.352533 33.245866 5.9392-8.533333 7.68z" fill="#0078FF" p-id="51126"></path><path d="M290.9184 408.917333l-27.2384 18.670934 0.853333-36.522667 27.2384-17.885867-0.853333 35.703467z" fill="#97FF60" p-id="51127"></path><path d="M747.588267 590.848l-30.651734-2.525867 7.68-3.413333 31.505067 3.413333-8.533333 2.56z" fill="#0068FF" p-id="51128"></path><path d="M773.973333 574.702933l-33.245866-5.9392 6.826666-12.765866 34.065067 7.68-7.645867 11.025066z" fill="#008CFF" p-id="51129"></path><path d="M429.7728 289.826133h-51.0976l5.12-26.350933 49.390933 0.853333-3.413333 25.4976z" fill="#FFA700" p-id="51130"></path><path d="M549.0688 521.147733l-24.712533 6.826667-1.706667 24.644267 26.4192-7.68v-23.790934z" fill="#00C4FF" p-id="51131"></path><path d="M406.766933 718.4384l0.853334 21.265067-22.152534-0.853334v-21.265066l21.2992 0.853333z" fill="#000084" p-id="51132"></path><path d="M444.245333 684.407467l1.706667 19.5584-18.773333 10.24v-20.445867l17.066666-9.352533z" fill="#0000BB" p-id="51133"></path><path d="M689.629867 567.057067h-33.245867l5.12 10.24h34.0992l-5.973333-10.24z" fill="#0084FF" p-id="51134"></path><path d="M488.618667 575.556267l-6.826667 14.472533-8.533333 23.790933 8.533333-15.291733 6.826667-22.971733z" fill="#0068FF" p-id="51135"></path><path d="M768 484.590933l-46.865067-13.6192 1.706667-22.971733 46.865067 15.325867-1.706667 21.265066z" fill="#3CFFBA" p-id="51136"></path><path d="M578.901333 517.7344l-29.832533 4.266667v22.971733l31.5392-5.12-1.706667-22.1184z" fill="#00D0FF" p-id="51137"></path><path d="M274.705067 596.821333l-4.266667 22.971734-12.765867-34.030934 5.12-22.9376 11.946667 33.9968z" fill="#0064FF" p-id="51138"></path><path d="M739.089067 590.0288l-29.832534-1.706667h7.68l30.651734 2.56-8.533334-0.853333z" fill="#0068FF" p-id="51139"></path><path d="M524.356267 527.940267l-18.773334 9.352533-3.413333 25.531733 20.48-10.24 1.706667-24.644266z" fill="#00B8FF" p-id="51140"></path><path d="M781.653333 563.677867l-34.065066-7.68 5.973333-15.291734 34.9184 9.352534-6.826667 13.6192z" fill="#00A4FF" p-id="51141"></path><path d="M668.330667 358.741333l-59.5968-16.1792-0.853334-23.825066 59.630934 17.885866 0.853333 22.084267z" fill="#EBFF0C" p-id="51142"></path><path d="M607.880533 318.737067l-61.3376-14.4384v-22.1184l59.630934 15.325866 1.706666 21.230934z" fill="#FFC800" p-id="51143"></path><path d="M647.850667 536.439467h-34.065067l2.56 17.885866 34.952533-0.853333-3.413333-17.032533z" fill="#00BCFF" p-id="51144"></path><path d="M731.374933 585.762133l-28.9792-1.706666 7.68 3.413333 29.7984 1.706667-8.533333-3.413334z" fill="#0074FF" p-id="51145"></path><path d="M788.48 550.058667l-34.952533-9.352534 5.973333-16.9984 34.9184 11.025067-5.9392 15.325867z" fill="#00C4FF" p-id="51146"></path><path d="M612.113067 516.027733l-33.245867 1.706667 0.853333 22.1184 34.065067-2.56-1.706667-21.265067z" fill="#00DCFE" p-id="51147"></path><path d="M505.6512 537.2928l-11.946667 11.946667-5.12 26.3168 13.653334-12.731734 3.413333-25.531733z" fill="#00B0FF" p-id="51148"></path><path d="M724.548267 400.384l-55.364267-17.851733-0.853333-23.825067 54.545066 19.5584 1.706667 22.1184z" fill="#B7FF40" p-id="51149"></path><path d="M683.690667 554.325333l-32.3584-0.853333 4.266666 13.585067h33.211734l-5.12-12.731734z" fill="#00A4FF" p-id="51150"></path><path d="M769.706667 462.472533l-46.830934-15.325866 0.853334-23.790934 46.865066 17.851734-0.853333 21.265066z" fill="#63FF94" p-id="51151"></path><path d="M427.246933 714.171733l1.706667 20.411734-21.2992 5.12-0.853333-21.265067 20.445866-4.266667z" fill="#000096" p-id="51152"></path><path d="M265.3184 465.885867l-17.885867 22.9376-2.56-37.410134 17.885867-22.971733 2.56 37.444267z" fill="#53FFA4" p-id="51153"></path><path d="M330.103467 326.417067l-35.771734 12.731733 5.973334-31.4368L335.189333 296.618667l-5.12 29.764266z" fill="#FFD700" p-id="51154"></path><path d="M487.7312 271.121067l-55.3984-5.9392 4.266667-21.265067 52.804266 6.826667-1.706666 20.3776z" fill="#FF7A00" p-id="51155"></path><path d="M378.641067 290.679467l-43.451734 5.973333 6.826667-27.2384 41.745067-5.085867-5.12 26.350934z" fill="#FF9C00" p-id="51156"></path><path d="M546.5088 282.180267l-58.7776-11.0592 2.56-20.411734 57.070933 11.946667-0.853333 19.524267z" fill="#FF8900" p-id="51157"></path><path d="M723.729067 578.9696l-28.125867-1.706667 6.826667 6.826667 28.945066 1.706667-7.645866-6.826667z" fill="#0084FF" p-id="51158"></path><path d="M342.016 718.4384l2.594133 20.411733-20.48-17.851733-2.525866-20.411733 20.445866 17.851733z" fill="#00009F" p-id="51159"></path><path d="M794.453333 534.7328l-34.9184-11.025067 4.266667-19.5584 35.771733 12.731734-5.12 17.851733z" fill="#00E4F8" p-id="51160"></path><path d="M321.604267 700.586667l2.56 20.411733-19.592534-22.971733-2.56-20.411734 19.592534 22.971734z" fill="#0000C8" p-id="51161"></path><path d="M471.552 630.852267l2.56 17.851733-13.653333 20.411733v-18.705066l11.093333-19.5584z" fill="#0018FF" p-id="51162"></path><path d="M262.826667 562.824533l-5.12 22.9376-9.386667-36.522666 5.12-23.005867 9.386667 36.590933z" fill="#00ACFF" p-id="51163"></path><path d="M363.3152 731.204267l2.525867 20.411733-21.2992-12.765867-2.525867-20.411733 21.2992 12.765867z" fill="#000089" p-id="51164"></path><path d="M481.757867 590.0288l-0.853334 16.145067-10.24 24.6784 2.56-16.9984 8.533334-23.825067z" fill="#005CFF" p-id="51165"></path><path d="M549.034667 495.616l-23.8592 5.12-0.853334 27.204267 24.712534-6.826667v-25.463467z" fill="#16FFE1" p-id="51166"></path><path d="M459.605333 669.115733l4.266667 18.705067-17.885867 16.145067-1.706666-19.5584 15.325866-15.291734z" fill="#0000ED" p-id="51167"></path><path d="M666.624 336.622933l-59.630933-17.885866-0.853334-21.230934 57.924267 19.5584 2.56 19.5584z" fill="#FFD700" p-id="51168"></path><path d="M578.901333 493.090133l-28.9792 2.56v26.350934l29.832534-4.266667-0.853334-24.644267z" fill="#1CFFDB" p-id="51169"></path><path d="M290.9184 373.179733l-27.2384 17.851734 3.413333-34.850134 26.385067-17.032533-2.56 34.030933z" fill="#D7FF1F" p-id="51170"></path><path d="M302.830933 677.614933l2.56 20.411734-17.066666-27.204267-2.525867-20.411733 17.066667 27.204266z" fill="#0000FA" p-id="51171"></path><path d="M645.358933 517.7344l-33.211733-0.853333 1.706667 20.411733h34.065066l-2.56-19.5584z" fill="#02E8F4" p-id="51172"></path><path d="M432.3328 265.181867l-49.390933-0.853334 5.973333-22.1184 46.830933 1.706667-3.413333 21.265067z" fill="#FF6F00" p-id="51173"></path><path d="M606.958933 297.506133l-59.630933-15.325866V263.509333l57.9584 16.9984 1.706667 17.032534z" fill="#FF9800" p-id="51174"></path><path d="M525.175467 500.736l-17.885867 7.645867-2.56 28.910933 18.773333-9.352533 1.706667-27.204267z" fill="#13FCE4" p-id="51175"></path><path d="M716.936533 569.617067l-27.272533-2.56 5.973333 10.24 28.091734 1.672533-6.826667-9.352533z" fill="#009CFF" p-id="51176"></path><path d="M493.6704 549.205333l-5.12 13.6192-5.9392 28.0576 6.826667-14.472533 4.232533-27.204267z" fill="#00A8FF" p-id="51177"></path><path d="M679.389867 538.999467l-31.5392-1.706667 3.413333 16.9984 32.392533 0.887467-4.266666-16.1792z" fill="#00CCFF" p-id="51178"></path><path d="M799.505067 517.7344l-35.771734-12.731733 3.413334-20.411734 35.771733 14.4384-3.413333 18.705067z" fill="#1FFFD7" p-id="51179"></path><path d="M385.467733 737.962667l2.56 20.445866-22.152533-6.826666-2.525867-20.3776 22.152534 6.792533z" fill="#000080" p-id="51180"></path><path d="M771.447467 441.207467l-46.830934-17.851734v-22.971733l46.830934 19.5584v21.265067z" fill="#8DFF6A" p-id="51181"></path><path d="M722.909867 378.2656l-54.545067-19.5584-1.706667-22.084267 54.545067 20.411734 1.706667 21.230933z" fill="#E1FF16" p-id="51182"></path><path d="M610.372267 493.090133h-32.3584l0.853333 24.644267 33.211733-1.706667-1.706666-22.9376z" fill="#23FFD4" p-id="51183"></path><path d="M284.945067 650.410667l2.56 20.411733-15.36-30.6176-2.56-20.411733 15.36 30.6176z" fill="#0024FF" p-id="51184"></path><path d="M778.24 593.442133l-21.2992-5.12 8.533333-5.12 22.1184 5.973334-9.352533 4.266666z" fill="#0084FF" p-id="51185"></path><path d="M445.952 703.146667l2.56 20.3776-19.626667 11.0592-1.706666-20.411734 18.773333-11.025066z" fill="#0000BB" p-id="51186"></path><path d="M768.853333 595.114667l-20.48-4.232534 8.533334-2.56 21.2992 5.12-9.352534 1.706667z" fill="#0080FF" p-id="51187"></path><path d="M786.773333 589.175467l-22.186666-5.9392 8.533333-8.533334 22.152533 6.826667-8.533333 7.645867z" fill="#0090FF" p-id="51188"></path><path d="M759.5008 593.442133l-20.445867-3.413333 8.533334 0.853333 20.445866 4.232534-8.533333-1.706667z" fill="#0084FF" p-id="51189"></path><path d="M796.16 582.382933l-22.186667-6.826666 7.68-11.025067 23.005867 8.4992-8.533333 9.352533z" fill="#00A0FF" p-id="51190"></path><path d="M507.2896 508.381867l-11.093333 10.24-3.413334 29.730133 11.946667-11.912533 2.56-28.0576z" fill="#0CF4EB" p-id="51191"></path><path d="M253.405867 526.2336l-5.12 22.971733-5.9392-37.410133 5.9392-22.971733 5.12 37.410133z" fill="#13FCE4" p-id="51192"></path><path d="M710.929067 556.8512l-26.385067-2.525867 5.12 12.731734 27.2384 2.56-5.973333-12.765867z" fill="#00B8FF" p-id="51193"></path><path d="M547.362133 263.4752l-57.105066-11.912533 2.56-16.145067 54.545066 12.765867v15.291733z" fill="#FF6000" p-id="51194"></path><path d="M803.771733 499.029333l-35.771733-14.4384 2.56-21.265066 36.625067 16.9984-3.413334 18.705066z" fill="#43FFB4" p-id="51195"></path><path d="M263.611733 428.4416l-17.885866 22.971733 0.853333-37.410133 17.885867-22.1184-0.853334 36.5568z" fill="#97FF60" p-id="51196"></path><path d="M407.620267 738.850133l2.56 20.411734-22.186667-0.853334-2.525867-20.411733 22.152534 0.853333z" fill="#000084" p-id="51197"></path><path d="M490.2912 250.709333l-52.8384-6.792533 5.12-16.9984 50.2784 7.645867-2.56 16.145066z" fill="#FF4E00" p-id="51198"></path><path d="M664.917333 317.064533l-57.9584-19.5584-1.706666-17.885866 57.105066 20.411733 2.56 17.032533z" fill="#FFAB00" p-id="51199"></path><path d="M751.0016 589.175467l-19.592533-3.413334 8.533333 4.266667 20.411733 3.413333-9.352533-4.266666z" fill="#008CFF" p-id="51200"></path><path d="M643.652267 496.469333l-32.392534-2.525866 0.853334 22.9376 33.245866 0.853333-1.706666-21.265067z" fill="#2CFFCA" p-id="51201"></path><path d="M803.805867 572.177067l-23.005867-8.533334 6.826667-13.585066 23.005866 10.205866-6.826666 11.912534z" fill="#00B8FF" p-id="51202"></path><path d="M335.189333 295.799467l-34.9184 11.0592 8.533334-28.0576 33.211733-10.24-6.826667 27.2384z" fill="#FF9400" p-id="51203"></path><path d="M383.761067 264.328533l-41.745067 5.12 8.533333-22.971733 40.004267-4.266667-6.826667 22.1184z" fill="#FF6400" p-id="51204"></path><path d="M676.010667 520.2944l-30.685867-3.413333 2.56 19.5584 31.5392 1.706666-3.413333-17.851733z" fill="#0CF4EB" p-id="51205"></path><path d="M578.048 466.705067l-29.013333 0.853333v28.0576l29.013333-2.525867v-26.385066z" fill="#50FFA7" p-id="51206"></path><path d="M549.888 467.5584l-23.825067 3.413333-0.853333 29.764267 23.8592-5.12 0.853333-28.0576z" fill="#4DFFAA" p-id="51207"></path><path d="M771.413333 419.9424l-46.830933-19.5584-0.853333-22.1184 46.865066 21.265067 0.853334 20.411733z" fill="#B4FF43" p-id="51208"></path><path d="M480.904533 606.208l4.232534 16.9984-11.946667 25.4976-2.525867-17.851733 10.24-24.6784z" fill="#0058FF" p-id="51209"></path><path d="M605.2864 279.620267l-57.9584-16.9984v-15.291734l56.251733 16.9984 1.706667 15.291734z" fill="#FF6F00" p-id="51210"></path><path d="M269.585067 619.793067l2.56 20.411733-12.8-34.030933-2.56-20.411734 12.8 34.030934z" fill="#0068FF" p-id="51211"></path><path d="M721.169067 357.888l-54.545067-20.411733-1.706667-19.5584 53.691734 22.084266 2.56 17.885867z" fill="#FFE200" p-id="51212"></path><path d="M473.224533 648.704l5.12 17.851733-15.36 21.265067-4.232533-18.705067 14.472533-20.411733z" fill="#0014FF" p-id="51213"></path><path d="M487.765333 562.824533l0.853334 15.291734-7.68 28.910933 0.853333-16.145067 5.973333-28.0576z" fill="#00A0FF" p-id="51214"></path><path d="M743.3216 582.382933l-19.592533-3.413333 7.68 6.826667 19.592533 3.3792-7.68-6.826667z" fill="#009CFF" p-id="51215"></path><path d="M610.4064 469.265067l-31.5392-1.706667v26.385067h32.3584l-0.8192-24.6784z" fill="#53FFA4" p-id="51216"></path><path d="M811.485867 560.264533l-23.005867-10.205866 5.9392-15.291734 23.005867 11.8784-5.9392 13.6192z" fill="#00D4FF" p-id="51217"></path><path d="M436.565333 243.9168l-46.830933-1.706667 7.68-16.9984 44.305067 2.56-5.12 16.145067z" fill="#FF3F00" p-id="51218"></path><path d="M294.331733 339.1488l-26.385066 17.032533 6.826666-32.324266 25.531734-16.145067-5.973334 31.4368z" fill="#FFD300" p-id="51219"></path><path d="M525.994667 470.971733l-16.9984 5.9392-0.853334 31.470934 17.885867-7.645867v-29.764267z" fill="#49FFAD" p-id="51220"></path><path d="M705.809067 542.378667l-26.4192-4.232534 4.266666 15.325867 26.4192 2.525867-4.266666-13.585067z" fill="#00DCFE" p-id="51221"></path><path d="M806.365867 479.470933l-36.625067-16.9984 0.853333-21.265066 36.625067 18.705066-0.853333 19.5584z" fill="#66FF90" p-id="51222"></path><path d="M496.264533 518.587733l-4.266666 12.765867-4.266667 31.470933 5.12-13.6192 3.413333-30.6176z" fill="#09F0EE" p-id="51223"></path><path d="M428.885333 734.583467l2.56 20.411733-21.2992 5.12-2.56-20.411733 21.2992-5.12z" fill="#00009B" p-id="51224"></path><path d="M463.872 687.8208l3.3792 19.5584-17.885867 16.145067-2.56-20.411734 17.066667-15.291733z" fill="#0000E8" p-id="51225"></path><path d="M735.675733 573.0304l-18.773333-3.413333 6.826667 9.352533 19.626666 3.413333-7.68-9.352533z" fill="#00B0FF" p-id="51226"></path><path d="M818.2784 546.645333l-23.005867-11.912533 5.12-16.9984 23.825067 13.6192-5.9392 15.291733z" fill="#0CF4EB" p-id="51227"></path><path d="M674.338133 500.736l-30.685866-5.12 1.706666 21.265067 30.685867 3.413333-1.706667-19.5584z" fill="#33FFC4" p-id="51228"></path><path d="M642.7648 473.531733l-32.3584-4.266666 0.853333 24.6784 32.3584 2.525866-0.853333-22.9376z" fill="#56FFA0" p-id="51229"></path><path d="M547.328 248.149333l-54.545067-12.731733 2.56-11.0592 51.985067 13.6192v10.205867z" fill="#FF3B00" p-id="51230"></path><path d="M344.576 738.850133l4.266667 17.851734-20.48-17.851734-4.232534-17.851733 20.48 17.851733z" fill="#0000A8" p-id="51231"></path><path d="M769.706667 399.530667l-46.865067-21.265067-1.706667-20.411733 46.011734 22.1184 2.56 19.5584z" fill="#D7FF1F" p-id="51232"></path><path d="M662.391467 300.032l-57.070934-20.411733-1.706666-14.4384 55.364266 21.265066 3.413334 13.585067z" fill="#FF8600" p-id="51233"></path><path d="M324.130133 720.9984l4.266667 17.851733-18.7392-22.971733-4.266667-18.705067 18.773334 23.825067z" fill="#0000CD" p-id="51234"></path><path d="M247.466667 488.823467l-5.973334 22.971733L238.933333 473.531733l5.973334-22.971733 2.56 38.263467z" fill="#53FFA4" p-id="51235"></path><path d="M508.2112 476.910933l-10.24 8.533334-1.706667 33.143466 11.093334-10.205866 0.8192-31.470934z" fill="#46FFB1" p-id="51236"></path><path d="M492.817067 235.4176l-50.2784-7.645867 5.973333-11.946666 47.684267 8.533333-3.413334 11.0592z" fill="#FF2900" p-id="51237"></path><path d="M257.706667 585.762133l2.56 20.411734-9.386667-35.703467-2.56-20.411733 9.386667 35.703466z" fill="#00B0FF" p-id="51238"></path><path d="M578.901333 439.5008l-28.9792-1.706667v29.764267l28.9792-0.8192v-27.2384z" fill="#80FF77" p-id="51239"></path><path d="M365.909333 751.616l3.413334 17.851733-21.333334-12.765866-4.266666-17.851734 22.186666 12.731734z" fill="#000092" p-id="51240"></path><path d="M717.755733 339.1488l-53.6576-22.084267-2.56-17.032533 51.985067 22.971733 4.232533 16.145067z" fill="#FFB900" p-id="51241"></path><path d="M549.922133 437.794133l-23.8592 1.706667v31.470933l23.8592-3.413333v-29.764267z" fill="#80FF77" p-id="51242"></path><path d="M702.429867 525.4144l-25.565867-5.12 3.413333 17.851733 26.4192 4.266667-4.266666-16.9984z" fill="#16FFE1" p-id="51243"></path><path d="M603.579733 265.181867l-56.251733-16.9984v-11.0592l53.691733 17.851733 2.56 10.205867z" fill="#FF4E00" p-id="51244"></path><path d="M808.106667 459.912533l-36.625067-18.705066v-21.265067l36.625067 20.411733v19.5584z" fill="#8AFF6D" p-id="51245"></path><path d="M263.611733 391.8848l-17.885866 22.1184 4.266666-35.7376 17.885867-21.230933-4.266667 34.850133z" fill="#D7FF1F" p-id="51246"></path><path d="M305.3568 698.026667l4.266667 18.705066-17.032534-27.204266-4.266666-18.705067 17.066666 27.204267z" fill="#0000FF" p-id="51247"></path><path d="M729.668267 561.9712l-18.7392-4.266667 5.973333 12.765867 18.7392 3.413333-5.973333-11.946666z" fill="#00C8FF" p-id="51248"></path><path d="M610.372267 442.914133l-32.3584-4.266666v28.0576l31.505066 1.706666 0.853334-25.4976z" fill="#80FF77" p-id="51249"></path><path d="M823.3984 531.3536l-23.893333-13.6192 4.3008-18.705067 23.825066 15.325867-4.232533 16.9984z" fill="#29FFCE" p-id="51250"></path><path d="M389.700267 242.210133l-40.0384 4.266667 10.24-17.851733 37.4784-3.413334-7.68 16.9984z" fill="#FF3000" p-id="51251"></path><path d="M342.016 269.4144l-33.211733 10.24 10.24-23.825067 31.505066-9.352533-8.533333 22.9376z" fill="#FF5900" p-id="51252"></path><path d="M778.24 600.234667l-9.386667-5.12 9.386667-1.706667 9.352533 5.973333-9.352533 0.853334z" fill="#0098FF" p-id="51253"></path><path d="M787.626667 599.381333l-9.352534-5.9392 9.352534-4.266666 10.24 6.826666-10.24 3.3792z" fill="#009CFF" p-id="51254"></path><path d="M388.027733 758.408533l3.413334 17.851734-21.2992-6.826667-3.413334-17.8176 21.2992 6.792533z" fill="#000084" p-id="51255"></path><path d="M768.887467 598.528l-9.352534-5.12 9.352534 1.706667 9.386666 5.12-9.352533-1.706667z" fill="#0098FF" p-id="51256"></path><path d="M526.0288 439.5008l-17.032533 4.266667v33.143466l17.066666-5.9392v-31.470933z" fill="#80FF77" p-id="51257"></path><path d="M797.013333 595.968l-10.24-6.792533 8.533334-6.826667 10.24 7.68-8.533334 5.9392z" fill="#00A4FF" p-id="51258"></path><path d="M488.584533 578.116267l5.12 16.145066-9.386666 29.764267-4.232534-16.9984 8.533334-28.910933z" fill="#009CFF" p-id="51259"></path><path d="M448.512 723.524267l2.56 20.411733-19.592533 10.24-2.56-20.445867 19.592533-10.205866z" fill="#0000BB" p-id="51260"></path><path d="M485.137067 623.2064l6.826666 16.9984-12.8 26.350933-5.12-17.851733 11.093334-25.4976z" fill="#0054FF" p-id="51261"></path><path d="M441.685333 226.9184l-44.270933-2.56 8.533333-11.912533 41.710934 3.413333-5.973334 11.0592z" fill="#FF1600" p-id="51262"></path><path d="M673.450667 480.324267l-30.651734-6.826667 0.853334 22.971733 30.685866 5.12-0.853333-21.265066z" fill="#5AFF9D" p-id="51263"></path><path d="M760.354133 594.261333l-9.352533-4.232533 9.352533 4.232533 8.533334 4.266667-8.533334-4.266667z" fill="#00A0FF" p-id="51264"></path><path d="M287.470933 670.8224l4.266667 18.705067-14.472533-30.6176-4.266667-19.5584 14.472533 31.470933z" fill="#0028FF" p-id="51265"></path><path d="M492.885333 531.3536l1.706667 14.4384-5.12 32.324267-0.853333-15.291734 4.232533-31.470933z" fill="#06ECF1" p-id="51266"></path><path d="M767.146667 379.972267l-46.011734-22.084267-3.413333-18.7392 46.011733 23.825067 3.413334 16.9984z" fill="#FBF100" p-id="51267"></path><path d="M642.7648 449.706667l-32.3584-6.826667v25.531733l32.3584 4.266667v-22.971733z" fill="#80FF77" p-id="51268"></path><path d="M805.4784 590.0288l-10.24-7.645867 8.533333-9.352533 10.24 9.352533-8.533333 7.645867z" fill="#00B4FF" p-id="51269"></path><path d="M724.548267 547.498667l-18.773334-5.12 5.12 14.472533 18.773334 4.266667-5.12-13.6192z" fill="#02E8F4" p-id="51270"></path><path d="M658.944 286.446933l-55.364267-21.265066-1.706666-10.24 52.804266 21.2992 4.266667 10.205866z" fill="#FF6400" p-id="51271"></path><path d="M300.305067 307.712l-25.6 16.145067 9.386666-28.910934 24.712534-15.325866-8.533334 28.091733z" fill="#FF9100" p-id="51272"></path><path d="M827.665067 514.3552l-23.893334-15.325867 2.594134-19.5584 23.8592 16.9984-2.56 17.885867z" fill="#46FFB1" p-id="51273"></path><path d="M699.904 507.562667l-25.6-6.826667 1.706667 19.5584 25.6 5.12-1.706667-17.885867z" fill="#39FFBE" p-id="51274"></path><path d="M547.362133 237.9776l-51.950933-13.6192 3.413333-5.9392 49.390934 13.585067-0.853334 5.973333z" fill="#FF2200" p-id="51275"></path><path d="M808.072533 440.354133l-36.625066-20.411733-0.853334-20.411733 36.625067 22.1184 0.853333 18.705066z" fill="#ADFF49" p-id="51276"></path><path d="M497.9712 486.263467l-3.413333 11.0592-2.56 34.030933 4.266666-12.765867 1.706667-32.324266z" fill="#43FFB4" p-id="51277"></path><path d="M751.8208 587.4688l-9.352533-5.12 7.68 6.826667 9.352533 4.266666-7.68-5.973333z" fill="#00B0FF" p-id="51278"></path><path d="M714.410667 323.003733l-51.985067-22.971733-3.413333-13.585067 51.0976 23.790934 4.266666 12.765866z" fill="#FF9800" p-id="51279"></path><path d="M479.197867 666.555733l3.413333 19.5584-16.213333 21.265067-3.413334-19.5584 16.213334-21.265067z" fill="#0014FF" p-id="51280"></path><path d="M578.901333 410.624l-29.832533-3.413333v30.583466l28.9792 1.706667 0.853333-28.910933z" fill="#B4FF43" p-id="51281"></path><path d="M814.011733 581.5296l-10.24-9.352533 7.714134-11.946667 10.205866 10.24-7.68 11.0592z" fill="#00C8FF" p-id="51282"></path><path d="M410.180267 759.261867l3.413333 17.851733-21.333333-0.853333-3.413334-17.851734 21.333334 0.853334z" fill="#00008D" p-id="51283"></path><path d="M601.873067 254.976l-53.6576-17.851733v-5.973334l51.0976 17.885867 2.56 5.9392z" fill="#FF3800" p-id="51284"></path><path d="M248.285867 549.205333l2.56 20.411734-5.973334-37.410134-2.525866-20.411733 5.9392 37.410133z" fill="#13FCE4" p-id="51285"></path><path d="M611.2256 417.3824l-32.3584-5.9392-0.853333 28.0576 32.3584 4.266667 0.853333-26.385067z" fill="#ADFF49" p-id="51286"></path><path d="M549.888 408.029867h-24.6784l0.853333 32.324266 23.8592-1.706666v-30.6176z" fill="#B7FF40" p-id="51287"></path><path d="M495.377067 224.3584l-47.7184-8.533333 5.973333-5.9392 45.1584 8.533333-3.413333 5.9392z" fill="#F60B00" p-id="51288"></path><path d="M508.142933 443.733333l-10.24 7.68v34.850134l10.24-8.4992v-33.9968z" fill="#80FF77" p-id="51289"></path><path d="M244.906667 450.56L238.933333 473.531733l0.853334-37.410133 5.973333-22.1184-0.853333 36.5568z" fill="#97FF60" p-id="51290"></path><path d="M745.028267 578.116267l-9.352534-5.12 7.645867 9.386666 9.386667 5.12-7.68-9.386666z" fill="#00C0FF" p-id="51291"></path><path d="M273.066667 640.2048l4.232533 19.5584-11.946667-33.1776-5.085866-19.5584 12.765866 33.1776z" fill="#0068FF" p-id="51292"></path><path d="M720.2816 532.206933l-17.885867-6.826666 3.413334 17.032533 18.773333 5.12-4.3008-15.36z" fill="#1FFFD7" p-id="51293"></path><path d="M821.691733 571.323733l-10.24-10.24 6.826667-13.585066 10.24 11.912533-6.826667 11.912533z" fill="#00E0FB" p-id="51294"></path><path d="M673.450667 458.205867l-30.651734-8.4992v23.825066l30.685867 6.826667v-22.152533z" fill="#80FF77" p-id="51295"></path><path d="M830.2592 496.469333l-23.8592-16.9984 1.706667-19.5584 23.8592 18.705067-1.706667 17.851733z" fill="#66FF90" p-id="51296"></path><path d="M763.733333 362.973867l-46.011733-23.825067-4.266667-16.145067 45.1584 24.6784 5.12 15.291734z" fill="#FFCC00" p-id="51297"></path><path d="M644.471467 425.915733l-33.211734-8.533333-0.853333 26.385067 32.3584 6.826666 1.706667-24.6784z" fill="#AAFF4D" p-id="51298"></path><path d="M525.2096 407.210667l-17.885867 2.525866 0.853334 34.030934 17.066666-4.266667v-32.290133z" fill="#BAFF3C" p-id="51299"></path><path d="M699.050667 487.970133l-25.6-8.4992 0.853333 21.265067 25.6 6.826667-0.887467-19.592534z" fill="#5AFF9D" p-id="51300"></path><path d="M654.711467 276.241067l-52.804267-21.265067-2.56-5.973333 51.0976 21.265066 4.266667 5.973334z" fill="#FF4E00" p-id="51301"></path><path d="M267.8784 356.181333l-17.885867 21.230934 7.68-33.143467 17.066667-21.265067-6.826667 33.1776z" fill="#FFD000" p-id="51302"></path><path d="M806.4 420.795733l-36.6592-22.1184-2.525867-19.5584 35.771734 22.971734 3.413333 18.705066z" fill="#D1FF26" p-id="51303"></path><path d="M397.4144 224.3584l-37.4784 3.413333 11.0592-12.765866 34.0992-2.56-7.68 11.912533z" fill="#F10800" p-id="51304"></path><path d="M738.2016 567.057067l-8.533333-5.9392 5.973333 11.912533 9.352533 5.12-6.826666-11.093333z" fill="#00D8FF" p-id="51305"></path><path d="M466.432 707.3792l2.56 20.411733-17.885867 16.145067-2.56-20.411733 17.885867-16.145067z" fill="#0000ED" p-id="51306"></path><path d="M709.256533 310.272l-51.131733-23.825067-4.266667-10.24 49.425067 23.825067 5.973333 10.24z" fill="#FF7A00" p-id="51307"></path><path d="M447.6928 215.8592l-41.745067-3.413333 9.352534-6.826667 38.331733 3.413333-5.9392 6.826667z" fill="#DF0000" p-id="51308"></path><path d="M580.608 383.3856l-30.685867-5.12v29.764267l29.832534 3.413333 0.853333-28.0576z" fill="#E4FF13" p-id="51309"></path><path d="M548.215467 231.150933l-49.425067-13.585066 3.413333-0.853334 46.011734 13.585067v0.853333z" fill="#FA0F00" p-id="51310"></path><path d="M349.730133 246.442667l-31.5392 9.386666 12.8-18.705066 28.945067-8.533334-10.24 17.885867z" fill="#FF2500" p-id="51311"></path><path d="M828.484267 558.557867l-10.24-11.912534 5.12-15.291733 10.24 13.6192-5.12 13.585067z" fill="#16FFE1" p-id="51312"></path><path d="M430.660267 754.141867l3.413333 17.851733-20.48 4.266667-3.413333-17.851734 20.48-4.266666z" fill="#00009F" p-id="51313"></path><path d="M599.313067 249.0368l-51.0976-17.885867v-0.853333l48.5376 17.885867 2.56 0.853333z" fill="#FF2500" p-id="51314"></path><path d="M613.819733 391.031467l-33.245866-8.4992-0.853334 28.0576 32.392534 5.973333 1.706666-25.531733z" fill="#DBFF1C" p-id="51315"></path><path d="M549.888 377.412267l-25.565867-2.525867 0.853334 32.324267h24.712533v-29.7984z" fill="#EBFF0C" p-id="51316"></path><path d="M494.523733 544.9728l5.9392 15.291733-5.9392 33.1776-5.12-16.1792 5.12-32.290133z" fill="#02E8F4" p-id="51317"></path><path d="M717.755733 515.208533l-17.885866-7.68 2.56 17.885867 17.885866 6.792533-2.56-16.9984z" fill="#3CFFBA" p-id="51318"></path><path d="M494.523733 593.442133l7.645867 16.145067-10.24 30.6176-6.826667-16.9984 9.4208-29.764267z" fill="#0098FF" p-id="51319"></path><path d="M494.4896 497.322667l2.56 12.765866-2.56 34.850134-1.706667-14.4384 1.706667-33.1776z" fill="#43FFB4" p-id="51320"></path><path d="M498.824533 218.4192l-45.1584-8.533333 6.826667-0.8192 41.745067 8.4992-3.413334 0.853333z" fill="#DF0000" p-id="51321"></path><path d="M348.842667 756.701867l3.413333 15.291733-19.592533-16.9984-4.266667-15.291733 20.48 16.9984z" fill="#0000B2" p-id="51322"></path><path d="M831.931733 478.6176l-23.893333-18.705067v-19.5584l23.893333 20.411734v17.851733z" fill="#8AFF6D" p-id="51323"></path><path d="M328.3968 738.850133l4.266667 15.291734-18.7392-22.1184-4.266667-16.145067 18.773333 22.971733z" fill="#0000DA" p-id="51324"></path><path d="M675.157333 436.1216l-30.651733-10.24-1.706667 23.825067 30.685867 8.533333 1.706667-22.152533z" fill="#A7FF50" p-id="51325"></path><path d="M497.937067 451.413333l-3.413334 10.205867v35.703467l3.413334-11.0592v-34.850134z" fill="#80FF77" p-id="51326"></path><path d="M733.115733 554.325333l-8.533333-6.826666 5.12 13.6192 8.533333 5.9392-5.12-12.731734z" fill="#0CF4EB" p-id="51327"></path><path d="M775.68 606.208l2.525867-5.973333 9.386666-0.853334-2.56 6.826667h-9.352533z" fill="#00A8FF" p-id="51328"></path><path d="M758.6816 347.648l-45.1584-24.644267-5.12-12.765866 43.451733 25.531733 6.826667 11.8784z" fill="#FFAB00" p-id="51329"></path><path d="M260.232533 606.208l5.12 19.524267-9.386666-35.703467-5.12-20.411733 9.386666 36.5568z" fill="#00B0FF" p-id="51330"></path><path d="M647.0656 402.090667l-33.245867-11.0592-1.706666 25.531733 33.245866 8.4992 1.706667-22.971733z" fill="#D4FF23" p-id="51331"></path><path d="M766.327467 604.501333l2.56-5.973333 9.386666 1.706667-2.56 5.9392-9.386666-1.706667z" fill="#00ACFF" p-id="51332"></path><path d="M307.985067 279.620267l-24.712534 15.325866 11.946667-24.6784 22.971733-14.4384-10.24 23.790934z" fill="#FF5500" p-id="51333"></path><path d="M241.493333 511.7952l2.56 20.411733-2.56-37.410133L238.933333 473.531733l2.56 38.229334z" fill="#53FFA4" p-id="51334"></path><path d="M370.107733 769.467733l3.413334 15.291734-20.445867-11.912534-3.413333-15.291733 20.48 11.912533z" fill="#00009B" p-id="51335"></path><path d="M650.478933 271.121067l-51.131733-21.265067-2.56-1.706667 48.571733 21.265067 5.12 1.706667z" fill="#FF3F00" p-id="51336"></path><path d="M785.066667 606.208l2.56-6.826667 9.352533-3.413333-2.525867 7.68-9.386666 2.525867z" fill="#00ACFF" p-id="51337"></path><path d="M507.357867 409.736533l-11.093334 5.973334 1.706667 35.703466 10.24-7.645866-0.853333-34.030934z" fill="#BEFF39" p-id="51338"></path><path d="M491.997867 640.2048l4.232533 18.705067-13.653333 26.350933-3.3792-19.5584 12.8-25.4976z" fill="#0050FF" p-id="51339"></path><path d="M699.050667 468.411733l-25.6-10.205866v22.1184l25.6 8.533333v-20.445867z" fill="#80FF77" p-id="51340"></path><path d="M833.6384 544.9728l-10.24-13.653333 4.266667-16.964267 10.24 15.291733-4.266667 15.325867z" fill="#30FFC7" p-id="51341"></path><path d="M803.805867 402.944l-35.805867-22.971733-3.413333-16.9984 35.805866 24.6784 3.413334 15.291733z" fill="#F1FC06" p-id="51342"></path><path d="M757.794133 600.234667l2.56-5.973334 8.533334 4.266667-2.56 5.9392-8.533334-4.232533z" fill="#00B4FF" p-id="51343"></path><path d="M309.623467 716.731733l4.266666 16.145067-17.066666-26.350933-5.12-16.145067 17.92 26.350933z" fill="#0000FF" p-id="51344"></path><path d="M704.170667 300.885333l-49.4592-23.790933-4.232534-5.973333 47.7184 23.825066 5.9392 5.9392z" fill="#FF6400" p-id="51345"></path><path d="M794.453333 603.648l2.56-7.68 8.533334-5.9392-2.56 8.533333-8.533334 5.085867z" fill="#00B8FF" p-id="51346"></path><path d="M581.461333 356.181333l-31.5392-7.68v28.910934l30.685867 5.12 0.853333-26.350934z" fill="#FFD700" p-id="51347"></path><path d="M524.356267 374.8864l-18.773334 0.853333 2.56 33.9968 17.92-2.525866-1.706666-32.324267z" fill="#F1FC06" p-id="51348"></path><path d="M548.181333 230.2976l-45.9776-13.585067 3.413334 4.232534 43.451733 12.765866-0.853333-3.413333z" fill="#ED0400" p-id="51349"></path><path d="M596.753067 248.149333l-48.5376-17.851733v4.266667l45.9776 16.9984 2.56-3.413334z" fill="#FF1E00" p-id="51350"></path><path d="M616.379733 366.3872l-34.065066-10.24-1.706667 27.2384 33.211733 8.4992 2.56-25.4976z" fill="#FFE200" p-id="51351"></path><path d="M750.148267 593.442133l2.525866-5.973333 8.533334 6.826667-2.56 5.9392-8.533334-6.826667z" fill="#00C0FF" p-id="51352"></path><path d="M245.76 414.0032l-5.973333 22.1184 4.266666-35.7376 5.973334-22.1184L245.76 414.037333z" fill="#D7FF1F" p-id="51353"></path><path d="M391.406933 776.260267l2.56 14.472533-21.2992-6.826667-3.413333-15.291733 22.186667 7.645867z" fill="#000092" p-id="51354"></path><path d="M549.922133 348.501333l-27.272533-4.232533 1.706667 31.470933 25.6 2.525867v-29.764267z" fill="#FFCC00" p-id="51355"></path><path d="M802.9184 598.528l2.56-8.533333 8.533333-8.465067-3.413333 9.352533-7.68 7.645867z" fill="#00C4FF" p-id="51356"></path><path d="M716.9024 498.176l-17.885867-9.352533 0.8192 19.5584 17.92 7.645866-0.853333-17.851733z" fill="#5DFF9A" p-id="51357"></path><path d="M728.849067 539.8528l-8.533334-7.645867 4.266667 15.291734 8.533333 6.826666-4.266666-14.472533z" fill="#26FFD1" p-id="51358"></path><path d="M831.965867 460.765867l-23.893334-20.411734-1.672533-18.705066 23.8592 22.1184 1.706667 16.9984z" fill="#AAFF4D" p-id="51359"></path><path d="M454.485333 209.066667l-38.365866-3.413334 10.24-0.853333 34.9184 3.413333-6.826667 0.853334z" fill="#C80000" p-id="51360"></path><path d="M451.106133 743.936l2.56 17.851733-19.592533 10.24-3.413333-17.885866 20.48-10.205867z" fill="#0000C4" p-id="51361"></path><path d="M742.468267 584.055467l2.56-5.9392 7.645866 9.352533-2.525866 5.973333-7.68-9.352533z" fill="#00D0FF" p-id="51362"></path><path d="M405.947733 212.445867l-34.065066 2.56 12.765866-6.826667 31.5392-1.706667-10.24 5.973334z" fill="#CD0000" p-id="51363"></path><path d="M678.570667 414.856533l-31.5392-12.765866-2.56 23.825066 30.651733 10.205867 3.413333-21.265067z" fill="#CEFF29" p-id="51364"></path><path d="M646.178133 269.4144l-48.5376-21.230933-2.56 3.413333 46.011734 20.3776 5.12-2.56z" fill="#FF3800" p-id="51365"></path><path d="M650.4448 379.118933l-34.0992-12.731733-2.56 24.644267 33.245867 11.0592 3.413333-22.971734z" fill="#FBF100" p-id="51366"></path><path d="M837.905067 529.646933l-10.24-15.291733 2.56-17.885867 10.24 17.032534-2.56 16.145066z" fill="#4DFFAA" p-id="51367"></path><path d="M291.7376 689.493333l5.12 16.1792-14.472533-29.764266-5.12-16.9984 14.472533 30.6176z" fill="#0030FF" p-id="51368"></path><path d="M502.203733 216.712533l-41.745066-8.533333 6.826666 5.12 38.331734 8.533333-3.413334-5.12z" fill="#D10000" p-id="51369"></path><path d="M753.5616 335.7696l-43.451733-25.531733-5.12-9.352534 42.5984 25.531734 5.973333 9.352533z" fill="#FF9100" p-id="51370"></path><path d="M482.577067 685.2608l2.56 20.411733-16.1792 21.265067-2.56-20.411733 16.1792-21.265067z" fill="#0014FF" p-id="51371"></path><path d="M583.168 330.6496l-33.245867-9.352533v27.204266l31.5392 7.68 1.706667-25.531733z" fill="#FFA700" p-id="51372"></path><path d="M811.451733 590.848l3.413334-9.3184 7.68-10.24-3.413334 11.093333-7.68 8.4992z" fill="#00D8FF" p-id="51373"></path><path d="M700.757333 448.853333l-25.6-11.8784-1.706666 22.084267 25.6 10.24 1.706666-20.445867z" fill="#A4FF53" p-id="51374"></path><path d="M698.1632 294.912l-47.7184-23.790933-4.232533-1.706667 46.011733 23.825067 5.9392 1.706666z" fill="#FF5500" p-id="51375"></path><path d="M799.573333 386.798933l-35.805866-24.6784-5.12-15.291733 34.952533 25.4976 5.973333 14.472533z" fill="#FFDB00" p-id="51376"></path><path d="M595.080533 251.562667l-46.011733-16.9984v8.533333l43.451733 16.110933 2.56-7.645866z" fill="#FF1E00" p-id="51377"></path><path d="M274.705067 323.857067l-17.066667 21.265066 11.093333-29.764266 16.213334-20.411734-10.24 28.910934z" fill="#FF8D00" p-id="51378"></path><path d="M618.939733 343.381333l-35.771733-12.731733-1.706667 25.531733 34.0992 10.205867 3.413334-22.971733z" fill="#FFB600" p-id="51379"></path><path d="M549.034667 234.564267l-43.451734-12.765867 3.413334 9.352533 40.0384 11.946667v-8.533333z" fill="#F10800" p-id="51380"></path><path d="M359.901867 227.771733l-28.9792 8.4992 14.506666-13.6192 26.385067-7.645866-11.912533 12.765866z" fill="#E40000" p-id="51381"></path><path d="M736.529067 573.883733l2.56-6.826666 6.826666 11.0592-2.56 5.9392-6.826666-10.171734z" fill="#02E8F4" p-id="51382"></path><path d="M522.6496 344.2688l-20.48-0.853333 3.413333 33.1776 18.773334-0.853334-1.706667-31.470933z" fill="#FFC100" p-id="51383"></path><path d="M549.888 321.297067l-28.945067-5.9392 1.706667 28.910933 27.2384 4.232533v-27.204266z" fill="#FF9800" p-id="51384"></path><path d="M412.7744 777.1136l2.56 14.472533-21.2992-0.853333-2.56-14.472533 21.2992 0.853333z" fill="#000096" p-id="51385"></path><path d="M505.582933 375.739733l-11.946666 4.232534 3.413333 35.7376 11.093333-5.973334-2.56-33.9968z" fill="#F8F500" p-id="51386"></path><path d="M726.254933 524.561067l-8.533333-8.533334 2.56 17.032534 8.533333 7.645866-2.56-16.145066z" fill="#43FFB4" p-id="51387"></path><path d="M250.845867 569.617067l5.12 20.411733-5.973334-36.5568-5.12-20.411733 5.973334 36.5568z" fill="#13FCE4" p-id="51388"></path><path d="M641.092267 271.9744l-46.011734-20.411733-2.56 7.645866 44.305067 19.592534 4.266667-6.826667z" fill="#FF3800" p-id="51389"></path><path d="M496.264533 415.709867l-4.266666 8.4992 2.56 36.5568 3.413333-10.205867-1.706667-34.850133z" fill="#C1FF36" p-id="51390"></path><path d="M716.9024 479.470933l-17.885867-11.0592v19.5584l17.885867 9.352534v-17.851734z" fill="#80FF77" p-id="51391"></path><path d="M585.728 307.712l-35.805867-11.946667v24.6784l33.245867 9.352534 2.56-22.084267z" fill="#FF7E00" p-id="51392"></path><path d="M818.2784 581.5296l3.413333-11.0592 6.826667-12.765867-3.413333 11.912534-6.826667 11.912533z" fill="#09F0EE" p-id="51393"></path><path d="M494.523733 461.6192l2.56 11.912533v37.410134l-2.56-12.765867v-36.5568z" fill="#83FF73" p-id="51394"></path><path d="M654.711467 358.741333l-35.771734-15.36-3.413333 23.005867 34.0992 12.731733 5.12-20.411733z" fill="#FFC400" p-id="51395"></path><path d="M592.520533 259.208533l-43.451733-16.145066v13.6192l40.891733 14.4384 2.56-11.912534z" fill="#FF2900" p-id="51396"></path><path d="M497.083733 510.088533l6.826667 14.472534-3.413333 35.703466-5.973334-15.325866 2.56-34.850134z" fill="#40FFB7" p-id="51397"></path><path d="M623.2064 322.1504l-37.512533-14.4384-1.706667 22.9376 35.805867 12.765867 3.413333-21.265067z" fill="#FF9100" p-id="51398"></path><path d="M830.225067 442.914133l-23.893334-22.1184-2.525866-17.851733 23.8592 22.971733 2.56 16.9984z" fill="#CAFF2C" p-id="51399"></path><path d="M841.284267 513.501867l-10.24-17.032534 1.706666-17.851733 10.24 18.705067-1.706666 16.1792z" fill="#6AFF8D" p-id="51400"></path><path d="M681.984 394.4448l-31.505067-15.325867-3.413333 22.971734 31.5392 12.765866 3.413333-20.411733z" fill="#F1FC06" p-id="51401"></path><path d="M500.497067 560.264533l8.533333 15.291734-6.826667 34.030933-7.68-16.145067 5.973334-33.1776z" fill="#00E4F8" p-id="51402"></path><path d="M746.7008 326.417067l-42.5984-25.531734-5.973333-5.9392 41.745066 25.4976 6.826667 5.973334z" fill="#FF7A00" p-id="51403"></path><path d="M691.3024 292.386133l-45.9776-23.790933-5.12 2.525867 44.305067 22.971733 6.826666-1.706667z" fill="#FF4E00" p-id="51404"></path><path d="M549.034667 243.063467l-40.0384-11.912534 3.413333 14.472534 36.625067 11.0592V243.029333z" fill="#FF1300" p-id="51405"></path><path d="M505.617067 221.7984L467.285333 213.333333l6.826667 10.24 34.884267 7.611734-3.413334-9.352534z" fill="#D60000" p-id="51406"></path><path d="M587.434667 288.1536l-38.365867-13.653333v21.2992l35.771733 11.912533 2.56-19.5584z" fill="#FF5900" p-id="51407"></path><path d="M238.933333 473.531733l2.56 21.265067 0.853334-37.444267-2.56-21.230933L238.933333 473.531733z" fill="#97FF60" p-id="51408"></path><path d="M589.960533 271.121067l-40.891733-14.4384v17.851733l38.331733 13.6192 2.56-17.032533z" fill="#FF3B00" p-id="51409"></path><path d="M277.265067 658.909867l5.12 16.9984-11.946667-33.143467-5.12-17.885867 11.946667 34.030934z" fill="#0070FF" p-id="51410"></path><path d="M730.5216 561.117867l2.56-7.645867 5.12 12.731733-2.56 6.826667-5.12-11.946667z" fill="#16FFE1" p-id="51411"></path><path d="M636.0064 278.801067l-44.305067-19.592534-2.56 11.946667 41.745067 17.8176 5.12-10.171733z" fill="#FF4300" p-id="51412"></path><path d="M549.922133 295.799467l-31.5392-7.645867 2.56 26.350933 29.013334 5.9392v-24.644266z" fill="#FF6C00" p-id="51413"></path><path d="M627.4048 304.298667l-39.185067-16.145067-2.56 19.5584 37.4784 14.4384 4.266667-17.851733z" fill="#FF6F00" p-id="51414"></path><path d="M704.1024 429.294933l-25.531733-14.4384-2.56 21.265067 25.531733 11.8784 2.56-18.705067z" fill="#C7FF30" p-id="51415"></path><path d="M319.010133 255.829333l-23.005866 14.4384 14.472533-19.5584 20.48-13.585066-11.946667 18.705066z" fill="#FF1E00" p-id="51416"></path><path d="M460.458667 208.213333L425.540267 204.8l10.24 5.12 31.505066 3.413333-6.826666-5.12z" fill="#BB0000" p-id="51417"></path><path d="M793.565867 373.179733l-34.9184-25.531733-5.973334-11.8784 34.065067 26.350933 6.826667 11.0592z" fill="#FFBD00" p-id="51418"></path><path d="M631.7056 289.826133l-41.745067-17.851733-2.56 16.1792 39.185067 16.145067 5.12-14.472534z" fill="#FF5500" p-id="51419"></path><path d="M502.1696 609.5872l5.12 18.705067-10.24 30.6176-4.232533-18.705067 9.352533-30.6176z" fill="#0098FF" p-id="51420"></path><path d="M549.034667 256.682667l-36.625067-11.0592 3.413333 19.5584 34.065067 9.352533-0.853333-17.851733z" fill="#FF2900" p-id="51421"></path><path d="M549.956267 274.5344l-34.0992-9.352533 2.56 22.971733 31.5392 7.645867v-21.265067z" fill="#FF4700" p-id="51422"></path><path d="M659.831467 339.1488l-36.625067-16.9984-3.413333 21.265067 35.805866 15.291733 4.232534-19.5584z" fill="#FFA300" p-id="51423"></path><path d="M520.942933 314.504533l-23.005866-2.56 4.266666 30.6176 20.445867 0.853334-1.706667-28.910934z" fill="#FF8900" p-id="51424"></path><path d="M825.1392 570.4704l3.413333-11.912533 5.12-13.6192-3.413333 13.653333-5.12 11.8784z" fill="#1CFFDB" p-id="51425"></path><path d="M685.3632 294.912l-44.305067-22.9376-5.12 6.826667 41.745067 22.084266 7.68-5.9392z" fill="#FF5200" p-id="51426"></path><path d="M725.435733 507.562667l-8.533333-10.24 0.887467 17.885866 8.533333 8.4992-0.887467-16.1792z" fill="#60FF97" p-id="51427"></path><path d="M751.854933 611.293867l14.506667-6.826667 9.352533 1.706667-14.472533 6.826666-9.386667-1.706666z" fill="#00BCFF" p-id="51428"></path><path d="M415.3344 205.653333l-31.5392 1.706667 13.653333-0.853333 28.091734-1.706667-10.24 0.853333z" fill="#B20000" p-id="51429"></path><path d="M761.173333 613.819733l14.506667-6.792533H785.066667l-15.36 7.645867-8.533334-0.8192z" fill="#00B8FF" p-id="51430"></path><path d="M468.957867 727.790933l2.56 18.705067-17.885867 16.145067-2.56-17.851734 17.885867-16.9984z" fill="#0000F1" p-id="51431"></path><path d="M744.209067 606.208l14.472533-6.826667 8.533333 4.266667-14.506666 6.792533-8.533334-4.266666z" fill="#00C4FF" p-id="51432"></path><path d="M687.104 375.739733l-32.392533-17.032533-4.232534 21.265067 31.505067 15.325866 5.12-19.5584z" fill="#FFD700" p-id="51433"></path><path d="M719.4624 461.6192l-17.885867-12.765867-1.706666 19.5584 17.885866 11.0592 1.706667-17.851733z" fill="#A0FF56" p-id="51434"></path><path d="M739.054933 320.443733l-41.745066-25.4976-5.973334-1.706666 40.0384 25.4976 7.68 1.706666z" fill="#FF6F00" p-id="51435"></path><path d="M508.996267 231.150933l-34.9184-7.645866 6.826666 15.325866 31.505067 6.792534-3.413333-14.472534z" fill="#E40000" p-id="51436"></path><path d="M665.8048 323.003733l-38.331733-18.705066-4.266667 17.851733 36.625067 16.9984 5.973333-16.145067z" fill="#FF8200" p-id="51437"></path><path d="M250.026667 378.2656l-5.973334 22.1184 7.68-33.1776 5.12-22.084267-6.826666 33.143467z" fill="#FFD000" p-id="51438"></path><path d="M434.039467 772.846933l2.56 15.325867-20.445867 4.232533-2.56-14.4384 20.48-5.12z" fill="#0000A8" p-id="51439"></path><path d="M502.237867 343.381333l-13.653334 2.594134 5.12 34.850133 11.946667-4.232533-3.413333-33.1776z" fill="#FFB900" p-id="51440"></path><path d="M727.1424 548.352l2.56-8.4992 4.232533 14.4384-2.56 7.68-4.232533-13.6192z" fill="#30FFC7" p-id="51441"></path><path d="M769.706667 613.819733l15.36-7.645866 9.386666-2.525867-15.36 8.4992-9.352533 1.706667z" fill="#00BCFF" p-id="51442"></path><path d="M842.171733 497.322667l-10.24-18.705067V460.8l10.24 19.5584v16.9984z" fill="#87FF70" p-id="51443"></path><path d="M678.570667 300.885333l-41.710934-22.084266-5.12 11.025066 40.0384 20.411734 6.826667-9.352534z" fill="#FF5900" p-id="51444"></path><path d="M826.7776 426.734933l-23.8592-22.9376-4.266667-16.1792 23.005867 24.6784 5.12 14.4384z" fill="#E7FF0F" p-id="51445"></path><path d="M735.675733 600.234667l13.653334-6.826667 8.4992 6.826667-14.506667 6.826666-7.645867-6.826666z" fill="#00D0FF" p-id="51446"></path><path d="M671.744 310.272l-40.004267-20.445867-4.266666 14.472534 38.331733 18.705066 5.973333-12.765866z" fill="#FF6C00" p-id="51447"></path><path d="M518.3488 288.1536l-25.531733-4.266667 5.12 28.0576 22.971733 2.56-2.56-26.350933z" fill="#FF5D00" p-id="51448"></path><path d="M352.256 771.9936l2.56 11.946667-19.592533-17.032534-3.413334-11.912533 20.445867 16.9984z" fill="#0000C4" p-id="51449"></path><path d="M708.4032 410.624l-26.4192-16.1792-4.266667 20.411733 25.6 14.4384 5.12-18.705066z" fill="#E7FF0F" p-id="51450"></path><path d="M779.127467 612.1472l15.36-8.533333 8.533333-5.085867-15.36 9.352533-8.533333 4.266667z" fill="#00C4FF" p-id="51451"></path><path d="M787.626667 361.2672l-34.065067-26.350933-6.826667-9.352534 33.211734 26.350934 7.68 9.352533z" fill="#FFA700" p-id="51452"></path><path d="M512.443733 245.623467l-31.505066-6.826667 5.973333 20.411733 28.091733 5.973334-2.56-19.5584z" fill="#FF1300" p-id="51453"></path><path d="M332.629333 754.141867l3.413334 11.946666-17.885867-21.2992-3.413333-12.731733 17.885866 22.084267z" fill="#0000E8" p-id="51454"></path><path d="M830.190933 558.557867l3.413334-13.6192 4.266666-15.291734-3.413333 14.472534-4.266667 14.4384z" fill="#36FFC1" p-id="51455"></path><path d="M728.8832 590.848l13.6192-6.7584 7.645867 8.4992-13.6192 6.792533-7.645867-8.533333z" fill="#00E0FB" p-id="51456"></path><path d="M515.857067 265.181867l-28.125867-5.973334 5.973333 24.6784 25.565867 4.266667-3.413333-22.971733z" fill="#FF3400" p-id="51457"></path><path d="M492.8512 379.972267l-5.12 7.68 4.266667 36.522666 4.266666-8.465066-3.413333-35.7376z" fill="#FBF100" p-id="51458"></path><path d="M496.2304 658.909867l2.56 20.411733-13.653333 26.350933-2.525867-20.411733 13.6192-26.350933z" fill="#0054FF" p-id="51459"></path><path d="M371.882667 215.005867l-26.4192 7.645866 15.36-7.645866 22.971733-7.645867-11.946667 7.645867z" fill="#BB0000" p-id="51460"></path><path d="M467.285333 213.333333l-31.5392-3.413333 10.24 11.025067 28.091734 2.56-6.826667-10.205867z" fill="#BF0000" p-id="51461"></path><path d="M693.930667 358.741333l-34.0992-18.7392-5.12 18.705067 32.426666 17.032533 6.792534-17.032533z" fill="#FFB600" p-id="51462"></path><path d="M731.374933 317.917867l-40.0384-25.531734-6.826666 1.706667 38.365866 24.644267 8.533334-0.8192z" fill="#FF6800" p-id="51463"></path><path d="M373.5552 783.906133l1.706667 11.0592-20.445867-11.912533-2.56-11.8784 21.2992 12.731733z" fill="#0000AD" p-id="51464"></path><path d="M265.352533 625.732267l5.12 17.851733-9.386666-34.816-5.9392-18.773333 10.24 35.7376z" fill="#00B4FF" p-id="51465"></path><path d="M244.872533 532.206933l5.12 20.411734-2.56-37.444267-5.12-21.230933 2.56 38.229333z" fill="#53FFA4" p-id="51466"></path><path d="M725.435733 491.383467l-8.533333-11.912534v17.851734l8.533333 10.24v-16.1792z" fill="#7DFF7A" p-id="51467"></path><path d="M284.125867 294.912l-16.1792 20.445867 13.6192-25.531734 14.472533-19.5584-11.946667 24.6784z" fill="#FF4E00" p-id="51468"></path><path d="M787.592533 607.914667l15.36-9.386667 8.533334-7.645867-16.213334 10.205867-7.68 6.826667z" fill="#00D4FF" p-id="51469"></path><path d="M313.890133 732.0576l3.413334 12.731733-16.1792-25.4976-4.266667-13.6192 17.066667 26.385067z" fill="#0004FF" p-id="51470"></path><path d="M724.616533 533.9136l2.525867-9.352533 2.56 15.291733-2.56 8.533333-2.56-14.472533z" fill="#49FFAD" p-id="51471"></path><path d="M492.817067 424.209067l1.706666 11.0592 2.525867 38.229333-2.56-11.8784-1.706667-37.410133z" fill="#C1FF36" p-id="51472"></path><path d="M722.875733 580.676267l13.653334-7.645867 5.9392 11.025067-13.653334 6.826666-5.9392-10.24z" fill="#0CF4EB" p-id="51473"></path><path d="M722.0224 443.733333l-17.885867-14.4384-3.413333 19.5584 17.885867 12.765867 3.413333-17.851733z" fill="#C1FF36" p-id="51474"></path><path d="M700.689067 344.2688l-34.9184-20.411733-5.973334 16.145066 34.065067 18.705067 6.826667-14.4384z" fill="#FF9800" p-id="51475"></path><path d="M497.937067 311.978667l-16.213334 0.8192 5.973334 32.324266 13.653333-2.56-3.413333-30.6176z" fill="#FF7E00" p-id="51476"></path><path d="M723.694933 319.5904l-38.331733-24.644267-6.826667 5.9392 37.4784 23.825067 7.68-5.12z" fill="#FF6C00" p-id="51477"></path><path d="M842.1376 480.324267l-10.24-19.5584-1.706667-17.851734 10.24 21.265067 1.706667 16.145067z" fill="#A7FF50" p-id="51478"></path><path d="M822.613333 411.4432l-23.04-24.644267-5.12-14.472533 23.005867 25.4976 5.12 13.653333z" fill="#FFEA00" p-id="51479"></path><path d="M714.376533 393.557333l-27.272533-17.8176-5.12 18.705067 26.4192 16.145067 5.973333-16.9984z" fill="#FFE600" p-id="51480"></path><path d="M779.946667 352.768l-33.211734-26.350933-7.68-5.973334 32.392534 26.385067 8.533333 5.9392z" fill="#FF9400" p-id="51481"></path><path d="M497.083733 473.531733l6.826667 13.585067v37.444267l-6.826667-14.472534v-36.5568z" fill="#83FF73" p-id="51482"></path><path d="M707.549867 332.356267L671.744 310.272l-5.973333 12.765867 34.9184 20.411733 6.826666-11.0592z" fill="#FF8200" p-id="51483"></path><path d="M716.049067 323.857067l-37.512534-23.825067-6.826666 9.352533 35.805866 22.1184 8.533334-7.645866z" fill="#FF7300" p-id="51484"></path><path d="M394.8544 790.7328l1.706667 11.025067-20.48-6.792534-1.706667-11.0592 20.48 6.826667z" fill="#0000A4" p-id="51485"></path><path d="M425.506133 204.8l-28.091733 1.706667 13.6192 5.12 24.712533-1.706667-10.24-5.12z" fill="#A40000" p-id="51486"></path><path d="M834.4576 544.085333l3.413333-14.4384 2.56-16.145066-3.413333 16.145066-2.56 14.472534z" fill="#50FFA7" p-id="51487"></path><path d="M795.272533 601.088l16.1792-10.24 7.68-9.3184-16.213333 11.0592-7.645867 8.4992z" fill="#00E4F8" p-id="51488"></path><path d="M474.112 223.505067l-28.125867-2.56 10.24 16.1792 24.712534 2.525866-6.826667-16.145066z" fill="#CD0000" p-id="51489"></path><path d="M503.876267 524.561067l8.533333 15.291733-3.413333 36.5568-8.533334-15.291733 3.413334-36.5568z" fill="#40FFB7" p-id="51490"></path><path d="M717.7216 569.617067l13.653333-7.645867 5.12 11.912533-13.653333 7.645867-5.12-11.912533z" fill="#1FFFD7" p-id="51491"></path><path d="M239.786667 436.1216l2.56 21.230933 4.266666-35.703466-2.56-21.265067-4.266666 35.703467z" fill="#D7FF1F" p-id="51492"></path><path d="M330.990933 236.270933l-20.48 13.585067 16.213334-14.4384 17.885866-12.765867-13.653333 13.6192z" fill="#DA0000" p-id="51493"></path><path d="M453.632 761.821867l1.706667 15.291733-19.592534 10.205867-2.56-15.291734 20.48-10.24z" fill="#0000CD" p-id="51494"></path><path d="M296.891733 705.672533l4.266667 13.6192-14.506667-28.910933-4.266666-14.472533 14.506666 29.764266z" fill="#003CFF" p-id="51495"></path><path d="M492.817067 283.886933h-18.773334l7.68 29.764267 16.213334-0.853333-5.12-28.910934z" fill="#FF4E00" p-id="51496"></path><path d="M727.9616 475.2384l-8.533333-13.6192-1.706667 17.851733 8.533333 11.912534 1.706667-16.145067z" fill="#9DFF5A" p-id="51497"></path><path d="M722.875733 518.587733l2.56-10.205866 0.853334 16.1792-2.56 9.352533-0.853334-15.325867z" fill="#63FF94" p-id="51498"></path><path d="M480.938667 238.830933l-24.746667-2.56 9.386667 21.265067 21.2992 0.853333-5.973334-19.5584z" fill="#E80000" p-id="51499"></path><path d="M721.169067 378.2656l-27.272534-20.411733-5.973333 17.032533 27.272533 17.851733 5.973334-14.472533z" fill="#FFC400" p-id="51500"></path><path d="M488.5504 345.975467l-6.826667 5.9392 6.826667 35.703466 5.12-7.645866-5.12-33.9968z" fill="#FFAE00" p-id="51501"></path><path d="M772.3008 346.794667l-32.3584-26.350934-7.68-2.525866 31.5392 26.350933 8.533333 2.56z" fill="#FF8600" p-id="51502"></path><path d="M727.1424 427.588267l-18.773333-16.9984-4.232534 18.705066 17.885867 14.472534 5.12-16.1792z" fill="#DEFF19" p-id="51503"></path><path d="M508.996267 576.4096l5.12 18.705067-7.68 34.030933-5.12-18.705067 7.68-34.030933z" fill="#00E4F8" p-id="51504"></path><path d="M486.843733 259.208533l-21.2992-0.8192 8.533334 25.4976h18.705066l-5.9392-24.6784z" fill="#FF2200" p-id="51505"></path><path d="M485.1712 706.56l2.56 18.670933-16.1792 21.265067-2.56-18.705067 16.1792-21.265066z" fill="#0018FF" p-id="51506"></path><path d="M816.605867 397.824l-23.005867-25.4976-6.826667-11.912533 23.04 25.531733 6.826667 11.8784z" fill="#FFD000" p-id="51507"></path><path d="M802.9184 592.554667l16.213333-11.025067 6.826667-11.0592-16.213333 11.912533-6.826667 10.205867z" fill="#0FF8E7" p-id="51508"></path><path d="M840.430933 464.1792l-10.24-21.265067-3.413333-16.1792 10.24 22.1184 3.413333 15.325867z" fill="#C1FF36" p-id="51509"></path><path d="M713.454933 556.8512l13.653334-8.4992 4.266666 13.6192-13.653333 7.645867-4.266667-12.765867z" fill="#33FFC4" p-id="51510"></path><path d="M415.300267 792.405333l0.853333 11.0592-20.48-0.853333-1.672533-11.025067 21.2992 0.8192z" fill="#0000A8" p-id="51511"></path><path d="M837.051733 529.646933l3.413334-16.145066 1.706666-16.1792-3.413333 17.885866-1.706667 14.4384z" fill="#6AFF8D" p-id="51512"></path><path d="M384.6144 207.36l-23.005867 7.645867 16.1792-1.706667 20.48-6.826667-13.653333 0.887467z" fill="#9F0000" p-id="51513"></path><path d="M727.1424 618.939733l25.565867-7.645866 8.533333 2.56-25.6 7.645866-8.533333-2.56z" fill="#00C8FF" p-id="51514"></path><path d="M728.8832 365.533867l-28.125867-22.1184-6.826666 14.472533 27.272533 20.3776 7.645867-12.731733z" fill="#FFAB00" p-id="51515"></path><path d="M718.609067 613.819733l25.565866-7.645866 8.533334 4.266666-25.6 7.645867-8.533334-4.266667z" fill="#00D0FF" p-id="51516"></path><path d="M763.8016 344.2688l-31.5392-26.350933-7.645867 1.706666 30.651734 25.4976 8.533333-0.853333z" fill="#FF8200" p-id="51517"></path><path d="M255.965867 590.0288l5.973333 18.705067-5.973333-36.5568-5.973334-19.5584 5.973334 37.410133z" fill="#16FFE1" p-id="51518"></path><path d="M257.6384 345.088l-5.12 22.152533 11.093333-30.6176 5.12-21.265066-11.093333 29.764266z" fill="#FF8D00" p-id="51519"></path><path d="M734.788267 621.499733l25.6-7.645866h8.4992l-26.4192 8.4992-7.68-0.853334z" fill="#00C8FF" p-id="51520"></path><path d="M710.929067 607.0272l24.712533-7.645867 7.68 6.826667-25.6 7.611733-6.792533-6.792533z" fill="#00D8FF" p-id="51521"></path><path d="M435.780267 209.92l-24.712534 1.706667 13.653334 11.025066 21.265066-1.706666-10.24-11.0592z" fill="#A80000" p-id="51522"></path><path d="M487.765333 387.618133l0.8192 10.24 5.12 37.410134-1.706666-11.0592-4.266667-36.590934z" fill="#FEED00" p-id="51523"></path><path d="M737.3824 355.328l-29.013333-22.971733-7.645867 11.912533 28.125867 22.1184 8.533333-11.0592z" fill="#FF9800" p-id="51524"></path><path d="M754.414933 345.088l-30.685866-25.4976-7.645867 5.12 29.7984 24.644267 8.533333-4.232534z" fill="#FF8200" p-id="51525"></path><path d="M723.729067 503.296l2.56-11.946667v17.066667l-2.56 10.171733v-15.291733z" fill="#7DFF7A" p-id="51526"></path><path d="M731.409067 459.093333l-8.533334-15.36-3.413333 17.885867 8.533333 13.6192 3.413334-16.1792z" fill="#BAFF3C" p-id="51527"></path><path d="M733.115733 412.296533l-18.773333-18.705066-5.9392 16.9984 18.7392 16.9984 5.973333-15.291734z" fill="#FBF100" p-id="51528"></path><path d="M744.209067 622.353067l26.385066-8.533334 8.533334-1.706666-26.4192 9.386666-8.533334 0.853334z" fill="#00C8FF" p-id="51529"></path><path d="M808.96 583.236267l16.1792-11.946667 5.12-12.731733-16.213333 12.765866-5.12 11.912534z" fill="#26FFD1" p-id="51530"></path><path d="M704.136533 598.528l24.712534-7.645867 6.826666 8.4992-24.712533 7.645867-6.826667-8.4992z" fill="#02E8F4" p-id="51531"></path><path d="M282.385067 675.908267l4.266666 14.472533-11.946666-31.470933-5.12-15.291734 12.8 32.290134z" fill="#0078FF" p-id="51532"></path><path d="M745.8816 348.501333l-29.7984-24.644266-7.68 8.533333 28.9792 22.9376 8.533333-6.826667z" fill="#FF8900" p-id="51533"></path><path d="M809.813333 386.798933l-23.005866-25.531733-7.68-8.4992 22.186666 26.350933 8.4992 7.68z" fill="#FFB900" p-id="51534"></path><path d="M506.504533 628.292267l2.56 21.265066-10.24 30.6176-2.56-20.411733 10.24-31.470933z" fill="#0098FF" p-id="51535"></path><path d="M241.4592 494.7968l5.12 21.230933 0.853333-36.522666-5.12-21.2992-0.853333 36.590933z" fill="#97FF60" p-id="51536"></path><path d="M481.757867 313.6512l-9.352534 5.12 8.533334 33.143467 6.826666-5.9392-6.007466-32.324267z" fill="#FF7300" p-id="51537"></path><path d="M710.929067 543.266133l13.653333-9.352533 2.525867 14.4384-13.6192 8.533333-2.56-13.653333z" fill="#4DFFAA" p-id="51538"></path><path d="M837.0176 448.853333l-10.24-22.1184-4.232533-15.291733 10.24 23.825067 4.232533 13.585066z" fill="#DEFF19" p-id="51539"></path><path d="M296.004267 270.267733l-14.472534 19.5584 16.1792-20.411733 12.8-18.705067-14.506666 19.5584z" fill="#FF1A00" p-id="51540"></path><path d="M751.854933 620.6464l26.4192-9.352533 8.533334-4.266667-27.272534 9.352533-7.68 4.266667z" fill="#00D0FF" p-id="51541"></path><path d="M698.129067 589.175467l24.712533-7.645867 5.973333 10.205867-24.712533 7.645866-5.973333-10.205866z" fill="#13FCE4" p-id="51542"></path><path d="M838.724267 514.3552l3.413333-17.885867v-16.145066l-3.413333 18.705066v15.325867z" fill="#87FF70" p-id="51543"></path><path d="M494.523733 435.268267l5.973334 12.731733 3.413333 38.263467-6.826667-13.585067-2.56-37.410133z" fill="#C4FF33" p-id="51544"></path><path d="M445.952 220.945067l-21.2992 1.706666 13.653333 16.9984 17.885867-2.525866-10.24-16.1792z" fill="#B60000" p-id="51545"></path><path d="M739.908267 398.677333l-18.773334-20.411733-6.826666 15.325867 18.773333 18.705066 6.826667-13.6192z" fill="#FFD700" p-id="51546"></path><path d="M802.0992 378.2656l-22.186667-26.350933-7.645866-5.9392 22.152533 26.350933 7.68 5.9392z" fill="#FFA700" p-id="51547"></path><path d="M471.552 746.496l1.706667 15.291733-17.885867 15.325867-1.706667-15.291733 17.885867-15.325867z" fill="#0000FA" p-id="51548"></path><path d="M435.712 787.319467v11.0592l-19.592533 4.232533-0.853334-11.025067 20.48-4.266666z" fill="#0000BB" p-id="51549"></path><path d="M814.08 571.323733l16.1792-12.765866 4.266667-13.6192-17.066667 14.472533-3.413333 11.912533z" fill="#3CFFBA" p-id="51550"></path><path d="M760.32 617.233067l27.306667-9.352534 7.645866-5.9392-27.272533 10.205867-7.68 5.12z" fill="#00DCFE" p-id="51551"></path><path d="M735.6416 443.733333l-8.533333-16.9984-5.12 17.032534 8.533333 15.291733 5.12-15.291733z" fill="#D4FF23" p-id="51552"></path><path d="M474.077867 283.886933l-11.946667 4.266667 10.24 30.583467 9.352533-5.085867-7.645866-29.764267z" fill="#FF3F00" p-id="51553"></path><path d="M725.435733 487.970133l2.56-12.731733-1.706666 16.145067-2.56 11.912533 1.706666-15.325867z" fill="#9AFF5D" p-id="51554"></path><path d="M345.429333 222.651733l-17.885866 12.765867 17.885866-8.533333 15.36-12.731734-15.36 8.533334z" fill="#B20000" p-id="51555"></path><path d="M354.781867 783.0528l0.853333 7.68-18.7392-16.1792-1.706667-7.645867 19.592534 16.145067z" fill="#0000D6" p-id="51556"></path><path d="M693.077333 577.262933l23.8592-8.4992 5.12 11.912534-24.712533 7.645866-4.266667-11.0592z" fill="#26FFD1" p-id="51557"></path><path d="M335.223467 766.0544l1.706666 7.645867-17.066666-20.411734-2.525867-8.4992 17.885867 21.265067z" fill="#0000FA" p-id="51558"></path><path d="M710.075733 528.7936l13.653334-10.205867 0.8192 15.325867-13.653334 9.352533-0.8192-14.472533z" fill="#63FF94" p-id="51559"></path><path d="M503.944533 487.1168l8.533334 14.472533v38.263467l-8.533334-15.291733V487.082667z" fill="#83FF73" p-id="51560"></path><path d="M456.226133 237.124267l-17.885866 2.525866 12.765866 22.1184 14.506667-3.413333-9.386667-21.230933z" fill="#D60000" p-id="51561"></path><path d="M397.380267 206.506667l-20.445867 6.826666 17.066667 5.085867 16.9984-6.826667-13.6192-5.12z" fill="#960000" p-id="51562"></path><path d="M832.785067 435.268267l-10.24-23.825067-5.9392-13.6192 10.24 23.825067 5.9392 13.6192z" fill="#F4F802" p-id="51563"></path><path d="M465.578667 258.389333l-14.506667 3.413334 11.946667 26.350933 11.912533-4.266667-9.386667-25.4976z" fill="#FF1300" p-id="51564"></path><path d="M375.261867 794.965333v6.826667l-19.626667-11.946667-0.8192-7.645866 20.445867 12.765866z" fill="#0000BF" p-id="51565"></path><path d="M748.407467 387.652267l-19.592534-22.1184-7.68 12.731733 18.773334 20.411733 8.4992-11.025066z" fill="#FFC100" p-id="51566"></path><path d="M244.053333 400.384l2.56 21.265067 7.68-33.1776-2.56-21.265067-7.68 33.1776z" fill="#FFD000" p-id="51567"></path><path d="M793.6 373.179733l-22.152533-26.350933-8.533334-2.56 21.333334 25.4976 9.352533 3.413333z" fill="#FF9C00" p-id="51568"></path><path d="M838.7584 499.029333l3.413333-18.705066-1.706666-16.145067-3.413334 19.5584 1.706667 15.291733z" fill="#A0FF56" p-id="51569"></path><path d="M481.792 351.914667l-0.853333 9.352533 7.68 36.5568-0.853334-10.171733-5.973333-35.7376z" fill="#FFAB00" p-id="51570"></path><path d="M317.3376 744.789333l2.56 8.533334-15.36-24.6784-2.525867-9.352534 15.325867 25.4976z" fill="#0014FF" p-id="51571"></path><path d="M768 611.293867l27.272533-10.24 6.826667-8.465067-27.306667 11.0592-6.792533 7.645867z" fill="#06ECF1" p-id="51572"></path><path d="M270.4384 643.584l5.12 15.325867-8.533333-34.030934-5.973334-16.145066 9.386667 34.850133z" fill="#00BCFF" p-id="51573"></path><path d="M498.756267 680.174933l2.56 18.705067-13.653334 25.4976-2.525866-18.705067 13.653333-25.4976z" fill="#0054FF" p-id="51574"></path><path d="M689.664 565.3504l23.8592-8.4992 4.266667 12.765867-23.893334 8.533333-4.232533-12.8z" fill="#39FFBE" p-id="51575"></path><path d="M756.974933 379.118933l-19.592533-22.9376-8.533333 10.205867 19.626666 22.084267 8.533334-9.352534z" fill="#FFAE00" p-id="51576"></path><path d="M512.4096 539.8528l5.12 17.851733-3.413333 36.590934-5.12-18.7392 3.413333-35.703467z" fill="#40FFB7" p-id="51577"></path><path d="M785.066667 369.7664l-21.265067-25.4976-8.533333 0.853333 20.445866 25.4976 9.386667-0.853333z" fill="#FF9800" p-id="51578"></path><path d="M250.026667 552.618667l5.973333 19.5584-2.56-36.590934-5.973333-20.411733 2.56 37.444267z" fill="#56FFA0" p-id="51579"></path><path d="M818.2784 558.557867l17.032533-14.4384 2.56-14.472534-17.066666 15.325867-2.525867 13.585067z" fill="#53FFA4" p-id="51580"></path><path d="M741.614933 430.148267l-8.533333-18.705067-5.9392 15.291733 8.533333 17.032534 5.9392-13.6192z" fill="#EEFF09" p-id="51581"></path><path d="M766.293333 373.179733l-20.445866-24.6784-8.533334 6.826667 19.626667 22.9376 9.352533-5.12z" fill="#FF9F00" p-id="51582"></path><path d="M775.714133 369.7664l-20.48-25.4976-8.4992 4.232533 20.445867 24.6784 8.533333-3.413333z" fill="#FF9800" p-id="51583"></path><path d="M728.814933 473.531733l2.56-14.472533-3.413333 16.1792-2.56 12.731733 3.413333-14.4384z" fill="#B4FF43" p-id="51584"></path><path d="M395.707733 801.792l-0.853333 6.792533-19.592533-6.826666v-6.792534l20.48 6.826667z" fill="#0000B6" p-id="51585"></path><path d="M684.544 622.353067l34.065067-8.533334 8.533333 5.12-34.952533 8.533334-7.645867-5.12z" fill="#00D8FF" p-id="51586"></path><path d="M826.845867 422.5024l-10.24-23.825067-6.826667-11.0592 9.386667 24.6784 7.68 10.205867z" fill="#FFDE00" p-id="51587"></path><path d="M710.075733 514.3552l13.653334-11.0592v15.291733l-13.653334 10.24v-14.472533z" fill="#7DFF7A" p-id="51588"></path><path d="M692.224 627.438933l34.9184-8.4992 8.533333 2.56-34.952533 8.4992-8.533333-2.56z" fill="#00D0FF" p-id="51589"></path><path d="M676.864 615.5264l34.065067-8.4992 7.68 6.826667-34.065067 8.4992-7.68-6.826667z" fill="#00E0FB" p-id="51590"></path><path d="M699.869867 630.852267l34.9184-8.533334 8.533333 0.887467-35.771733 9.352533-7.68-1.706666z" fill="#00D0FF" p-id="51591"></path><path d="M267.912533 315.357867l-5.12 21.265066 14.506667-26.385066 4.232533-21.265067-13.6192 26.385067z" fill="#FF4E00" p-id="51592"></path><path d="M670.037333 607.0272l34.133334-8.4992 6.792533 8.533333-34.065067 8.465067-6.826666-8.4992z" fill="#09F0EE" p-id="51593"></path><path d="M774.8608 603.648l27.272533-11.0592 5.973334-10.24-28.125867 11.946667-5.12 9.352533z" fill="#19FFDE" p-id="51594"></path><path d="M301.1584 719.291733l2.56 9.352534-13.653333-28.0576-3.413334-11.0592 14.506667 29.764266z" fill="#0048FF" p-id="51595"></path><path d="M687.069867 551.765333l23.8592-9.352533 2.56 13.585067-23.893334 8.533333-2.525866-12.765867z" fill="#50FFA7" p-id="51596"></path><path d="M837.0176 484.590933l3.413333-19.5584-3.413333-15.325866-3.413333 21.265066 3.413333 13.6192z" fill="#BEFF39" p-id="51597"></path><path d="M411.0336 211.626667l-17.032533 6.792533 17.066666 11.0592 13.6192-6.826667-13.653333-11.0592z" fill="#960000" p-id="51598"></path><path d="M749.2608 418.235733l-8.533333-19.5584-6.792534 13.6192 8.533334 18.705067 6.826666-12.765867z" fill="#FFE600" p-id="51599"></path><path d="M455.338667 777.1136v11.0592l-18.7392 10.205867v-11.0592l18.773333-10.205867z" fill="#0000DA" p-id="51600"></path><path d="M708.4032 631.7056l35.771733-9.352533 8.533334-1.706667-35.805867 9.352533-8.533333 1.706667z" fill="#00D0FF" p-id="51601"></path><path d="M488.618667 397.824l5.12 11.946667 5.9392 38.229333-5.973334-12.731733-5.12-37.444267z" fill="#FFEA00" p-id="51602"></path><path d="M664.917333 596.821333l33.245867-8.4992 5.973333 10.24-34.0992 8.465067-5.12-10.205867z" fill="#16FFE1" p-id="51603"></path><path d="M473.224533 317.917867l-2.56 8.4992 10.24 33.9968 0.853334-9.352534-8.533334-33.143466z" fill="#FF6C00" p-id="51604"></path><path d="M242.346667 457.386667l5.12 21.230933 4.232533-35.703467-5.12-22.1184L242.346667 457.386667z" fill="#D7FF1F" p-id="51605"></path><path d="M820.872533 544.9728l17.032534-15.325867 1.706666-15.291733-17.066666 16.145067-1.706667 14.472533z" fill="#6DFF8A" p-id="51606"></path><path d="M310.510933 249.856l-12.765866 18.7392 18.7392-15.325867 11.0592-17.851733-17.032534 14.4384z" fill="#D10000" p-id="51607"></path><path d="M819.985067 412.296533l-9.386667-24.6784-7.68-8.4992 9.386667 24.6784 7.68 8.4992z" fill="#FFCC00" p-id="51608"></path><path d="M514.1504 594.261333l2.525867 21.265067-7.645867 34.030933-2.56-21.265066 7.68-34.030934z" fill="#00E4F8" p-id="51609"></path><path d="M733.115733 459.912533l2.56-16.145066-5.12 15.291733-2.56 14.472533 5.12-13.6192z" fill="#CEFF29" p-id="51610"></path><path d="M360.789333 215.005867l-15.325866 12.765866 19.592533-1.706666 12.8-11.912534-17.066667 0.853334z" fill="#960000" p-id="51611"></path><path d="M711.7824 500.736l13.6192-12.765867-1.706667 15.325867-13.653333 11.0592 1.706667-13.6192z" fill="#97FF60" p-id="51612"></path><path d="M416.1536 802.6112l-1.706667 6.826667-19.592533-0.853334 0.853333-6.826666 20.48 0.853333z" fill="#0000BB" p-id="51613"></path><path d="M716.0832 629.998933l35.771733-9.352533 8.533334-3.413333-36.6592 10.24-7.645867 2.525866z" fill="#00D8FF" p-id="51614"></path><path d="M487.7312 725.230933l0.853333 16.1792-15.36 20.411734-1.706666-15.325867 16.213333-21.265067z" fill="#0020FF" p-id="51615"></path><path d="M780.8 594.261333l28.125867-11.8784 5.12-11.946666-28.125867 12.8-5.12 11.025066zM659.797333 585.762133l33.245867-8.4992 5.12 11.0592-33.245867 8.533334-5.12-11.093334z" fill="#29FFCE" p-id="51616"></path><path d="M756.906667 408.917333l-8.533334-21.2992-7.645866 11.0592 8.533333 19.5584 7.645867-9.352533z" fill="#FFD000" p-id="51617"></path><path d="M686.250667 538.999467l23.893333-10.205867 0.8192 14.472533-23.8592 9.352534-0.8192-13.6192z" fill="#66FF90" p-id="51618"></path><path d="M833.672533 470.1184l3.413334-21.265067-4.266667-14.4384-3.413333 22.084267 4.266666 13.653333z" fill="#D4FF23" p-id="51619"></path><path d="M812.373333 403.797333l-9.386666-24.6784-8.533334-5.9392 9.386667 24.644267 8.533333 5.973333z" fill="#FFB900" p-id="51620"></path><path d="M425.506133 222.651733l-13.653333 6.826667 16.213333 16.9984 11.0592-6.826667-13.653333-16.9984z" fill="#A80000" p-id="51621"></path><path d="M261.12 608.733867l5.12 16.145066-6.007467-34.850133-5.12-16.9984 5.973334 35.703467z" fill="#19FFDE" p-id="51622"></path><path d="M500.462933 448l8.533334 14.472533 3.413333 39.1168-8.533333-14.472533-3.413334-39.1168z" fill="#C4FF33" p-id="51623"></path><path d="M462.984533 288.1536l-5.12 7.645867 12.8 31.470933 2.525867-8.533333-10.24-30.583467z" fill="#FF3400" p-id="51624"></path><path d="M286.651733 690.3808l3.413334 11.0592-11.0592-30.6176-4.266667-11.912533 11.946667 31.470933z" fill="#0080FF" p-id="51625"></path><path d="M765.508267 401.237333l-9.386667-22.1184-8.533333 8.533334 8.533333 21.230933 9.352533-7.645867z" fill="#FFC100" p-id="51626"></path><path d="M723.729067 627.438933l36.625066-10.205866 7.68-5.9392-36.625066 11.0592-7.68 5.12z" fill="#00E4F8" p-id="51627"></path><path d="M821.725867 530.500267l17.066666-16.145067v-15.325867l-17.066666 17.851734v13.6192z" fill="#87FF70" p-id="51628"></path><path d="M656.384 573.883733l33.245867-8.533333 3.413333 12.765867-33.245867 8.533333-3.413333-12.765867z" fill="#3CFFBA" p-id="51629"></path><path d="M739.0208 448l2.56-16.9984-5.973333 13.6192-2.525867 16.145067 5.9392-12.765867z" fill="#E4FF13" p-id="51630"></path><path d="M802.952533 397.824l-9.386666-24.644267-9.352534-2.56 9.352534 24.6784 9.386666 2.525867z" fill="#FFB200" p-id="51631"></path><path d="M438.272 238.830933l-11.0592 6.792534 15.325867 22.1184 7.68-6.826667-11.946667-22.084267z" fill="#C80000" p-id="51632"></path><path d="M451.072 260.9152l-7.68 6.826667 14.506667 27.204266 5.12-7.645866-11.946667-26.385067z" fill="#F10800" p-id="51633"></path><path d="M715.195733 487.1168l13.653334-13.585067-3.413334 14.4384-13.653333 12.765867 3.413333-13.6192z" fill="#B1FF46" p-id="51634"></path><path d="M774.826667 396.151467l-9.386667-23.825067-9.386667 5.9392 9.386667 22.1184 9.352533-4.232533z" fill="#FFB200" p-id="51635"></path><path d="M251.733333 366.3872l2.56 21.265067 11.0592-29.764267-2.56-21.265067-11.0592 29.764267z" fill="#FF8D00" p-id="51636"></path><path d="M785.92 584.055467l28.125867-12.731734 4.266666-12.765866-28.125866 13.6192-4.266667 11.8784z" fill="#40FFB7" p-id="51637"></path><path d="M794.4192 394.4448l-9.386667-24.6784h-9.352533l9.352533 23.825067 9.386667 0.853333z" fill="#FFAB00" p-id="51638"></path><path d="M784.213333 394.4448l-9.386666-23.825067-9.352534 3.413334 9.352534 23.790933 9.386666-3.413333z" fill="#FFAE00" p-id="51639"></path><path d="M686.250667 525.4144l23.893333-11.0592v14.4384l-23.893333 10.24v-13.653333z" fill="#7DFF7A" p-id="51640"></path><path d="M642.798933 631.7056l40.891734-9.352533 7.68 5.12-41.745067 9.3184-6.826667-5.12z" fill="#00DCFE" p-id="51641"></path><path d="M635.904 624.878933l40.925867-9.352533 6.826666 6.826667-40.891733 9.352533-6.826667-6.826667z" fill="#00E4F8" p-id="51642"></path><path d="M246.613333 515.208533l5.9392 20.3776 0.853334-35.703466-5.9392-21.265067-0.853334 36.590933z" fill="#97FF60" p-id="51643"></path><path d="M829.371733 456.4992l3.413334-22.084267-5.973334-12.765866-3.413333 22.1184 5.973333 12.731733z" fill="#EBFF0C" p-id="51644"></path><path d="M355.669333 790.7328l-0.853333 2.525867-17.885867-15.291734v-3.413333l18.773334 16.1792z" fill="#0000ED" p-id="51645"></path><path d="M509.0304 649.557333l2.56 19.5584-10.24 29.764267-2.56-18.705067 10.24-30.6176z" fill="#009CFF" p-id="51646"></path><path d="M512.4096 501.589333l5.12 17.851734v38.263466l-5.12-17.851733v-38.263467z" fill="#83FF73" p-id="51647"></path><path d="M650.478933 636.791467l41.745067-9.352534 7.645867 3.413334-41.745067 10.205866-7.645867-4.266666z" fill="#00D4FF" p-id="51648"></path><path d="M336.896 774.5536v3.413333l-17.066667-19.5584-0.8192-4.266666 17.885867 20.411733z" fill="#0000FF" p-id="51649"></path><path d="M480.938667 361.2672l4.266666 11.912533 9.352534 37.410134-5.12-11.912534-8.533334-37.410133z" fill="#FFA300" p-id="51650"></path><path d="M629.998933 616.379733l40.891734-8.4992 6.826666 8.533334-40.891733 9.3184-6.826667-9.352534zM731.409067 622.353067l36.625066-11.0592 6.826667-7.645867-37.512533 11.025067-5.9392 7.68z" fill="#0CF4EB" p-id="51651"></path><path d="M436.565333 798.378667l-2.56 6.826666-18.7392 4.232534 1.706667-6.826667 19.592533-4.232533z" fill="#0000CD" p-id="51652"></path><path d="M653.858133 561.117867l33.245867-9.352534 2.56 12.731734-33.245867 8.533333-2.56-11.946667z" fill="#50FFA7" p-id="51653"></path><path d="M375.261867 801.792l-1.706667 2.525867-18.773333-11.0592 0.853333-2.525867 19.626667 11.025067z" fill="#0000D6" p-id="51654"></path><path d="M746.734933 436.974933l2.56-18.7392-6.826666 11.946667-2.525867 16.9642" fill="#F8F500" p-id="51655"></path></svg>
