<svg t="1720258531295" class="icon" viewBox="0 0 1024 1024" version="1.1" xmlns="http://www.w3.org/2000/svg" p-id="24365" width="128" height="128"><path d="M1023.67395 514.470846c0 281.360557-228.08199 509.452736-509.452736 509.452736-281.360557 0-509.452736-228.092179-509.452736-509.452736 0-281.370746 228.092179-509.452736 509.452736-509.452737 281.370746 0 509.452736 228.08199 509.452736 509.452737" fill="#C3A723" p-id="24366"></path><path d="M566.776358 688.097433H454.177114v-145.183841h111.651662v-58.587065H454.177114V341.68995h105.808239s130.231403 0 130.231403 161.175562c0 190.03606-123.445493 185.226826-123.445492 185.226826m-17.499702-448.308219h-198.686567v244.537314h-66.228856v58.587065h66.228856v247.084577h211.422886s231.800995 7.641791 231.800995-294.208956c0-256-244.537313-256-244.537314-256" fill="#FFFFFF" p-id="24367"></path></svg>
