<svg t="1719594617847" class="icon" viewBox="0 0 1024 1024" version="1.1" xmlns="http://www.w3.org/2000/svg" p-id="14351" width="128" height="128"><path d="M512 97.416533a27.5456 27.5456 0 1 0 26.965333 27.511467 27.306667 27.306667 0 0 0-26.965333-27.511467zM162.235733 788.6848a23.893333 23.893333 0 0 0-0.375466 5.597867 19.012267 19.012267 0 0 0 17.5104 19.7632h665.258666a19.012267 19.012267 0 0 0 17.5104-19.7632 22.903467 22.903467 0 0 0-0.375466-5.632l-87.688534-105.335467a25.053867 25.053867 0 0 1-6.4512-19.012267v-178.4832A263.441067 263.441067 0 0 0 512 215.7568a263.441067 263.441067 0 0 0-255.658667 270.062933v178.517334a31.8464 31.8464 0 0 1-7.031466 19.6608l-87.074134 104.686933z m269.892267 86.698667A83.6608 83.6608 0 0 0 512 928.426667a87.483733 87.483733 0 0 0 79.018667-53.111467H432.128zM512 989.866667a149.8112 149.8112 0 0 1-142.916267-114.449067H179.370667A79.189333 79.189333 0 0 1 102.4 794.3168a70.3488 70.3488 0 0 1 7.5776-34.133333v-1.706667l4.437333-6.417067 82.500267-101.614933v-166.570667a327.68 327.68 0 0 1 237.6704-321.672533 89.634133 89.634133 0 0 1-9.0112-39.3216 86.459733 86.459733 0 1 1 172.8512 0 89.668267 89.668267 0 0 1-8.9088 39.048533 329.8304 329.8304 0 0 1 237.602133 321.809067v166.6048l82.466134 101.614933a13.312 13.312 0 0 1 4.3008 8.6016 90.555733 90.555733 0 0 1 7.68 33.5872 79.223467 79.223467 0 0 1-76.970667 81.1008h-189.6448A145.339733 145.339733 0 0 1 512 989.866667z" fill="#666666" p-id="14352"></path></svg>
