<?xml version="1.0" standalone="no"?><!DOCTYPE svg PUBLIC "-//W3C//DTD SVG 1.1//EN" "http://www.w3.org/Graphics/SVG/1.1/DTD/svg11.dtd"><svg t="1723563711746" class="icon" viewBox="0 0 1036 1024" version="1.1" xmlns="http://www.w3.org/2000/svg" p-id="1670" xmlns:xlink="http://www.w3.org/1999/xlink" width="259" height="256"><path d="M1014.628571 504L543.885714 33.6a36.491429 36.491429 0 0 0-51.657143 0L21.485714 504c-13.714286 13.714286-21.485714 32.342857-21.485714 51.771429 0 40.342857 32.8 73.142857 73.142857 73.142857h49.6V964.571429c0 20.228571 16.342857 36.571429 36.571429 36.571428H444.914286V745.142857h128v256h303.885714c20.228571 0 36.571429-16.342857 36.571429-36.571428V628.914286h49.6c19.428571 0 38.057143-7.657143 51.771428-21.485715 28.457143-28.571429 28.457143-74.857143-0.114286-103.428571z" p-id="1671"></path></svg>