<svg t="1721022930721" class="icon" viewBox="0 0 1024 1024" version="1.1" xmlns="http://www.w3.org/2000/svg" p-id="28961" width="256" height="256"><path d="M606.230774 968.344349c-1.791216-33.201474-5.757481-53.41663-27.124133-75.646904-28.947336-40.750172-92.279628-71.104892-102.579122-78.397701-51.33754-36.016243-66.179047-51.625414-56.743175-61.445118 70.817018-34.512901 117.260698-53.41663 132.39008-106.001624-17.304429-8.124446-63.364278-4.446055-82.459924-6.525145-24.405323 65.443369-82.555882 121.770725-142.401699 135.492721 18.90373 19.38352 97.301431 39.534704 166.135315 76.318611 19.767352 19.479478 29.970888 56.743175 29.203224 98.324983 26.676329 11.802836 58.630349 2.942713 83.579434 17.880177zM210.659836 519.356781c1.983132-4.733929 17.208471-2.07909 22.518149-5.405635 0-0.863622 0-0.863622-1.695259-18.903729-0.95958-9.915662-16.088961-118.380209 99.572437-141.825951-38.767039-64.291872-271.913038-64.291872-253.776972 131.238583 8.89211-14.745549 28.371587-66.946711 43.8848-56.743175-50.21803 47.275317 71.584682 202.919223 15.705129 205.190229 27.699881 25.524833 77.917911 10.395452 78.205785-53.704504 0.383832-37.551571-12.5705-39.982508-4.350097-59.845818z m657.92016-23.157868a363.041169 363.041169 0 0 0-46.091835-5.981383l-1.183482-0.063972a368.510777 368.510777 0 0 1-20.567002 52.361092l0.991566-2.239021c-0.863622 2.654839-1.983132 5.213719-2.942712 7.836572 14.745549 0 29.491098 2.462922 44.428562 2.271006 8.316362 0 16.728681-0.575748 24.949085 0 7.868558 0.255888 15.161367 2.430936 21.494596 6.077342l-0.223902-0.127945c0 19.575436-10.587368 105.521834-17.400387 116.588993a65.571313 65.571313 0 0 1-22.997938 10.587368l-0.447805 0.095958c-2.750797 15.033423-4.350097 30.258762-7.388767 45.196226a405.550572 405.550572 0 0 1 52.29712-12.282626l2.654839-0.383832c10.49141-1.791216 21.270694-82.268008 49.354407-160.729681 12.378584-30.066846-28.659461-52.29712-76.958331-59.206097z m-86.778034 70.049353a54.05635 54.05635 0 0 0-9.659774 0.031986h0.223902c18.264009-23.349784 50.761792-84.539014 46.411695-137.571812-1.887174-11.067158-3.486475-20.151184-5.309677-28.371587v-0.671707a226.460923 226.460923 0 0 0-8.25239-29.139251l0.511776 1.5993h-1.887174a248.851128 248.851128 0 0 0-40.878116-64.195914l0.223902 0.255888c-6.045355-8.604236-41.421878-59.014181-13.338164-96.053976-29.87493-27.124133-30.258762-46.059849-8.508278-75.167115-15.705129 62.78853 22.326232 75.646904 28.371587 80.57275 1.5993 1.503342 3.422503 2.782783 5.437621 3.742362l0.127944 0.063972c2.23902 1.375398 4.861873 2.654839 7.580684 3.742363l0.351846 0.127944c16.344849 6.333229 31.95402 30.162804 42.253514 45.100269 4.733929 6.813019 21.174736 10.107578 21.846442 1.215468a63.74811 63.74811 0 0 0 33.905167-3.742363l-0.447804 0.15993c-4.254139-26.580371-22.518148-63.620166-34.704817-88.409321a35.312551 35.312551 0 0 0 0.543762-34.896732l0.095958 0.191916c-3.038671-14.073843-7.388767-31.122384-7.388767-31.122384 5.949397-17.496345-3.966265-38.862997-12.474543-52.680952-5.405635 6.141313-5.405635 4.062223-13.338164 13.434122a51.881302 51.881302 0 0 0-20.854876-46.603611L792.517274 27.763853c-4.350097 9.467858-7.644655 9.467858-9.467858 20.151184l-0.671706-0.671706c-15.129381-30.83451-20.151184-41.997626-69.60155-47.275317 5.949397 8.188418 11.13113 17.528331 15.097395 27.507965l0.31986 0.863622c-31.858062-33.201474-92.759418-3.390517-128.039982 10.49141l1.567314-0.031986c10.587368 0 20.3431 3.550447 28.1157 9.563816l-0.095958-0.063972c-45.963891 8.028488-91.352033 73.855688-78.749548 122.0586a226.780783 226.780783 0 0 1 13.530081-11.546949 80.476791 80.476791 0 0 0-5.149747 42.893235l-0.063972-0.447804c-1.503342 10.107578-9.467858 22.42219-6.908977 34.225026 9.467858-14.553633 16.920597-15.705129 22.326232-21.654526a30.066846 30.066846 0 0 0-4.605985 12.602486v0.15993c-9.467858 26.388455-27.412007 78.109827-32.145936 86.234273 10.587368-1.11951 11.898794-10.587368 22.774036-14.009871-10.49141 18.90373-22.965952 69.697507-41.134004 77.534079 10.587368 2.175048 52.29712 4.733929 64.195915-4.637971-17.400387 30.258762-72.896108 15.225339-114.317986-1.983132-71.488724-24.021491-144.48079-18.072093-189.101268 33.009558-31.95402 24.405323-39.630662 97.205473-32.241895 138.723309 5.661523 31.47423 19.767352 60.613482 19.671394 92.471543 0 37.807459-23.349784 98.516899-39.438745 128.039983-14.841507 27.220091 26.292497 42.637346 53.41663 62.596614 65.059536 47.275317 143.329293 70.625102 143.905041 154.204535-3.486475-3.230587 10.587368 18.90373 5.949398 12.378585 6.908977 16.824639 53.608546 15.129381 97.30143 32.43381-7.644655-121.770725-178.801774-142.401699-222.110826-262.637096 66.179047-10.107578 126.21678-72.80015 145.408384-133.221716a179.761354 179.761354 0 0 0-3.518461-115.469482l0.415818 1.247454c14.361717 15.897045 25.428875 49.354407 17.784219 108.656463 53.128756-6.621103 183.535703 34.416943 181.360655-17.112513a44.396576 44.396576 0 0 0 58.086587 32.43381l-0.31986 0.095958a482.189042 482.189042 0 0 1 62.596614-8.604236l1.695258-0.095958a60.005747 60.005747 0 0 0 15.257325-0.031986l-0.31986 0.031986c10.875242 0 1.983132 104.658212-3.134628 119.595677-4.733929 6.813019-57.574811 61.82895-67.618417 59.11014a130.183045 130.183045 0 0 0-28.91535-3.198601c-7.420753 0-14.681577 0.607734-21.78247 1.75923l0.767664-0.095958c-1.11951 11.738864-18.90373 63.460236 5.853439 81.308428 44.428563-34.896733 58.726307-78.493659 146.847754-115.72537 10.203536-4.350097 17.400387-86.618105 27.412008-173.236209 3.774349-24.405323-26.868245-31.570188-63.076404-32.145937z" p-id="28962"></path></svg>
