<svg t="1721096044825" class="icon" viewBox="0 0 1024 1024" version="1.1" xmlns="http://www.w3.org/2000/svg" p-id="8398" width="256" height="256"><path d="M512 546.133333c20.48 0 34.133333-6.826667 47.786667-20.48 13.653333-13.653333 20.48-30.72 20.48-47.786666V71.68c0-17.066667-6.826667-34.133333-20.48-47.786667C546.133333 6.826667 529.066667 0 512 0c-17.066667 0-34.133333 6.826667-47.786667 20.48-13.653333 13.653333-20.48 30.72-20.48 51.2V477.866667c0 17.066667 6.826667 34.133333 20.48 47.786666 13.653333 13.653333 27.306667 20.48 47.786667 20.48z m464.213333-119.466666c-10.24-37.546667-23.893333-71.68-40.96-105.813334s-37.546667-64.853333-64.853333-92.16c-23.893333-30.72-51.2-54.613333-85.333333-78.506666-17.066667-10.24-34.133333-13.653333-51.2-10.24-17.066667 3.413333-34.133333 13.653333-44.373334 27.306666-10.24 17.066667-13.653333 34.133333-10.24 51.2 3.413333 17.066667 13.653333 34.133333 27.306667 44.373334 47.786667 30.72 81.92 71.68 109.226667 122.88 27.306667 51.2 37.546667 102.4 37.546666 157.013333 0 47.786667-10.24 92.16-27.306666 133.12-17.066667 40.96-40.96 78.506667-71.68 109.226667-30.72 30.72-68.266667 54.613333-109.226667 75.093333s-85.333333 27.306667-133.12 27.306667-92.16-10.24-133.12-27.306667c-40.96-17.066667-78.506667-44.373333-109.226667-75.093333-30.72-30.72-54.613333-68.266667-71.68-109.226667-20.48-40.96-27.306667-85.333333-27.306666-133.12 0-54.613333 13.653333-105.813333 34.133333-153.6 23.893333-47.786667 58.026667-88.746667 102.4-122.88 17.066667-10.24 23.893333-27.306667 27.306667-44.373333 3.413333-17.066667 0-34.133333-13.653334-51.2-10.24-13.653333-23.893333-23.893333-44.373333-27.306667-17.066667-3.413333-34.133333 0-51.2 13.653333C197.973333 180.906667 170.666667 204.8 146.773333 235.52c-23.893333 27.306667-44.373333 58.026667-61.44 92.16-17.066667 34.133333-30.72 68.266667-37.546666 102.4-10.24 37.546667-13.653333 75.093333-13.653334 112.64 0 64.853333 13.653333 129.706667 37.546667 187.733333 23.893333 58.026667 58.026667 109.226667 102.4 153.6 44.373333 44.373333 95.573333 78.506667 153.6 102.4 58.026667 23.893333 119.466667 37.546667 184.32 37.546667 64.853333 0 129.706667-13.653333 187.733333-37.546667 58.026667-23.893333 109.226667-58.026667 150.186667-102.4 44.373333-44.373333 78.506667-95.573333 102.4-153.6 23.893333-58.026667 37.546667-119.466667 37.546667-187.733333 0-40.96-3.413333-78.506667-13.653334-116.053333z" p-id="8399"></path></svg>
