<svg t="1720237696522" class="icon" viewBox="0 0 1024 1024" version="1.1" xmlns="http://www.w3.org/2000/svg" p-id="5415" width="128" height="128"><path d="M908.116713 64.004733 608.057753 64.004733c-28.615735 0-51.885717 23.277146-51.885717 51.890834L556.172035 416.014902c0 28.606525 23.271006 51.885717 51.885717 51.885717l300.05896 0c28.607548 0 51.875484-23.280216 51.875484-51.885717L959.992197 115.895567C959.992197 87.281879 936.723238 64.004733 908.116713 64.004733zM904.287501 412.128385 611.937107 412.128385 611.937107 119.786177l292.297183 0 0.055259 292.342208L904.287501 412.128385z" fill="#262435" p-id="5416"></path><path d="M415.950434 556.23548 115.892497 556.23548c-28.614711 0-51.884694 23.257703-51.884694 51.834552l0 300.117288c0 28.565593 23.269983 51.807946 51.884694 51.807946l300.05896 0c13.891382 0 26.955932-5.425569 36.777625-15.275915 9.769504-9.783831 15.123442-22.76447 15.106046-36.532031L467.835128 608.069009C467.835128 579.491137 444.556958 556.23548 415.950434 556.23548zM412.122245 904.299781 119.770827 904.299781 119.770827 611.956549l292.296159 0 0.057305 292.343231L412.122245 904.299781z" fill="#262435" p-id="5417"></path><path d="M415.951457 64.004733 115.892497 64.004733c-28.614711 0-51.884694 23.277146-51.884694 51.890834L64.007803 416.014902c0 28.606525 23.269983 51.885717 51.884694 51.885717l300.05896 0c13.862729 0 26.919093-5.425569 36.741809-15.275915 9.798157-9.806343 15.161305-22.815635 15.144932-36.610826L467.838198 115.895567C467.837174 87.281879 444.559005 64.004733 415.951457 64.004733zM412.122245 412.128385 119.770827 412.128385 119.770827 119.788224l292.351418 0L412.122245 412.128385z" fill="#262435" p-id="5418"></path><path d="M908.116713 556.23548 608.057753 556.23548c-28.615735 0-51.885717 23.257703-51.885717 51.834552l0 300.117288c0 28.565593 23.271006 51.807946 51.885717 51.807946l300.05896 0c28.607548 0 51.875484-23.242354 51.875484-51.807946L959.992197 608.069009C959.992197 579.491137 936.723238 556.23548 908.116713 556.23548zM904.287501 904.299781 611.937107 904.299781 611.937107 611.956549l292.297183 0 0.055259 292.343231L904.287501 904.299781z" fill="#262435" p-id="5419"></path></svg>
