<svg t="1719923412673" class="icon" viewBox="0 0 1024 1024" version="1.1" xmlns="http://www.w3.org/2000/svg" p-id="17331" width="128" height="128"><path d="M725.333333 98.133333H298.666667C187.733333 98.133333 93.866667 187.733333 93.866667 298.666667v426.666666c0 110.933333 89.6 204.8 204.8 204.8h426.666666c110.933333 0 204.8-89.6 204.8-204.8V298.666667c0-110.933333-93.866667-200.533333-204.8-200.533334zM861.866667 725.333333c0 76.8-64 136.533333-136.533334 136.533334H298.666667c-76.8 0-136.533333-64-136.533334-136.533334V298.666667c0-76.8 64-136.533333 136.533334-136.533334h426.666666c76.8 0 136.533333 64 136.533334 136.533334v426.666666z" fill="#515151" p-id="17332"></path><path d="M725.333333 422.4c-17.066667 0-34.133333 12.8-34.133333 34.133333v46.933334h-34.133333v-46.933334c0-17.066667-12.8-34.133333-34.133334-34.133333s-25.6 12.8-25.6 29.866667v46.933333h-115.2c-12.8-42.666667-55.466667-76.8-102.4-76.8-59.733333 0-110.933333 46.933333-110.933333 106.666667s46.933333 106.666667 110.933333 106.666666c46.933333 0 89.6-34.133333 102.4-76.8H725.333333c8.533333 0 17.066667-4.266667 21.333334-8.533333 4.266667-4.266667 8.533333-12.8 8.533333-21.333333v-76.8c0-17.066667-12.8-29.866667-29.866667-29.866667z m-345.6 153.6c-25.6 0-46.933333-21.333333-46.933333-42.666667s21.333333-42.666667 46.933333-42.666666 42.666667 21.333333 42.666667 42.666666-21.333333 42.666667-42.666667 42.666667z" fill="#515151" p-id="17333"></path></svg>
