<svg t="1720149281752" class="icon" viewBox="0 0 1024 1024" version="1.1" xmlns="http://www.w3.org/2000/svg" p-id="14198" width="128" height="128"><path d="M97.955601 787.348689a23.785202 23.785202 0 1 1 47.558957 0v55.965181l47.300753-27.969871a22.714232 22.714232 0 0 1 32.18761 9.122325c6.74126 10.887772 2.531152 26.283284-8.394777 32.584454l-47.869308 27.99531 47.868036 27.98259c10.927202 6.854463 15.136038 21.114136 8.394778 32.56156-6.717094 11.701811-20.691854 16.002226-32.187611 9.147763l-47.300753-27.971143v55.965181a23.785202 23.785202 0 1 1-47.558956 0v-55.965181L50.913051 954.727826a24.119721 24.119721 0 0 1-32.730727-9.147764 24.830733 24.830733 0 0 1 8.937894-32.561559l47.585667-27.972415-47.584395-27.992766c-10.901763-6.881173-15.086432-21.696683-8.937894-33.139019a23.730509 23.730509 0 0 1 32.729455-8.570304l47.04255 27.39114v-55.38645z m229.218118-531.847288v-49.694537a188.809985 188.809985 0 0 1 54.300216-133.132261v-0.268378c33.579108-34.007751 79.773277-55.124431 130.716855-55.124432 50.631953 0 96.847745 21.114136 130.43067 55.125703l1.93843 2.557864a190.369378 190.369378 0 0 1 52.04889 130.841504v49.694537a87.916211 87.916211 0 0 1 36.122981 22.566687l2.816066 3.137866a93.043385 93.043385 0 0 1 24.076475 62.848898v165.665839a92.057635 92.057635 0 0 1-26.892541 65.11676 86.929189 86.929189 0 0 1-63.807938 27.416578H355.149949a88.563627 88.563627 0 0 1-64.091579-27.416578v-0.264563l-0.568555-0.890355a91.168551 91.168551 0 0 1-25.729992-63.956754V344.054852c0-25.993283 9.793907-49.139973 26.298547-65.696762a89.579903 89.579903 0 0 1 36.115349-22.856689z m290.519069-4.561162v-45.133375c0-29.127333-10.901763-55.414432-29.398255-74.264522l-1.653517-2.289485a103.901902 103.901902 0 0 0-74.450226-31.407914 105.0441 105.0441 0 0 0-75.020052 31.404098h-0.283642a110.688952 110.688952 0 0 0-30.509927 76.557823v45.133375h211.315619z m51.227219 80.538983H355.149949a11.485581 11.485581 0 0 0-8.111135 3.137866 13.824672 13.824672 0 0 0-3.926466 9.437764v165.665839a13.505416 13.505416 0 0 0 3.926466 8.56776 13.310809 13.310809 0 0 0 8.111135 3.426596h313.770058a11.284616 11.284616 0 0 0 8.112407-4.006599 10.64356 10.64356 0 0 0 3.641553-7.987757V344.054852a13.467258 13.467258 0 0 0-2.505714-8.56776l-1.135839-0.580003a10.635928 10.635928 0 0 0-8.112407-3.427867z m328.029732 581.549456a24.444065 24.444065 0 0 1 8.67969 32.56156c-6.715822 11.701811-21.002206 16.002226-32.472524 9.147763l-47.299481-27.971143v55.965181a23.912395 23.912395 0 0 1-23.509192 23.989983 24.148975 24.148975 0 0 1-23.791561-23.991255v-55.965181l-47.584395 27.971143a23.553709 23.553709 0 0 1-32.188883-9.147763 24.309239 24.309239 0 0 1 8.937894-32.56156l47.611106-27.981318-47.611106-27.997854c-11.159966-6.881173-15.370074-21.696683-8.937894-33.139018 6.717094-11.447423 20.976767-15.422223 32.188883-8.567761l47.584395 27.39114v-55.383906a23.658008 23.658008 0 1 1 47.300753 0v55.965181l47.299481-27.969871c11.470318-6.854463 25.756703-2.873303 32.472524 9.122325 6.43218 10.887772 2.247511 26.283284-8.67969 32.584454l-47.584395 27.99531 47.584395 27.98259z m-260.010414 0a23.608403 23.608403 0 0 1 8.394777 32.56156 23.332393 23.332393 0 0 1-32.471252 9.147763l-47.326192-27.971143v55.965181c0 13.128923-10.048294 23.989984-23.482481 23.989983a24.150247 24.150247 0 0 1-23.79665-23.991255v-55.965181l-47.584395 27.971143a22.939364 22.939364 0 0 1-31.645766-9.147763 23.658008 23.658008 0 0 1 8.394778-32.56156l47.589482-27.981318-47.584395-27.997854a24.338494 24.338494 0 0 1-8.394777-33.139018 22.990242 22.990242 0 0 1 32.187611-8.567761l47.037462 27.396228v-55.388994a23.773754 23.773754 0 0 1 23.792834-23.989983c13.432915 0 23.482481 10.28233 23.482481 23.989983v55.965181l47.611105-27.969871a22.841425 22.841425 0 0 1 32.187611 9.122325c6.148538 10.887772 3.074269 26.283284-8.679691 32.584454l-47.038734 27.99531 47.326192 27.98259z m-260.295328 0a23.664368 23.664368 0 0 1 8.649164 32.56156c-6.717094 11.701811-20.976767 16.002226-32.447085 9.147763l-47.01584-27.971143v55.965181a24.207485 24.207485 0 0 1-24.076475 23.989983 23.889501 23.889501 0 0 1-23.502832-23.991255v-55.965181l-47.585667 27.96224a23.328577 23.328577 0 0 1-31.925592-9.147764 24.058668 24.058668 0 0 1 8.14039-32.561559l47.836239-27.972415-47.842598-27.997854a24.474591 24.474591 0 0 1-8.14039-33.139018c6.74126-11.447423 21.312558-15.422223 32.472524-8.567761l47.04255 27.39114v-55.383906a23.521911 23.521911 0 0 1 23.50792-23.989983 23.836079 23.836079 0 0 1 24.076475 23.989983v55.965181l47.5615-27.969871c10.927202-6.854463 25.184331-2.873303 31.903969 9.122325 6.173977 10.887772 2.816066 26.283284-8.649164 32.584454l-47.616194 27.99531 47.611106 27.98259z" fill="#515151" p-id="14199"></path></svg>
