<svg t="1721022409620" class="icon" viewBox="0 0 1024 1024" version="1.1" xmlns="http://www.w3.org/2000/svg" p-id="11847" width="256" height="256"><path d="M770.016 896l-116-202.016q0-54.016-28.992-88t-72.992-34.016q-28 0-52 15.008t-36 39.008q22.016-12 48-12 42.016 0 71.008 28.992t28.992 71.008-28.992 72-71.008 30.016h140V896H290.016q-18.016 0-28.992-12t-11.008-28.992 12-28.992l20-20q-16-8-38.016-26.016-8 16-23.008 26.016t-32.992 10.016q-24 0-42.016-18.016t-18.016-43.008 18.016-43.008 42.016-18.016l20 4v-84q0-84 59.008-144t143.008-60h2.016q28 2.016 76 8t62.016 4q22.016-6.016 22.016-32t6.016-44q6.016-14.016 18.016-32-50.016-24-104-24-18.016 0-28.992-12t-11.008-27.008 8-26.016 20-15.008l-28-2.016q-18.016 0-30.016-11.008t-12-28 12-28.992 30.016-12h40q66.016 0 122.016 32.992t88 88.992h12q44 0 82.016 26.016l18.016 16q58.016 50.016 76 98.016 8 26.016 6.016 42.016 0 40-28.992 68.992t-71.008 28.992l-22.016-2.016v4q0 70.016-52 120l142.016 244h-94.016z m4-565.984q-16 0-28 12t-12 28.992 12 28 28.992 11.008 28.992-11.008 12-28-12-28.992-30.016-12z" p-id="11848"></path></svg>
