<svg t="1719594261884" class="icon" viewBox="0 0 1024 1024" version="1.1" xmlns="http://www.w3.org/2000/svg" p-id="4189" width="128" height="128"><path d="M128 512a384 384 0 1 0 768 0 384 384 0 0 0-768 0z m384 469.333333C252.8 981.333333 42.666667 771.2 42.666667 512S252.8 42.666667 512 42.666667s469.333333 210.133333 469.333333 469.333333-210.133333 469.333333-469.333333 469.333333z m-294.997333-341.333333L384 473.002667l60.330667 60.330666-64 64H597.333333v85.333334H380.330667l64 64L384 806.997333 217.002667 640zM426.666667 341.333333h217.002666l-64-64L640 217.002667 806.997333 384 640 550.997333 579.669333 490.666667l64-64H426.666667V341.333333z" p-id="4190"></path></svg>
