<svg t="1720149732663" class="icon" viewBox="0 0 1024 1024" version="1.1" xmlns="http://www.w3.org/2000/svg" p-id="16883" width="128" height="128"><path d="M981.6 192c0-12-9.6-21.6-21.6-21.6H753.6L707.2 59.2C693.6 26.4 653.6 0 618.4 0H405.6c-35.2 0-75.2 26.4-88.8 59.2l-46.4 111.2H64c-12 0-21.6 9.6-21.6 21.6v42.4C42.4 246.4 52 256 64 256h64v634.4c0 73.6 48 133.6 106.4 133.6h554.4c58.4 0 106.4-62.4 106.4-136V256h64c12 0 21.6-9.6 21.6-21.6l0.8-42.4zM395.2 92.8c1.6-2.4 7.2-6.4 11.2-7.2h211.2c3.2 0.8 9.6 4.8 11.2 7.2l32 77.6H362.4l32.8-77.6z m394.4 845.6H234.4c-3.2 0-21.6-18.4-21.6-50.4V256h597.6v632c0 32-17.6 50.4-20.8 50.4z" fill="#515151" p-id="16884"></path><path d="M705.504 635.296c0 0.504 0 1.304-0.304 1.8C683.096 729.296 607 793.6 510.896 793.6c-50.8 0-100-20.104-136.992-55.2l-33.6 33.6a16.584 16.584 0 0 1-11.704 4.904 16.864 16.864 0 0 1-16.696-16.704V643.696c0-9.096 7.6-16.696 16.696-16.696h116.704c9.096 0 16.696 7.6 16.696 16.696 0 4.4-1.8 8.608-4.904 11.704l-35.696 35.704A133.088 133.088 0 0 0 512 727c46.4 0 89.296-24 113.504-63.496 6.192-10.2 9.392-20.104 13.792-30.504 1.304-3.6 3.904-6 7.8-6h50c4.704 0 8.4 3.896 8.4 8.296zM712 427v116.704c0 9.096-7.6 16.696-16.696 16.696H578.696a16.864 16.864 0 0 1-16.704-16.696c0-4.4 1.8-8.6 4.904-11.704l35.896-35.896a134 134 0 0 0-90.904-35.704c-46.4 0-89.296 24-113.496 63.504-6.2 10.2-9.4 20.096-13.8 30.496-1.304 3.6-3.904 6-7.8 6h-51.8a8.344 8.344 0 0 1-8.304-8.296v-1.8c22.4-92.4 99.2-156.504 195.304-156.504 51 0 100.8 20.304 137.8 55.2l33.896-33.6a16.584 16.584 0 0 1 11.704-4.896c9-0.208 16.6 7.392 16.6 16.496z" fill="#515151" p-id="16885"></path></svg>
