<svg t="1720257976709" class="icon" viewBox="0 0 1024 1024" version="1.1" xmlns="http://www.w3.org/2000/svg" p-id="19272" width="128" height="128"><path d="M257.536 667.648c4.608-4.608 10.752-7.168 17.408-7.168h602.112c10.752 0 16.384 13.312 8.704 20.992l-118.784 118.784c-4.608 4.608-10.752 7.168-17.408 7.168H146.944c-10.752 0-16.384-13.312-8.704-20.992l119.296-118.784z" fill="#C931F7" p-id="19273"></path><path d="M257.536 223.744c4.608-4.608 10.752-7.168 17.408-7.168h602.112c10.752 0 16.384 13.312 8.704 20.992l-118.784 118.784c-4.608 4.608-10.752 7.168-17.408 7.168H146.944c-10.752 0-16.384-13.312-8.704-20.992l119.296-118.784z" fill="#1CE2AF" p-id="19274"></path><path d="M766.464 444.416c-4.608-4.608-10.752-7.168-17.408-7.168H146.944c-10.752 0-16.384 13.312-8.704 20.992l118.784 118.784c4.608 4.608 10.752 7.168 17.408 7.168h602.112c10.752 0 16.384-13.312 8.704-20.992l-118.784-118.784z" fill="#6697CE" p-id="19275"></path></svg>
