<?xml version="1.0" standalone="no"?><!DOCTYPE svg PUBLIC "-//W3C//DTD SVG 1.1//EN" "http://www.w3.org/Graphics/SVG/1.1/DTD/svg11.dtd"><svg t="1724080397093" class="icon" viewBox="0 0 1024 1024" version="1.1" xmlns="http://www.w3.org/2000/svg" p-id="7574" xmlns:xlink="http://www.w3.org/1999/xlink" width="256" height="256"><path d="M695.232 435.84l-146.016-196.672 39.36-29.12 146.08 196.672z m16.16 323.424H270.56v-196.16H319.36v146.912h342.72v-146.944h48.8v196.192zM368.64 661.184h245.056v-48.832H368.64z m14.816-159.488l239.648 50.176-9.856 47.936-239.68-50.176z m42.528-111.104l222.208 103.488-21.056 44.352-221.76-103.488z m72.16-102.144l188.16 156.8-31.392 37.632-188.16-156.8zM512 64C264.736 64 64 264.704 64 512c0 247.264 200.736 448 448 448 247.296 0 448-200.736 448-448 0-247.296-200.224-448-448-448z" fill="#181818" p-id="7575"></path></svg>