<?xml version="1.0" standalone="no"?><!DOCTYPE svg PUBLIC "-//W3C//DTD SVG 1.1//EN" "http://www.w3.org/Graphics/SVG/1.1/DTD/svg11.dtd"><svg t="1724493928396" class="icon" viewBox="0 0 1024 1024" version="1.1" xmlns="http://www.w3.org/2000/svg" p-id="6997" xmlns:xlink="http://www.w3.org/1999/xlink" width="256" height="256"><path d="M458.154667 169.173333a64 64 0 0 1 107.690666 0l92.672 144.298667a64 64 0 0 0 37.589334 27.306667l165.845333 43.52a64 64 0 0 1 33.28 102.442666l-108.544 132.736a64 64 0 0 0-14.378667 44.202667l9.813334 171.221333a64 64 0 0 1-87.125334 63.274667l-159.786666-62.250667a64 64 0 0 0-46.464 0l-159.786667 62.293334a64 64 0 0 1-87.125333-63.317334l9.813333-171.221333a64 64 0 0 0-14.336-44.202667l-108.586667-132.693333a64 64 0 0 1 33.28-102.442667l165.845334-43.562666a64 64 0 0 0 37.589333-27.306667l92.714667-144.298667z" fill="#000000" p-id="6998"></path></svg>