<svg xmlns="http://www.w3.org/2000/svg" xmlns:xlink="http://www.w3.org/1999/xlink" width="20" height="20" viewBox="0 0 20 20" fill="none">
<path d="M10 20C15.5228 20 20 15.5228 20 10C20 4.47715 15.5228 0 10 0C4.47715 0 0 4.47715 0 10C0 15.5228 4.47715 20 10 20ZM14.7643 13.6195C14.9214 13.4624 15 13.2716 15 13.0471C15 12.8226 14.9214 12.6318 14.7643 12.4747L12.2896 9.99998L14.7643 7.52524C14.9214 7.36811 15 7.17731 15 6.95285C15 6.72838 14.9214 6.53759 14.7643 6.38046L13.6195 5.23569C13.4624 5.07856 13.2716 5 13.0471 5C12.8227 5 12.6319 5.07856 12.4747 5.23569L10 7.71043L7.52526 5.23569C7.36812 5.07856 7.17733 5 6.95287 5C6.7284 5 6.53761 5.07856 6.38048 5.23569L5.23569 6.38046C5.07856 6.53759 5 6.72838 5 6.95285C5 7.17731 5.07856 7.36811 5.23569 7.52524L7.71043 9.99998L5.23569 12.4747C5.07856 12.6318 5 12.8226 5 13.0471C5 13.2716 5.07856 13.4624 5.23569 13.6195L6.38048 14.7643C6.53761 14.9214 6.7284 15 6.95287 15C7.17733 15 7.36812 14.9214 7.52526 14.7643L10 12.2895L12.4747 14.7643C12.6319 14.9214 12.8227 15 13.0471 15C13.2716 15 13.4624 14.9214 13.6195 14.7643L14.7643 13.6195Z" fill-rule="evenodd"  fill="#00BAAD" >
</path>
</svg>
