<svg xmlns="http://www.w3.org/2000/svg" xmlns:xlink="http://www.w3.org/1999/xlink" width="20" height="20" viewBox="0 0 20 20" fill="none">
<path d="M10 20C9.83635 20 9.67277 19.9959 9.50932 19.9879C9.34586 19.9799 9.1827 19.968 9.01982 19.9518C8.85695 19.9357 8.69459 19.9158 8.5327 19.8918C8.3708 19.8678 8.20961 19.8396 8.0491 19.8078C7.88857 19.776 7.72895 19.74 7.5702 19.7004C7.41145 19.6605 7.25377 19.6168 7.09715 19.5693C6.94055 19.5219 6.7852 19.4706 6.63109 19.4154C6.47701 19.3603 6.32436 19.3014 6.17316 19.2388C6.02197 19.1762 5.8724 19.1099 5.72445 19.0399C5.5765 18.9699 5.43037 18.8964 5.28604 18.8192C5.1417 18.7421 4.99934 18.6614 4.85896 18.5773C4.71859 18.4931 4.58037 18.4056 4.4443 18.3147C4.30822 18.2238 4.17445 18.1296 4.04301 18.0321C3.91156 17.9346 3.78258 17.8339 3.65607 17.7301C3.52957 17.6263 3.40568 17.5194 3.28441 17.4095C3.16314 17.2996 3.04465 17.1868 2.92893 17.0711C2.8132 16.9554 2.70039 16.8369 2.59049 16.7156C2.48059 16.5943 2.37371 16.4704 2.2699 16.3439C2.16607 16.2174 2.06541 16.0884 1.96793 15.957C1.87044 15.8255 1.77623 15.6918 1.6853 15.5557C1.59438 15.4196 1.50685 15.2814 1.42271 15.141C1.33858 15.0006 1.25793 14.8583 1.18079 14.714C1.10364 14.5696 1.03008 14.4235 0.960107 14.2755C0.890135 14.1276 0.823834 13.978 0.761205 13.8268C0.698576 13.6756 0.639693 13.523 0.584559 13.3689C0.529424 13.2148 0.478104 13.0595 0.430596 12.9029C0.38309 12.7462 0.339453 12.5886 0.299688 12.4298C0.259922 12.2711 0.224074 12.1114 0.192147 11.9509C0.160219 11.7904 0.132248 11.6292 0.108235 11.4673C0.0842215 11.3054 0.0641939 11.143 0.0481527 10.9802C0.0321115 10.8173 0.0200758 10.6541 0.0120454 10.4907C0.00401514 10.3272 0 10.1637 0 10C0 9.83635 0.00401514 9.67277 0.0120454 9.50932C0.0200758 9.34586 0.0321115 9.1827 0.0481527 9.01982C0.0641939 8.85695 0.0842215 8.69459 0.108235 8.5327C0.132248 8.3708 0.160219 8.20961 0.192147 8.0491C0.224074 7.88857 0.259922 7.72895 0.299688 7.5702C0.339453 7.41145 0.38309 7.25377 0.430596 7.09715C0.478104 6.94055 0.529424 6.7852 0.584559 6.63109C0.639693 6.47701 0.698576 6.32436 0.761205 6.17316C0.823834 6.02197 0.890135 5.8724 0.960107 5.72445C1.03008 5.5765 1.10364 5.43037 1.18079 5.28604C1.25793 5.1417 1.33858 4.99934 1.42271 4.85896C1.50685 4.71859 1.59438 4.58037 1.6853 4.4443C1.77623 4.30822 1.87044 4.17445 1.96793 4.04301C2.06541 3.91156 2.16607 3.78258 2.2699 3.65607C2.37371 3.52957 2.48059 3.40568 2.59049 3.28441C2.70039 3.16314 2.8132 3.04465 2.92893 2.92893C3.04465 2.8132 3.16314 2.70039 3.28441 2.59049C3.40568 2.48059 3.52957 2.37371 3.65607 2.2699C3.78258 2.16607 3.91156 2.06541 4.04301 1.96793C4.17445 1.87044 4.30822 1.77623 4.4443 1.6853C4.58037 1.59438 4.71859 1.50685 4.85896 1.42271C4.99934 1.33858 5.1417 1.25793 5.28604 1.18079C5.43037 1.10364 5.5765 1.03008 5.72445 0.960107C5.8724 0.890135 6.02197 0.823834 6.17316 0.761205C6.32436 0.698576 6.47701 0.639693 6.63109 0.584559C6.7852 0.529424 6.94055 0.478104 7.09715 0.430596C7.25377 0.38309 7.41145 0.339453 7.5702 0.299688C7.72895 0.259922 7.88857 0.224074 8.0491 0.192147C8.20961 0.160219 8.3708 0.132248 8.5327 0.108235C8.69459 0.0842215 8.85695 0.0641939 9.01982 0.0481527C9.1827 0.0321115 9.34586 0.0200758 9.50932 0.0120454C9.67277 0.00401514 9.83635 0 10 0C10.1637 0 10.3272 0.00401514 10.4907 0.0120454C10.6541 0.0200758 10.8173 0.0321115 10.9802 0.0481527C11.143 0.0641939 11.3054 0.0842215 11.4673 0.108235C11.6292 0.132248 11.7904 0.160219 11.9509 0.192147C12.1114 0.224074 12.2711 0.259922 12.4298 0.299688C12.5886 0.339453 12.7462 0.38309 12.9029 0.430596C13.0595 0.478104 13.2148 0.529424 13.3689 0.584559C13.523 0.639693 13.6756 0.698576 13.8268 0.761205C13.978 0.823834 14.1276 0.890135 14.2755 0.960107C14.4235 1.03008 14.5696 1.10364 14.714 1.18079C14.8583 1.25793 15.0006 1.33858 15.141 1.42271C15.2814 1.50685 15.4196 1.59438 15.5557 1.6853C15.6918 1.77623 15.8255 1.87044 15.957 1.96793C16.0884 2.06541 16.2174 2.16607 16.3439 2.2699C16.4704 2.37371 16.5943 2.48059 16.7156 2.59049C16.8369 2.70039 16.9554 2.8132 17.0711 2.92893C17.1868 3.04465 17.2996 3.16314 17.4095 3.28441C17.5194 3.40568 17.6263 3.52957 17.7301 3.65607C17.8339 3.78258 17.9346 3.91156 18.0321 4.04301C18.1296 4.17445 18.2238 4.30822 18.3147 4.4443C18.4056 4.58037 18.4931 4.71859 18.5773 4.85896C18.6614 4.99934 18.7421 5.1417 18.8192 5.28604C18.8964 5.43037 18.9699 5.5765 19.0399 5.72445C19.1099 5.8724 19.1762 6.02197 19.2388 6.17316C19.3014 6.32436 19.3603 6.47701 19.4154 6.63109C19.4706 6.7852 19.5219 6.94055 19.5693 7.09715C19.6168 7.25377 19.6605 7.41145 19.7004 7.5702C19.74 7.72895 19.776 7.88857 19.8078 8.0491C19.8396 8.20961 19.8678 8.3708 19.8918 8.5327C19.9158 8.69459 19.9357 8.85695 19.9518 9.01982C19.968 9.1827 19.9799 9.34586 19.9879 9.50932C19.9959 9.67277 20 9.83635 20 10C20 10.1637 19.9959 10.3272 19.9879 10.4907C19.9799 10.6541 19.968 10.8173 19.9518 10.9802C19.9357 11.143 19.9158 11.3054 19.8918 11.4673C19.8678 11.6292 19.8396 11.7904 19.8078 11.9509C19.776 12.1114 19.74 12.2711 19.7004 12.4298C19.6605 12.5886 19.6168 12.7462 19.5693 12.9029C19.5219 13.0595 19.4706 13.2148 19.4154 13.3689C19.3603 13.523 19.3014 13.6756 19.2388 13.8268C19.1762 13.978 19.1099 14.1276 19.0399 14.2755C18.9699 14.4235 18.8964 14.5696 18.8192 14.714C18.7421 14.8583 18.6614 15.0006 18.5773 15.141C18.4931 15.2814 18.4056 15.4196 18.3147 15.5557C18.2238 15.6918 18.1296 15.8255 18.0321 15.957C17.9346 16.0884 17.8339 16.2174 17.7301 16.3439C17.6263 16.4704 17.5194 16.5943 17.4095 16.7156C17.2996 16.8369 17.1868 16.9554 17.0711 17.0711C16.9554 17.1868 16.8369 17.2996 16.7156 17.4095C16.5943 17.5194 16.4704 17.6263 16.3439 17.7301C16.2174 17.8339 16.0884 17.9346 15.957 18.0321C15.8255 18.1296 15.6918 18.2238 15.5557 18.3147C15.4196 18.4056 15.2814 18.4931 15.141 18.5773C15.0006 18.6614 14.8583 18.7421 14.714 18.8192C14.5696 18.8964 14.4235 18.9699 14.2755 19.0399C14.1276 19.1099 13.978 19.1762 13.8268 19.2388C13.6756 19.3014 13.523 19.3603 13.3689 19.4154C13.2148 19.4706 13.0595 19.5219 12.9029 19.5693C12.7462 19.6168 12.5886 19.6605 12.4298 19.7004C12.2711 19.74 12.1114 19.776 11.9509 19.8078C11.7904 19.8396 11.6292 19.8678 11.4673 19.8918C11.3054 19.9158 11.143 19.9357 10.9802 19.9518C10.8173 19.968 10.6541 19.9799 10.4907 19.9879C10.3272 19.9959 10.1637 20 10 20ZM3.75 8.75L3.75 11.25L16.25 11.25L16.25 8.75L3.75 8.75Z"   fill="#2A82E4" >
</path>
</svg>
