<?xml version="1.0" standalone="no"?><!DOCTYPE svg PUBLIC "-//W3C//DTD SVG 1.1//EN" "http://www.w3.org/Graphics/SVG/1.1/DTD/svg11.dtd"><svg t="1724053411586" class="icon" viewBox="0 0 1024 1024" version="1.1" xmlns="http://www.w3.org/2000/svg" p-id="24238" xmlns:xlink="http://www.w3.org/1999/xlink" width="256" height="256"><path d="M507.84 191.04a316.8 316.8 0 1 0 316.8 316.8 316.96 316.96 0 0 0-316.8-316.8z m176 348.8v64h-352v-192h64v128h224v-128h64zM959.04 576A452.8 452.8 0 0 1 576 959.04V1024a517.28 517.28 0 0 0 448-448zM576 64.96A452.8 452.8 0 0 1 959.04 448H1024A517.28 517.28 0 0 0 576 0z" fill="#909090" p-id="24239"></path><path d="M64.96 448A452.8 452.8 0 0 1 448 64.96V0A517.28 517.28 0 0 0 0 448zM448 959.04A452.8 452.8 0 0 1 64.96 576H0a517.28 517.28 0 0 0 448 448z" fill="#909090" p-id="24240"></path></svg>