<svg t="1720027939118" class="icon" viewBox="0 0 1024 1024" version="1.1" xmlns="http://www.w3.org/2000/svg" p-id="18978" width="128" height="128"><path d="M512 0C229.216 0 0 229.248 0 512c0 282.784 229.216 512 512 512 282.752 0 512-229.216 512-512 0-282.752-229.248-512-512-512z m292.608 357.024l-320 384c-12.128 14.56-30.08 23.008-49.024 23.072h-0.128a63.936 63.936 0 0 1-48.992-22.88l-167.52-199.488a64 64 0 1 1 97.952-82.368l118.336 140.96 271.04-325.248a64.032 64.032 0 0 1 98.336 81.952z" fill="#575757" p-id="18979"></path></svg>
