<svg t="1720259524796" class="icon" viewBox="0 0 1024 1024" version="1.1" xmlns="http://www.w3.org/2000/svg" p-id="62626" width="128" height="128"><path d="M512 512m-512 0a512 512 0 1 0 1024 0 512 512 0 1 0-1024 0Z" fill="#909090" p-id="62627"></path><path d="M512 512m-472 0a472 472 0 1 0 944 0 472 472 0 1 0-944 0Z" fill="#FFFFFF" p-id="62628"></path><path d="M628 232S372.572 179.44 168 316c0 107.44 19.292 252.16 168 256 65.764 1.72 111.504-31.72 136-72 24.884-40.92 28-88.8 28-96 0-14.28 3.428-124 128-172z" fill="#FCA839" p-id="62629"></path><path d="M701.5 750.6s173.072-195.08 156.872-440.52c-93.08-53.64-228.112-109.16-305.688 17.76-34.304 56.12-28.188 112.44-5.512 153.8 23.036 41.96 62.964 68.56 69.2 72.16 12.38 7.16 105.728 64.88 85.128 196.8z" fill="#60AFDD" p-id="62630"></path><path d="M210.4 556.4s87.58 245.6 310.468 349.64c91.836-55.72 205.552-147.32 131.688-276.44-32.668-57.08-84.96-78.88-132.112-78.88-47.896-0.04-90.44 22.12-96.596 25.84-12.196 7.44-107.768 61.4-213.448-20.16z" fill="#00BCAD" p-id="62631"></path></svg>
