<svg t="1721022366627" class="icon" viewBox="0 0 1024 1024" version="1.1" xmlns="http://www.w3.org/2000/svg" p-id="10627" width="256" height="256"><path d="M203.008 396.16q81.92 76.608 202.752 70.72 120.832-5.888 188.608-74.24-43.008-103.744-191.04-103.744-147.968 0-200.32 107.264z m-10.88 20.8Q142.528 558.72 60.608 588.8q2.304 25.344 26.56 24.192c24.192-1.152 65.728-6.848 98.56 0q32.896 6.848 33.472 10.368Q304.64 506.24 298.24 485.504c-16.128-11.52-75.52-28.8-106.048-68.544z m143.36 78.208q56 12.992 135.68 1.856Q481.792 603.008 540.8 640q-86.72 52.608-161.984 48.192-75.328-4.48-131.2-51.52 72.64-75.648 87.872-141.568zM503.68 482.56q24.448 102.272 65.92 134.144 75.648-15.552 129.088-12.608-63.04-143.04-93.44-183.808s-28.8 24.32-101.568 62.272z m-421.056 199.36q24.768-43.712 96.896-32.64 56.512 10.432 84.736 32.64-43.648 55.552-104.448 53.12c-55.616-2.24-72-31.68-77.184-53.12z m630.08-2.752q-24.768-43.776-96.896-32.64-56.576 10.368-84.736 32.64 43.648 55.488 104.448 53.12c55.616-2.304 72-31.744 77.184-53.12z m206.784-310.656c-80-51.968-158.592-29.76-186.048 35.456-27.392 65.28-17.92 65.024-43.904 100.608l38.4 86.528q33.728-7.744 47.04-21.12c13.376-13.312 51.84-33.28 117.12-22.592 65.28 10.752 107.52-126.848 27.392-178.88z m-75.2 99.2a32.256 32.256 0 1 1 0-64.512 32.256 32.256 0 0 1 0 64.512z" p-id="10628"></path></svg>
