<svg t="1720258464648" class="icon" viewBox="0 0 1024 1024" version="1.1" xmlns="http://www.w3.org/2000/svg" p-id="21330" width="128" height="128"><path d="M512 512m-512 0a512 512 0 1 0 1024 0 512 512 0 1 0-1024 0Z" fill="#2775CA" p-id="21331"></path><path d="M637.724444 153.884444c11.377778 3.470222 96.483556 36.807111 157.525334 104.334223 61.041778 67.470222 91.648 145.237333 99.157333 217.884444 7.395556 72.704-2.161778 161.28-50.631111 239.388445-48.526222 78.165333-98.417778 111.160889-125.269333 128.739555-26.794667 17.521778-64.568889 33.223111-78.677334 38.172445-14.165333 5.006222-18.033778 7.281778-24.177777 2.901333-6.144-4.437333-7.623111-7.623111-7.623112-13.767111v-33.962667c0-4.835556 2.503111-14.336 16.099556-19.626667 13.596444-5.233778 38.456889-14.506667 70.826667-37.432888 32.426667-22.869333 55.068444-44.657778 85.504-89.144889 30.435556-44.487111 46.990222-111.729778 49.152-144.497778 2.161778-32.824889 3.299556-84.992-22.072889-147.569778-25.372444-62.577778-60.074667-96.426667-86.357334-120.604444a287.516444 287.516444 0 0 0-70.542222-46.421334c-16.042667-7.793778-26.453333-11.150222-29.980444-12.743111a26.168889 26.168889 0 0 1-12.629334-21.788444V170.666667c0-4.949333-1.137778-10.24 4.778667-16.725334 5.859556-6.485333 13.482667-3.527111 24.917333 0z m-251.335111 0c11.377778-3.527111 19.000889-6.485333 24.860445 0 5.916444 6.428444 4.778667 11.776 4.778666 16.725334v27.136a26.168889 26.168889 0 0 1-12.572444 21.788444c-3.584 1.592889-13.994667 4.949333-30.037333 12.743111-16.099556 7.736889-44.316444 22.186667-70.542223 46.421334-26.225778 24.177778-60.984889 58.026667-86.357333 120.604444-25.372444 62.577778-24.234667 114.744889-22.072889 147.569778 2.161778 32.768 18.773333 100.010667 49.152 144.497778 30.435556 44.487111 53.134222 66.275556 85.504 89.144889 32.426667 22.926222 57.287111 32.199111 70.883556 37.432888 13.596444 5.290667 16.042667 14.791111 16.042666 19.626667v33.962667c0 6.144-1.479111 9.329778-7.623111 13.767111-6.144 4.380444-10.012444 2.104889-24.177777-2.844445-14.108444-5.006222-51.825778-20.707556-78.677334-38.229333-26.737778-17.635556-76.743111-50.574222-125.212444-128.739555-48.469333-78.108444-58.140444-166.684444-50.631111-239.388445 7.395556-72.647111 38.058667-150.414222 99.100444-217.884444 61.098667-67.527111 146.090667-100.864 157.582222-104.334223z m140.060445 106.268445c14.506667 0 17.806222 13.596444 17.806222 18.659555v48.924445c4.835556 0.796444 10.012444 1.877333 15.530667 3.072 31.857778 6.940444 52.451556 29.809778 62.008889 41.756444 9.500444 11.946667 16.611556 31.402667 18.261333 43.064889a14.677333 14.677333 0 0 1-14.392889 17.408h-34.816c-6.030222 0-12.686222-4.323556-14.336-9.102222-1.706667-4.835556-3.982222-14.506667-11.036444-23.04a54.784 54.784 0 0 0-29.297778-19.456 118.328889 118.328889 0 0 0-54.044445-1.479111c-22.812444 4.892444-37.944889 20.024889-39.992889 38.912-2.104889 18.944 1.934222 28.785778 6.599112 35.214222 4.721778 6.428444 12.003556 16.099556 40.504888 22.926222 28.444444 6.826667 70.940444 7.623111 107.690667 23.495111 36.750222 15.928889 49.607111 41.756444 54.613333 72.362667a112.810667 112.810667 0 0 1-17.863111 81.749333c-15.303111 22.869333-49.322667 46.648889-86.528 51.484445a315.904 315.904 0 0 1-2.958222 0.341333l0.056889 50.176c0 5.12-3.299556 18.659556-17.806222 18.659556h-32.824889c-10.808889 0-15.815111-13.596444-15.815111-18.659556v-50.858666a245.134222 245.134222 0 0 1-21.788445-4.494223c-26.055111-6.542222-54.613333-24.064-67.982222-43.804444a131.072 131.072 0 0 1-20.935111-52.906667c-1.479111-11.946667 7.395556-17.806222 13.596444-17.806222h38.456889c3.015111 0 12.344889 2.104889 14.620445 15.075556 2.275556 12.913778 6.485333 22.926222 14.961778 31.573333 8.533333 8.647111 23.495111 19.854222 52.906666 21.219555 29.411556 1.422222 43.52-2.958222 58.140445-11.832888 14.677333-8.874667 26.908444-27.192889 24.576-52.508445-2.332444-25.258667-18.887111-35.441778-48.184889-43.690667-29.354667-8.248889-54.044444-9.614222-69.063111-13.084444-15.018667-3.584-50.972444-12.686222-69.404445-32.995556-18.488889-20.252444-24.462222-40.846222-24.462222-71.850666 0-31.061333 15.075556-54.044444 29.866667-68.266667a126.464 126.464 0 0 1 74.808889-33.905778L477.866667 278.755556c0-5.12 5.006222-18.659556 15.815111-18.659556z" fill="#FFFFFF" p-id="21332"></path></svg>
