<svg t="1724767316140" class="icon" viewBox="0 0 1024 1024" version="1.1" xmlns="http://www.w3.org/2000/svg" p-id="910" width="256" height="256"><path d="M766.41792 778.126222H663.335253a37.774222 37.774222 0 0 1 0-75.491555h102.968889a182.954667 182.954667 0 0 0 182.613334-182.897778 182.954667 182.954667 0 0 0-153.998223-180.736l-22.471111-3.527111-7.395555-21.504A267.491556 267.491556 0 0 0 512.409031 133.12h-0.056889a267.434667 267.434667 0 0 0-252.928 180.849778l-7.395555 21.504-22.414223 3.527111a182.954667 182.954667 0 0 0 28.615112 363.633778H354.997476a37.717333 37.717333 0 0 1 0 75.491555H258.172587A258.446222 258.446222 0 0 1 0.238364 519.736889a255.658667 255.658667 0 0 1 195.697778-250.88 345.258667 345.258667 0 0 1 186.197334-185.514667 339.911111 339.911111 0 0 1 262.257777 0.853334 340.935111 340.935111 0 0 1 184.263111 184.661333 255.658667 255.658667 0 0 1 195.640889 250.88 258.446222 258.446222 0 0 1-257.877333 258.389333zM356.647253 371.882667a31.744 31.744 0 0 1 40.106667 20.195555l1.706667 5.12c39.765333-28.728889 74.126222-40.277333 74.126222-40.277333 50.801778-20.593778 78.279111 28.444444 78.279111 28.444444 46.990222 66.332444 95.232 58.424889 95.232 58.424889 58.254222 1.365333 86.869333-28.103111 86.869333-28.103111l1.479111-0.910222c13.425778-5.688889 10.126222 4.835556 10.353778 12.231111-0.398222 5.233778-0.056889 15.132444-8.021333 31.857778-7.964444 16.725333-12.174222 30.492444-31.459556 58.709333-19.228444 28.273778-20.536889 35.100444-51.882666 63.317333-31.288889 28.216889-66.104889-3.185778-66.104889-3.185777a98.190222 98.190222 0 0 0-31.459556-18.659556c-37.660444-8.931556-74.695111 18.773333-92.501333 34.929778l109.397333 331.320889a31.687111 31.687111 0 1 1-60.245333 19.968L336.508587 412.103111a31.857778 31.857778 0 0 1 20.138666-40.220444z" fill="#666666" p-id="911"></path></svg>
