<svg t="1724902699839" class="icon" viewBox="0 0 1024 1024" version="1.1" xmlns="http://www.w3.org/2000/svg" p-id="4453" width="256" height="256"><path d="M540.842667 959.424L512 985.92l-28.842667-26.496a747.306667 747.306667 0 0 1-14.677333-13.973333 1596.373333 1596.373333 0 0 1-150.4-169.706667c-73.386667-96.064-127.061333-191.125333-152.597333-282.026667C154.88 455.914667 149.333333 419.285333 149.333333 384 149.333333 180.544 294.250667 21.333333 512 21.333333s362.666667 159.210667 362.666667 362.666667c0 35.306667-5.546667 71.936-16.149334 109.696-25.536 90.922667-79.210667 185.984-152.618666 282.069333a1596.373333 1596.373333 0 0 1-150.4 169.685334 747.306667 747.306667 0 0 1-14.656 13.973333z m-9.706667-110.677333a1512.021333 1512.021333 0 0 0 106.965333-124.8c67.413333-88.234667 116.138667-174.506667 138.24-253.312 8.597333-30.592 12.992-59.52 12.992-86.634667 0-158.016-108.586667-277.333333-277.333333-277.333333s-277.333333 119.317333-277.333333 277.333333c0 27.093333 4.394667 56.042667 12.970666 86.634667 22.122667 78.805333 70.848 165.077333 138.261334 253.312A1512.021333 1512.021333 0 0 0 512 868.437333c6.101333-6.165333 12.48-12.736 19.136-19.690666zM512 533.333333a170.666667 170.666667 0 1 1 0-341.333333 170.666667 170.666667 0 0 1 0 341.333333z m0-85.333333a85.333333 85.333333 0 1 0 0-170.666667 85.333333 85.333333 0 0 0 0 170.666667z" fill="#000000" p-id="4454"></path></svg>
