<svg t="1724839867926" class="icon" viewBox="0 0 1024 1024" version="1.1" xmlns="http://www.w3.org/2000/svg" p-id="3239" width="256" height="256"><path d="M475.081808 991.710695c-19.192944 0-37.48269-7.451378-51.03065-21.225138l-370.310915-370.310915a72.097729 72.097729 0 0 1 0-102.061301L490.436163 61.191621c18.515546-18.515546 43.127674-28.676516 69.320397-28.676516h338.02161c51.708049 0 93.932525 41.998677 93.932525 93.932525v338.021609c0 26.192723-10.16097 50.804851-28.676516 69.320397L526.112459 970.485557c-13.54796 13.77376-31.837707 21.225138-51.030651 21.225138z m84.674752-891.681588c-8.128776 0-15.805954 3.161191-21.450937 8.806174L101.383903 545.9828c-1.806395 1.806395-1.806395 4.515987 0 6.322382l370.310915 370.310915c1.580595 1.580595 4.967585 1.580595 6.322382 0l436.92172-436.92172c5.644983-5.644983 8.806174-13.54796 8.806174-21.450937V126.22183c0-14.451158-11.741566-26.192723-26.192724-26.192723H559.75656z" fill="#919191" p-id="3240"></path><path d="M713.074311 447.30849c-75.19118 0-136.3828-61.191621-136.382801-136.157002 0-75.19118 61.191621-136.157001 136.382801-136.157001s136.157001 61.191621 136.157001 136.157001c0 74.96538-60.965821 136.157001-136.157001 136.157002z m0-204.8c-37.70849 0-68.642999 30.70871-68.642999 68.417199a68.507519 68.507519 0 1 0 137.060198 0c0-37.70849-30.70871-68.4172-68.417199-68.417199z" fill="#919191" p-id="3241"></path></svg>
