<svg t="1724767341013" class="icon" viewBox="0 0 1024 1024" version="1.1" xmlns="http://www.w3.org/2000/svg" p-id="1069" width="256" height="256"><path d="M901.624604 847.018667l62.748445 63.089777c14.620444 14.734222 29.582222 29.127111 44.032 44.145778 18.545778 19.512889 20.48 41.984 5.12 57.742222-15.416889 15.758222-38.343111 14.734222-57.628445-4.096-29.070222-28.387556-57.514667-57.514667-86.243555-86.186666-6.599111-6.599111-13.539556-12.856889-21.617778-20.423111-240.071111 200.305778-568.376889 137.671111-726.755555-58.709334-173.681778-215.495111-159.345778-509.269333 33.336888-696.490666a512.796444 512.796444 0 0 1 691.143112-22.698667 515.754667 515.754667 0 0 1 55.864888 723.626667zM515.29216 75.036444c-244.053333 0.170667-439.409778 194.332444-439.409778 436.394667a437.248 437.248 0 0 0 436.451556 437.987556 437.248 437.248 0 0 0 438.215111-436.337778c-0.227556-241.436444-195.697778-438.044444-435.256889-438.044445z m275.228444 441.912889c-19.626667 12.856889-22.357333 26.453333-21.902222 46.023111 0.568889 32.995556 0.398222 66.161778 0 99.214223-0.967111 76.344889-58.766222 135.623111-138.24 141.824-70.371556 5.575111-140.743111-47.729778-150.755555-118.727111-5.688889-42.780444-3.754667-86.698667-4.323556-130.048-0.853333-63.317333 0.512-126.691556-1.877333-189.952-1.422222-37.319111-29.582222-62.919111-65.877334-65.706667-33.223111-2.332444-63.715556 19.683556-72.931555 54.385778-2.275556 9.102222-3.470222 18.488889-3.640889 27.875555-0.284444 17.009778 0.398222 34.019556 0 51.029334-0.739556 31.800889-0.910222 58.481778 30.72 83.285333 41.415111 32.426667 33.848889 100.807111-6.371556 135.452444l-0.853333 0.739556a96.483556 96.483556 0 0 1-135.964444-11.719111c-35.043556-42.837333-28.785778-106.837333 16.611555-137.329778 18.773333-12.572444 23.779556-25.770667 22.698667-46.08-1.308444-25.486222-0.284444-50.972444-0.284445-76.515556 0-89.656889 62.179556-155.477333 145.009778-156.330666 82.887111-0.853333 147.000889 63.943111 149.560889 152.860444 1.080889 46.307556 0 92.672 0 138.922667H551.757938c0 45.397333-0.398222 90.794667 0.398222 135.964444 0.512 46.876444 29.297778 76.856889 72.476444 76.401778 41.301333-0.455111 69.575111-30.72 70.428445-76.060444v-62.407111c0.227556-32.312889 1.934222-60.416-31.175111-85.788445-41.813333-32.085333-34.190222-99.953778 6.485333-135.281778v-0.056889a96.938667 96.938667 0 0 1 136.647111 10.752c34.986667 42.211556 28.842667 107.52-16.554666 137.272889z" fill="#666666" p-id="1070"></path></svg>
